<svg xmlns="http://www.w3.org/2000/svg" xmlns:xlink="http://www.w3.org/1999/xlink" width="500" zoomAndPan="magnify" viewBox="0 0 375 374.999991" height="500" preserveAspectRatio="xMidYMid meet" version="1.0"><defs><clipPath id="14ac0339d4"><path d="M 2.144531 125 L 372.644531 125 L 372.644531 252.375 L 2.144531 252.375 Z M 2.144531 125 " clip-rule="nonzero"/></clipPath></defs><g clip-path="url(#14ac0339d4)"><path fill="#000000" d="M 14.894531 190.96875 C 14.90625 190.945312 14.90625 190.921875 14.917969 190.910156 C 14.761719 190.859375 14.59375 190.800781 14.4375 190.765625 C 13.941406 190.59375 13.449219 190.4375 12.941406 190.304688 C 12.414062 190.136719 12.085938 189.59375 12.21875 189.050781 C 12.640625 187.472656 13.230469 185.941406 13.980469 184.480469 C 13.605469 184.578125 13.246094 184.664062 12.882812 184.734375 C 11.691406 186.785156 10.761719 189.074219 10.125 191.523438 C 11.558594 191.535156 13.039062 191.714844 14.523438 191.921875 C 14.679688 191.621094 14.773438 191.304688 14.894531 190.96875 Z M 19.125 213.914062 C 18.789062 212.914062 18.4375 211.960938 18.066406 211.035156 C 16.0625 210.984375 14.039062 211.046875 12.027344 211.226562 C 12.085938 211.683594 12.207031 212.09375 12.460938 212.347656 C 12.738281 212.625 13.28125 212.769531 13.75 212.902344 C 15.511719 213.386719 17.316406 213.855469 19.125 213.914062 Z M 20.039062 216.894531 C 19.957031 216.605469 19.871094 216.289062 19.789062 216 C 19.679688 216 19.570312 216.011719 19.472656 216.011719 C 17.269531 216.011719 15.125 215.410156 13.207031 214.878906 C 12.558594 214.710938 11.679688 214.457031 11.003906 213.792969 C 9.953125 212.769531 9.941406 211.226562 9.929688 210.296875 C 9.917969 209.765625 10.316406 209.320312 10.859375 209.273438 C 12.957031 209.054688 15.089844 208.972656 17.195312 208.996094 C 17.148438 208.863281 17.101562 208.730469 17.039062 208.597656 C 14.316406 208.511719 11.605469 208.296875 8.882812 208.03125 C 8.90625 208.511719 8.90625 208.972656 8.917969 209.429688 C 8.941406 211.226562 8.953125 212.988281 8.953125 214.746094 C 12.605469 215.761719 16.304688 216.484375 20.039062 216.894531 Z M 21.425781 183.421875 C 20.910156 183.457031 20.390625 183.46875 19.882812 183.515625 C 18.761719 183.636719 17.679688 183.792969 16.605469 183.988281 C 16.59375 184.023438 16.582031 184.082031 16.546875 184.144531 C 15.691406 185.542969 14.980469 187.039062 14.496094 188.617188 C 14.691406 188.679688 14.859375 188.726562 15.050781 188.785156 C 15.558594 188.957031 16.050781 189.113281 16.546875 189.246094 C 16.847656 189.328125 17.101562 189.535156 17.207031 189.824219 C 17.339844 190.101562 17.328125 190.402344 17.195312 190.679688 C 17.0625 190.980469 16.945312 191.304688 16.835938 191.644531 C 16.773438 191.847656 16.679688 192.03125 16.605469 192.234375 C 18.183594 192.476562 19.714844 192.679688 21.148438 192.71875 C 20.222656 192.464844 19.390625 191.910156 18.957031 190.980469 C 18.414062 189.773438 18.761719 188.484375 19.078125 187.617188 C 19.617188 186.097656 20.425781 184.675781 21.425781 183.421875 Z M 20.777344 224.550781 C 21.332031 224.226562 21.8125 223.585938 22.222656 222.886719 C 16.96875 222.042969 11.726562 220.835938 6.59375 219.316406 C 6.59375 219.414062 6.59375 219.5 6.59375 219.570312 C 6.59375 220.171875 6.59375 220.765625 6.617188 221.367188 C 11.160156 222.679688 15.425781 223.886719 19.460938 224.972656 C 19.957031 224.898438 20.402344 224.792969 20.777344 224.550781 Z M 28.753906 183.238281 L 27.066406 183.25 C 26.125 183.25 25.1875 183.265625 24.257812 183.289062 C 24.199219 183.359375 24.160156 183.457031 24.101562 183.515625 C 22.714844 184.855469 21.667969 186.507812 21.015625 188.316406 C 20.703125 189.160156 20.65625 189.726562 20.835938 190.125 C 21.125 190.738281 22.089844 190.921875 22.777344 190.714844 C 23.714844 190.402344 24.523438 189.570312 25.175781 188.785156 C 26.597656 187.085938 27.789062 185.21875 28.753906 183.238281 Z M 29.125 214.902344 C 29.5 212.382812 29.910156 209.816406 30.453125 207.308594 C 26.621094 206.609375 22.691406 206.8125 18.980469 207.921875 C 20.171875 210.5625 21.304688 213.699219 22.234375 217.074219 C 22.234375 217.085938 22.234375 217.097656 22.234375 217.097656 C 24.390625 217.28125 26.558594 217.363281 28.742188 217.339844 C 28.875 216.53125 28.996094 215.722656 29.125 214.902344 Z M 32.019531 201.761719 C 32.1875 201.300781 32.378906 200.867188 32.5625 200.421875 C 29.875 200.21875 27.246094 200.21875 24.691406 200.46875 C 24.402344 200.496094 24.125 200.410156 23.921875 200.242188 C 23.714844 200.0625 23.582031 199.808594 23.558594 199.53125 C 23.4375 197.914062 23.390625 196.285156 23.390625 194.671875 C 22.777344 194.753906 22.148438 194.777344 21.511719 194.777344 C 19.605469 194.777344 17.605469 194.476562 15.640625 194.164062 C 13.605469 193.863281 11.519531 193.550781 9.640625 193.597656 C 9.507812 194.308594 9.375 195.042969 9.28125 195.804688 C 8.882812 199.082031 8.847656 202.542969 8.859375 205.96875 C 11.496094 206.246094 14.171875 206.425781 16.824219 206.523438 C 16.90625 206.464844 16.980469 206.402344 17.078125 206.367188 C 21.511719 204.800781 26.308594 204.4375 30.933594 205.304688 C 31.246094 204.101562 31.585938 202.90625 32.019531 201.761719 Z M 31.511719 186.167969 C 32.5 185.191406 33.5 184.203125 34.476562 183.203125 L 31.042969 183.214844 C 29.945312 185.699219 28.488281 188.027344 26.753906 190.113281 C 26.390625 190.535156 25.980469 190.980469 25.523438 191.390625 C 25.511719 191.535156 25.511719 191.703125 25.511719 191.847656 C 25.96875 191.597656 26.390625 191.304688 26.777344 190.921875 C 28.355469 189.304688 29.945312 187.75 31.511719 186.167969 Z M 39.753906 205.367188 C 40.40625 204.183594 41.117188 203.085938 41.886719 202.015625 C 39.453125 201.386719 37.054688 200.929688 34.683594 200.652344 C 34.441406 201.230469 34.175781 201.84375 33.945312 202.472656 C 32.488281 206.4375 31.8125 210.890625 31.152344 215.207031 C 30.984375 216.328125 30.8125 217.4375 30.632812 218.535156 C 30.5625 219.015625 30.140625 219.367188 29.644531 219.378906 C 22.367188 219.558594 15.125 218.628906 8.136719 216.652344 C 7.992188 216.761719 7.832031 216.882812 7.652344 216.953125 C 7.460938 217.027344 7.230469 217.160156 6.976562 217.28125 C 12.546875 218.945312 18.257812 220.234375 23.980469 221.066406 C 24.320312 221.125 24.597656 221.332031 24.753906 221.632812 C 24.910156 221.921875 24.898438 222.273438 24.753906 222.574219 C 24.160156 223.707031 23.464844 224.9375 22.5 225.804688 C 27.609375 227.15625 32.390625 228.347656 36.960938 229.386719 C 36.71875 228.492188 36.488281 227.566406 36.320312 226.613281 C 35.960938 224.636719 35.660156 222.523438 36.152344 220.199219 C 36.394531 219.050781 36.453125 218.160156 36.355469 216.761719 C 36.066406 212.589844 38.164062 208.261719 39.753906 205.367188 Z M 94.332031 220.449219 C 94.390625 219.101562 94.441406 217.882812 94.273438 216.75 C 93.574219 211.769531 91.511719 207.089844 88.320312 203.230469 C 85.234375 199.519531 81.222656 196.671875 76.714844 195.03125 C 74.21875 194.117188 72.195312 193.753906 70.148438 193.828125 C 69.148438 193.863281 68.242188 193.730469 67.433594 193.621094 C 66.929688 193.550781 66.449219 193.476562 65.929688 193.453125 C 65.820312 193.453125 65.6875 193.453125 65.566406 193.453125 C 64.183594 193.453125 62.640625 193.753906 61.179688 194.105469 C 58.507812 194.71875 55.953125 195.757812 53.589844 197.15625 C 49.433594 199.613281 45.984375 203.183594 43.613281 207.476562 C 41.527344 211.273438 40.585938 214.203125 40.753906 216.472656 C 40.851562 217.96875 40.839844 219.339844 40.453125 221.125 C 40.140625 222.65625 40.359375 224.226562 40.648438 225.828125 C 41.261719 229.265625 42.492188 232.253906 44.25 234.703125 C 46.839844 238.332031 49.828125 241.273438 53.082031 243.421875 C 59.445312 247.640625 67.710938 248.800781 75.171875 246.554688 C 79.691406 245.195312 83.765625 242.722656 86.945312 239.429688 C 89.847656 236.402344 91.679688 233.546875 92.5 230.664062 C 92.65625 230.097656 92.839844 229.519531 93.019531 228.953125 C 93.644531 226.890625 94.246094 224.9375 94.246094 223.007812 C 94.246094 222.246094 94.285156 221.5 94.320312 220.726562 Z M 104.863281 225.175781 C 105.527344 221.777344 105.828125 217.90625 104.914062 214.179688 C 103.285156 207.65625 101.621094 200.90625 97.742188 195.347656 C 94.933594 191.355469 91.679688 188.351562 88.019531 186.398438 C 80.824219 182.539062 72.386719 180.78125 64.242188 181.40625 C 63.472656 181.46875 62.6875 181.5625 61.917969 181.660156 C 55.480469 182.515625 49.226562 184.855469 43.792969 188.414062 L 43.515625 188.582031 C 43.007812 188.90625 42.539062 189.195312 42.214844 189.582031 C 42.058594 189.738281 41.9375 189.957031 41.828125 190.136719 C 41.695312 190.328125 41.574219 190.523438 41.429688 190.714844 C 40.925781 191.378906 40.371094 191.980469 39.816406 192.546875 C 39.285156 193.128906 38.765625 193.667969 38.332031 194.261719 C 37.320312 195.585938 36.417969 197.082031 35.609375 198.699219 C 38.128906 199.035156 40.660156 199.542969 43.25 200.253906 C 45.539062 197.515625 48.273438 195.175781 51.335938 193.355469 C 54.09375 191.730469 57.058594 190.535156 60.179688 189.800781 C 62.085938 189.363281 64.132812 188.96875 66.121094 189.050781 C 66.773438 189.074219 67.421875 189.160156 68.050781 189.257812 C 68.738281 189.339844 69.386719 189.4375 69.988281 189.425781 C 72.59375 189.316406 75.21875 189.789062 78.21875 190.882812 C 83.460938 192.800781 88.125 196.105469 91.707031 200.421875 C 95.417969 204.90625 97.828125 210.347656 98.644531 216.132812 C 98.851562 217.640625 98.816406 219.089844 98.742188 220.65625 L 98.71875 220.957031 C 98.683594 221.632812 98.644531 222.320312 98.644531 223.007812 C 98.644531 223.984375 98.539062 224.898438 98.367188 225.816406 C 99.09375 226.480469 99.753906 227.238281 100.296875 228.058594 C 101.597656 228.058594 102.925781 228.058594 104.238281 228.046875 C 104.394531 227.382812 104.550781 226.695312 104.695312 225.972656 C 104.683594 225.902344 104.660156 225.839844 104.660156 225.769531 C 104.660156 225.550781 104.742188 225.347656 104.863281 225.175781 Z M 113.625 176.96875 C 113.660156 176.824219 113.699219 176.691406 113.746094 176.546875 L 78.039062 177.800781 C 71.304688 178.03125 64.484375 178.273438 57.699219 178.972656 C 50.925781 179.660156 44.203125 180.804688 37.695312 182.878906 C 36.117188 184.480469 34.539062 186.050781 32.972656 187.628906 C 31.390625 189.195312 29.824219 190.765625 28.246094 192.355469 C 27.402344 193.210938 26.464844 193.765625 25.453125 194.152344 C 25.4375 195.550781 25.464844 196.949219 25.535156 198.335938 C 28.101562 198.144531 30.753906 198.191406 33.441406 198.445312 C 34.394531 196.457031 35.464844 194.632812 36.683594 193.019531 C 37.199219 192.332031 37.765625 191.730469 38.332031 191.136719 C 38.863281 190.582031 39.359375 190.039062 39.804688 189.460938 C 39.898438 189.328125 39.984375 189.183594 40.09375 189.039062 C 40.261719 188.738281 40.453125 188.460938 40.695312 188.207031 C 41.203125 187.628906 41.839844 187.21875 42.394531 186.84375 L 42.660156 186.6875 C 48.347656 182.949219 54.902344 180.515625 61.652344 179.621094 C 62.457031 179.5 63.265625 179.429688 64.085938 179.355469 C 72.59375 178.695312 81.4375 180.550781 88.992188 184.578125 C 90.789062 185.542969 92.523438 186.761719 94.140625 188.207031 C 94.320312 188.085938 94.511719 187.992188 94.730469 187.976562 L 112.710938 187.847656 C 112.648438 185.722656 112.683594 183.601562 112.902344 181.527344 L 101.648438 181.515625 C 101.09375 181.515625 100.621094 181.058594 100.621094 180.492188 C 100.621094 179.910156 101.09375 179.453125 101.648438 179.453125 L 113.144531 179.476562 C 113.277344 178.632812 113.421875 177.800781 113.625 176.96875 Z M 107.019531 213.664062 C 109.515625 213.648438 112.011719 213.613281 114.492188 213.601562 C 113.84375 206.621094 113.289062 199.589844 112.902344 192.609375 C 112.855469 191.714844 112.804688 190.800781 112.757812 189.90625 L 96.054688 190.039062 C 97.25 191.28125 98.355469 192.65625 99.417969 194.164062 C 103.527344 200.046875 105.320312 207.285156 106.902344 213.675781 C 106.902344 213.675781 106.902344 213.675781 106.902344 213.699219 C 106.949219 213.675781 106.996094 213.664062 107.019531 213.664062 Z M 115.289062 221.390625 C 115.082031 219.484375 114.890625 217.570312 114.699219 215.664062 C 112.238281 215.675781 109.769531 215.6875 107.296875 215.722656 C 107.585938 217.691406 107.585938 219.65625 107.429688 221.558594 Z M 132.363281 160.824219 C 131.160156 161.511719 129.953125 162.199219 128.773438 162.875 C 127.183594 163.765625 125.617188 164.644531 124.023438 165.539062 L 130.160156 165.539062 C 130.144531 165.285156 130.160156 164.996094 130.207031 164.71875 C 130.386719 163.707031 130.882812 162.847656 131.363281 162.148438 C 131.675781 161.691406 132.015625 161.269531 132.363281 160.824219 Z M 137.519531 169.636719 C 137.617188 169.492188 137.726562 169.335938 137.808594 169.191406 L 133.832031 168.757812 C 133.425781 168.722656 132.941406 168.660156 132.460938 168.515625 L 131.074219 170.496094 C 133.136719 170.664062 135.125 170.625 137.015625 170.421875 C 137.183594 170.167969 137.363281 169.902344 137.519531 169.636719 Z M 147.570312 165.285156 C 147.65625 164.777344 147.753906 164.261719 147.679688 163.839844 C 147.59375 163.246094 147.1875 162.703125 146.65625 162.03125 C 145.738281 160.871094 144.835938 159.75 143.789062 158.773438 C 142.8125 157.859375 141.847656 157.21875 140.859375 156.796875 C 140.859375 156.796875 140.835938 156.796875 140.824219 156.820312 C 140.546875 156.929688 140.257812 157.0625 139.992188 157.21875 C 139.425781 157.496094 138.882812 157.796875 138.375 158.132812 C 136.269531 159.472656 134.4375 161.269531 133.074219 163.308594 C 132.726562 163.824219 132.339844 164.441406 132.230469 165.054688 C 132.148438 165.574219 132.277344 166.070312 132.554688 166.308594 C 132.871094 166.574219 133.410156 166.648438 134.039062 166.71875 L 138.195312 167.152344 C 140.75 167.417969 143.65625 167.734375 146.183594 166.875 C 146.535156 166.769531 147.054688 166.550781 147.269531 166.238281 C 147.414062 166.007812 147.488281 165.648438 147.570312 165.285156 Z M 162.585938 138.710938 C 162.453125 138.40625 162.320312 138.105469 162.199219 137.863281 C 145.316406 143.351562 127.445312 151.828125 108.3125 163.378906 C 109.867188 164.1875 111.539062 164.789062 113.289062 165.105469 C 128.132812 153.878906 145.160156 144.761719 162.585938 138.710938 Z M 117.359375 221.332031 L 200.242188 219.523438 C 200.136719 218.085938 200.074219 216.652344 200.003906 215.195312 C 193.375 215.242188 186.796875 215.265625 180.277344 215.300781 C 159.511719 215.386719 138.148438 215.484375 116.757812 215.652344 C 116.949219 217.542969 117.144531 219.449219 117.359375 221.332031 Z M 200.75 189.234375 L 114.816406 189.894531 C 114.867188 190.738281 114.902344 191.609375 114.949219 192.488281 C 115.347656 199.492188 115.890625 206.570312 116.566406 213.589844 C 138.015625 213.433594 159.453125 213.324219 180.265625 213.238281 C 186.757812 213.203125 193.316406 213.179688 199.917969 213.15625 C 199.664062 205.136719 199.953125 197.167969 200.75 189.234375 Z M 200.953125 187.171875 C 201.472656 182.636719 202.148438 178.140625 202.980469 173.652344 C 182.457031 174.257812 161.332031 174.882812 140.21875 175.617188 L 115.902344 176.476562 C 115.816406 176.800781 115.699219 177.125 115.625 177.464844 C 114.816406 180.804688 114.671875 184.214844 114.746094 187.832031 Z M 204.785156 165.066406 C 204.761719 165.066406 204.738281 165.066406 204.714844 165.066406 L 198.195312 165.226562 C 182.277344 165.597656 165.816406 165.949219 149.523438 165.972656 C 149.425781 166.40625 149.28125 166.925781 148.96875 167.382812 C 148.402344 168.226562 147.476562 168.613281 146.835938 168.832031 C 145.34375 169.335938 143.800781 169.492188 142.292969 169.492188 C 141.546875 169.492188 140.8125 169.46875 140.074219 169.410156 C 140.0625 169.457031 140.050781 169.519531 140.015625 169.554688 C 139.761719 169.953125 139.523438 170.363281 139.257812 170.757812 C 139.003906 171.15625 138.738281 171.554688 138.507812 171.929688 C 138.339844 172.207031 138.0625 172.375 137.761719 172.421875 C 136.460938 172.582031 135.125 172.652344 133.75 172.652344 C 132.230469 172.652344 130.675781 172.554688 129.097656 172.363281 C 128.738281 172.316406 128.433594 172.085938 128.289062 171.761719 C 128.132812 171.433594 128.183594 171.050781 128.386719 170.746094 L 130.59375 167.601562 L 121.132812 167.601562 C 119.242188 169.335938 117.6875 171.652344 116.613281 174.390625 L 140.148438 173.570312 C 161.429688 172.820312 182.6875 172.183594 203.351562 171.578125 C 203.785156 169.410156 204.28125 167.238281 204.785156 165.066406 Z M 205.113281 136.78125 C 202.714844 136.804688 200.304688 136.816406 197.917969 136.828125 C 195.363281 136.863281 192.796875 137.007812 190.3125 137.152344 L 187.941406 137.285156 C 185.496094 137.417969 182.855469 138.226562 180.300781 139.011719 C 179.675781 139.203125 179.070312 139.382812 178.46875 139.566406 C 172.429688 141.324219 166.25 143.652344 159.585938 146.644531 C 153.777344 149.261719 148.054688 152.203125 142.414062 155.265625 C 143.355469 155.746094 144.28125 156.410156 145.183594 157.265625 C 146.332031 158.339844 147.292969 159.535156 148.269531 160.75 C 148.800781 161.425781 149.535156 162.355469 149.726562 163.511719 C 149.742188 163.644531 149.742188 163.777344 149.753906 163.910156 C 165.949219 163.921875 182.324219 163.550781 198.148438 163.175781 L 198.59375 163.164062 C 201.113281 154.492188 203.304688 145.617188 205.113281 136.78125 Z M 207.089844 152.589844 L 210.957031 136.730469 C 210.414062 136.730469 209.882812 136.730469 209.332031 136.742188 C 208.621094 136.742188 207.921875 136.753906 207.210938 136.753906 C 205.425781 145.59375 203.246094 154.433594 200.738281 163.101562 L 204.679688 163.019531 C 204.859375 163.019531 205.050781 163.019531 205.246094 163.007812 C 205.523438 161.59375 205.761719 160.0625 205.992188 158.582031 C 206.304688 156.554688 206.644531 154.445312 207.089844 152.589844 Z M 216.730469 136.695312 C 215.523438 136.71875 214.308594 136.71875 213.042969 136.71875 C 213.042969 136.78125 213.054688 136.828125 213.042969 136.875 L 209.089844 153.070312 C 208.65625 154.84375 208.328125 156.90625 208.015625 158.90625 C 207.8125 160.257812 207.59375 161.632812 207.339844 162.957031 C 209.679688 162.910156 212.042969 162.847656 214.390625 162.8125 C 214.175781 154.058594 214.945312 145.28125 216.730469 136.695312 Z M 245.035156 218.546875 C 247.976562 218.484375 250.167969 217.003906 252.085938 214.867188 C 235.347656 215.011719 218.597656 215.109375 202.050781 215.195312 C 202.136719 216.617188 202.183594 218.050781 202.292969 219.484375 Z M 247.410156 223.34375 L 254.6875 223.285156 C 254.640625 223.007812 254.566406 222.730469 254.484375 222.476562 C 253.675781 222.140625 252.855469 221.765625 252.011719 221.367188 C 251.109375 220.933594 250.179688 220.5 249.300781 220.148438 C 249.121094 220.078125 248.988281 219.933594 248.867188 219.8125 C 247.734375 220.28125 246.492188 220.570312 245.082031 220.59375 L 201.4375 221.558594 C 201.425781 221.558594 201.414062 221.574219 201.402344 221.574219 C 201.363281 221.574219 201.339844 221.585938 201.328125 221.585938 C 201.292969 221.585938 201.28125 221.574219 201.246094 221.574219 L 107.214844 223.621094 C 107.152344 223.996094 107.09375 224.359375 107.035156 224.730469 L 223.394531 223.574219 C 231.597656 223.476562 239.394531 223.417969 247.410156 223.34375 Z M 263.097656 197.792969 C 263.015625 197.710938 262.894531 197.636719 262.835938 197.503906 C 261.015625 194.042969 257.265625 191.332031 252.554688 190.050781 C 248.191406 188.859375 243.53125 188.894531 239.023438 188.929688 L 202.824219 189.21875 C 202.015625 197.15625 201.726562 205.125 201.96875 213.132812 C 218.984375 213.046875 236.261719 212.949219 253.496094 212.792969 C 253.507812 212.792969 253.507812 212.792969 253.507812 212.792969 C 253.589844 212.792969 253.664062 212.832031 253.734375 212.84375 C 254.496094 211.804688 255.242188 210.683594 256 209.539062 L 256.699219 208.488281 C 258.039062 206.488281 259.265625 204.351562 260.460938 202.28125 C 261.304688 200.785156 262.183594 199.277344 263.097656 197.792969 Z M 271.101562 161.703125 C 271.222656 160.535156 270.871094 159.390625 270.5 158.617188 C 269.992188 157.507812 269.257812 156.496094 268.472656 155.433594 C 264.21875 149.539062 260.195312 143.53125 256.449219 137.429688 C 248.917969 137.082031 240.902344 136.875 232.140625 136.78125 C 227.960938 136.71875 223.597656 136.695312 218.8125 136.695312 C 217.019531 145.269531 216.234375 154.023438 216.453125 162.765625 C 232.335938 162.425781 248.386719 162.113281 264.015625 161.835938 C 266.363281 161.800781 268.738281 161.753906 271.101562 161.703125 Z M 275.464844 184.964844 C 277.921875 179.886719 280.476562 175.582031 283.261719 171.882812 C 269.210938 171.90625 254.964844 172.074219 240.699219 172.519531 C 229.238281 172.871094 217.898438 173.195312 206.59375 173.53125 C 206.101562 173.558594 205.582031 173.570312 205.089844 173.582031 C 204.234375 178.089844 203.546875 182.601562 203.027344 187.144531 L 239 186.871094 C 243.660156 186.832031 248.457031 186.808594 253.097656 188.074219 C 258.097656 189.425781 262.125 192.285156 264.292969 195.960938 C 264.929688 195.007812 265.59375 194.066406 266.304688 193.152344 C 268.871094 189.90625 271.992188 187.160156 275.464844 184.964844 Z M 279.066406 161.558594 C 277.835938 159.726562 276.644531 157.894531 275.4375 156.046875 C 272.738281 151.890625 270.066406 147.644531 267.460938 143.425781 C 267.195312 142.988281 266.945312 142.519531 266.703125 142.050781 C 266.304688 141.324219 265.90625 140.578125 265.460938 140.011719 C 265.015625 139.421875 264.101562 138.84375 263.28125 138.347656 C 262.941406 138.140625 262.628906 137.9375 262.339844 137.734375 C 261.21875 137.671875 260.085938 137.613281 258.953125 137.550781 C 262.460938 143.195312 266.183594 148.765625 270.066406 154.105469 C 270.945312 155.3125 271.765625 156.445312 272.367188 157.738281 C 272.992188 159.097656 273.246094 160.425781 273.171875 161.667969 C 275.136719 161.632812 277.089844 161.59375 279.066406 161.558594 Z M 281.5 161.511719 C 282.019531 161.5 282.523438 161.5 283.03125 161.488281 C 282.390625 159.75 281.378906 158.132812 280.441406 156.699219 C 276.414062 150.476562 272.234375 144.269531 267.992188 138.226562 C 267.957031 138.179688 267.945312 138.140625 267.933594 138.09375 C 267.390625 138.058594 266.859375 138.023438 266.328125 137.972656 C 266.605469 138.226562 266.871094 138.480469 267.101562 138.757812 C 267.640625 139.46875 268.078125 140.289062 268.511719 141.074219 C 268.738281 141.519531 268.96875 141.941406 269.222656 142.339844 C 271.789062 146.558594 274.464844 150.792969 277.175781 154.9375 C 278.5 157.011719 279.875 159.074219 281.246094 161.136719 C 281.34375 161.269531 281.417969 161.390625 281.5 161.511719 Z M 283.453125 169.820312 C 283.429688 169.226562 283.40625 168.578125 283.453125 167.925781 C 283.332031 167.757812 283.128906 167.492188 283.03125 167.382812 C 282.886719 167.214844 282.777344 167.070312 282.71875 166.984375 L 281.621094 165.382812 C 281.222656 164.789062 280.824219 164.1875 280.429688 163.585938 C 274.933594 163.695312 269.460938 163.789062 264.050781 163.898438 C 245.253906 164.234375 225.863281 164.597656 206.90625 165.03125 C 206.378906 167.191406 205.90625 169.347656 205.460938 171.507812 C 205.824219 171.507812 206.183594 171.496094 206.535156 171.484375 C 217.835938 171.15625 229.175781 170.820312 240.636719 170.46875 C 255 170.011719 269.328125 169.84375 283.453125 169.820312 Z M 287.707031 189.800781 C 287.804688 189.789062 287.898438 189.773438 288.007812 189.738281 C 284.417969 190.246094 280.898438 191.320312 277.667969 193.019531 C 270.304688 196.867188 264.617188 203.628906 262.074219 211.550781 C 261.882812 212.144531 261.726562 212.722656 261.546875 213.3125 C 261.148438 214.699219 260.738281 216.097656 260.121094 217.460938 C 259.460938 218.90625 258.316406 220.765625 256.460938 221.933594 C 256.710938 222.65625 256.808594 223.453125 256.855469 224.226562 C 256.894531 224.515625 256.785156 224.792969 256.59375 224.996094 C 256.398438 225.214844 256.121094 225.335938 255.84375 225.335938 L 247.421875 225.40625 C 239.40625 225.480469 231.625 225.539062 223.40625 225.625 L 106.636719 226.78125 C 106.539062 227.214844 106.441406 227.636719 106.347656 228.046875 C 126.339844 227.964844 146.355469 227.902344 166.371094 227.855469 C 188.785156 227.820312 211.199219 227.769531 233.550781 227.648438 C 240.601562 227.625 247.820312 227.855469 254.761719 228.082031 C 257.929688 228.179688 261.085938 228.265625 264.246094 228.359375 C 264.113281 227.769531 263.953125 227.214844 263.847656 226.613281 C 263.496094 224.636719 263.183594 222.523438 263.691406 220.199219 C 263.917969 219.050781 263.980469 218.160156 263.894531 216.761719 C 263.617188 212.589844 265.703125 208.261719 267.304688 205.367188 C 270.050781 200.363281 274.042969 196.226562 278.875 193.355469 C 281.632812 191.730469 284.597656 190.535156 287.707031 189.800781 Z M 320.230469 160.726562 C 317.15625 158.542969 314.011719 156.410156 310.867188 154.324219 C 308.84375 152.949219 306.78125 151.613281 304.734375 150.308594 C 304.265625 149.996094 303.769531 149.71875 303.289062 149.429688 C 301.890625 148.585938 300.457031 147.742188 299.261719 146.546875 C 297.492188 144.761719 294.613281 143.714844 292.070312 142.785156 L 291.515625 142.578125 C 288.621094 141.519531 285.539062 140.652344 282.089844 139.953125 C 278.234375 139.167969 274.367188 138.683594 270.546875 138.335938 C 274.511719 143.992188 278.414062 149.777344 282.175781 155.578125 C 283.273438 157.289062 284.523438 159.21875 285.210938 161.449219 C 296.890625 161.222656 308.636719 160.992188 320.230469 160.726562 Z M 315.84375 196.671875 C 318.304688 195.695312 320.859375 195.117188 323.449219 194.816406 C 318.496094 188.507812 311.519531 183.769531 303.804688 181.925781 C 290.898438 178.886719 276.136719 184.011719 267.917969 194.429688 C 265.761719 197.179688 263.96875 200.277344 262.242188 203.292969 C 261.027344 205.402344 259.785156 207.585938 258.398438 209.636719 L 257.714844 210.671875 C 255.722656 213.664062 253.699219 216.726562 250.988281 218.628906 C 251.617188 218.90625 252.253906 219.207031 252.894531 219.5 C 253.566406 219.824219 254.242188 220.125 254.917969 220.425781 C 256.59375 219.582031 257.652344 217.894531 258.253906 216.605469 C 258.796875 215.386719 259.183594 214.109375 259.582031 212.746094 C 259.75 212.144531 259.929688 211.515625 260.121094 210.914062 C 262.824219 202.496094 268.871094 195.296875 276.714844 191.199219 C 284.550781 187.085938 293.914062 186.21875 302.359375 188.785156 C 307.421875 190.316406 312.023438 193.066406 315.84375 196.671875 Z M 321.871094 220.449219 C 321.941406 219.039062 321.992188 217.882812 321.820312 216.75 C 321.121094 211.769531 319.050781 207.089844 315.84375 203.230469 C 312.773438 199.519531 308.757812 196.671875 304.25 195.03125 C 301.746094 194.117188 299.722656 193.753906 297.683594 193.828125 C 296.683594 193.863281 295.769531 193.730469 294.960938 193.621094 C 294.46875 193.550781 293.984375 193.476562 293.464844 193.453125 C 293.347656 193.453125 293.214844 193.453125 293.105469 193.453125 C 291.71875 193.453125 290.175781 193.753906 288.707031 194.105469 C 286.042969 194.71875 283.488281 195.757812 281.113281 197.15625 C 276.957031 199.601562 273.523438 203.183594 271.148438 207.476562 C 269.078125 211.273438 268.136719 214.203125 268.28125 216.472656 C 268.390625 217.96875 268.367188 219.339844 267.992188 221.125 C 267.667969 222.65625 267.882812 224.226562 268.183594 225.828125 C 268.8125 229.265625 270.015625 232.253906 271.777344 234.703125 C 274.378906 238.332031 277.355469 241.273438 280.621094 243.421875 C 286.984375 247.640625 295.25 248.8125 302.710938 246.554688 C 307.226562 245.195312 311.3125 242.722656 314.484375 239.429688 C 317.386719 236.402344 319.207031 233.546875 320.027344 230.664062 C 320.207031 230.097656 320.386719 229.519531 320.554688 228.953125 C 321.195312 226.890625 321.773438 224.9375 321.773438 223.007812 C 321.773438 222.246094 321.820312 221.5 321.859375 220.726562 Z M 347.488281 192.234375 C 347.683594 191.933594 347.40625 191.210938 347.1875 190.65625 C 346.417969 188.691406 346.128906 186.664062 346.261719 184.636719 C 346.152344 184.601562 346.066406 184.542969 345.996094 184.457031 L 338.546875 175.910156 C 338.078125 175.355469 337.546875 174.738281 337.222656 173.96875 C 337.003906 173.4375 336.921875 172.90625 336.957031 172.386719 C 336.621094 172.375 336.316406 172.375 335.980469 172.375 C 319.75 172.097656 302.867188 171.882812 285.683594 171.882812 C 285.65625 172.050781 285.597656 172.21875 285.488281 172.363281 C 283.066406 175.449219 280.835938 179.007812 278.691406 183.117188 C 286.5 179.175781 295.660156 177.886719 304.277344 179.921875 C 313.011719 181.996094 320.726562 187.375 325.929688 194.574219 C 327.617188 194.441406 329.316406 194.394531 330.96875 194.355469 L 332.304688 194.332031 C 337.066406 194.261719 341.992188 194.164062 346.511719 192.753906 C 346.753906 192.679688 347.34375 192.511719 347.488281 192.234375 Z M 356.417969 162.679688 C 355.960938 162.402344 355.515625 162.113281 355.058594 161.835938 C 347.800781 157.433594 340.957031 153.261719 333.28125 149.464844 C 331.136719 148.414062 328.824219 147.28125 327.039062 145.414062 C 325.640625 143.980469 324.761719 142.242188 324.460938 140.503906 C 322.4375 141.179688 320.386719 141.734375 318.277344 142.132812 C 323.039062 145.367188 327.773438 148.621094 332.5 151.863281 C 337.871094 155.542969 343.234375 159.207031 348.632812 162.886719 C 351.371094 163.019531 354.007812 162.945312 356.417969 162.679688 Z M 351.09375 170.363281 C 353.875 170.347656 356.730469 170.347656 359.660156 170.347656 C 359.492188 168.394531 359.058594 166.40625 358.574219 164.441406 C 356.335938 164.828125 353.925781 165.019531 351.332031 165.019531 C 350.320312 165.019531 349.296875 164.984375 348.234375 164.921875 C 348.054688 164.910156 347.875 164.851562 347.707031 164.753906 C 342.234375 161.015625 336.789062 157.289062 331.339844 153.550781 C 325.894531 149.828125 320.460938 146.101562 314.976562 142.375 C 314.628906 142.132812 314.445312 141.699219 314.554688 141.289062 C 314.664062 140.855469 314.988281 140.554688 315.421875 140.503906 C 317.894531 140.179688 320.328125 139.636719 322.6875 138.902344 C 282.753906 127.785156 238.914062 129.097656 203.496094 130.207031 C 190.941406 130.59375 177.890625 132.910156 164.175781 137.214844 C 164.574219 138.082031 164.886719 138.988281 164.886719 139.011719 C 165.082031 139.542969 164.792969 140.121094 164.25 140.3125 C 146.535156 146.355469 129.230469 155.578125 114.179688 167.007812 C 114 167.152344 113.78125 167.238281 113.550781 167.238281 C 113.492188 167.238281 113.457031 167.214844 113.394531 167.214844 C 110.625 166.78125 107.972656 165.730469 105.625 164.199219 C 81.945312 162.570312 57.855469 166.613281 39.476562 170.335938 C 30.898438 172.074219 22.726562 174.0625 16.992188 179.488281 C 16.101562 180.347656 15.292969 181.285156 14.546875 182.273438 C 16.171875 181.9375 17.90625 181.648438 19.679688 181.46875 C 22.125 181.226562 24.609375 181.203125 27.019531 181.191406 L 36.371094 181.128906 C 49.855469 176.726562 64.144531 176.222656 77.96875 175.738281 L 114.382812 174.460938 C 116.035156 169.792969 118.9375 166.042969 122.601562 163.984375 C 124.3125 163.019531 126.035156 162.042969 127.761719 161.078125 C 137.738281 155.421875 148.078125 149.574219 158.742188 144.761719 C 165.492188 141.722656 171.769531 139.371094 177.902344 137.574219 C 178.492188 137.417969 179.09375 137.226562 179.699219 137.058594 C 182.359375 136.226562 185.144531 135.382812 187.84375 135.238281 L 190.195312 135.105469 C 192.6875 134.945312 195.292969 134.800781 197.90625 134.777344 C 201.703125 134.742188 205.511719 134.707031 209.316406 134.683594 C 218.101562 134.632812 225.355469 134.632812 232.164062 134.71875 C 243.300781 134.839844 253.242188 135.164062 262.546875 135.671875 C 268.917969 136.042969 275.742188 136.550781 282.5 137.9375 C 286.054688 138.660156 289.238281 139.554688 292.226562 140.652344 L 292.78125 140.855469 C 295.527344 141.855469 298.625 142.988281 300.722656 145.101562 C 301.722656 146.101562 303.058594 146.898438 304.347656 147.65625 C 304.84375 147.957031 305.347656 148.257812 305.832031 148.574219 C 307.902344 149.898438 309.953125 151.238281 312.011719 152.601562 C 316.023438 155.277344 320.050781 158.050781 323.964844 160.859375 C 324.316406 161.101562 324.484375 161.558594 324.351562 161.992188 C 324.21875 162.414062 323.835938 162.703125 323.398438 162.71875 C 309.988281 163.03125 296.371094 163.296875 282.863281 163.550781 C 283.03125 163.777344 283.175781 163.996094 283.320312 164.222656 L 284.40625 165.828125 C 284.453125 165.886719 284.523438 165.972656 284.597656 166.058594 C 285.199219 166.78125 285.550781 167.261719 285.511719 167.839844 C 285.464844 168.421875 285.476562 169.09375 285.527344 169.820312 C 302.78125 169.820312 319.726562 170.035156 336.003906 170.324219 C 341.28125 170.410156 346.054688 170.386719 351.09375 170.363281 Z M 359.707031 172.410156 C 356.757812 172.410156 353.910156 172.410156 351.105469 172.421875 C 347.054688 172.4375 343.164062 172.449219 339.066406 172.421875 C 339.003906 172.640625 339.003906 172.90625 339.113281 173.183594 C 339.308594 173.652344 339.703125 174.113281 340.089844 174.546875 L 347.234375 182.769531 C 351.25 182.792969 355.1875 182.78125 359.140625 182.457031 C 358.925781 180.914062 358.78125 179.285156 358.960938 177.609375 C 359.046875 176.871094 359.179688 176.160156 359.324219 175.511719 C 359.394531 175.101562 359.492188 174.679688 359.5625 174.269531 C 359.648438 173.652344 359.695312 173.039062 359.707031 172.410156 Z M 366.300781 214.542969 C 366.539062 213.890625 366.769531 213.203125 366.988281 212.527344 C 366.6875 212.589844 366.382812 212.648438 366.105469 212.699219 C 354.261719 214.519531 341.101562 215.265625 325.980469 214.988281 C 326.039062 215.363281 326.125 215.75 326.183594 216.132812 C 326.390625 217.628906 326.339844 219.078125 326.269531 220.65625 L 326.257812 220.957031 C 326.230469 221.632812 326.183594 222.320312 326.183594 223.007812 C 326.183594 223.777344 326.113281 224.515625 326.003906 225.238281 C 330.558594 225.164062 335.148438 224.066406 339.621094 222.984375 L 365.539062 216.738281 C 365.792969 216 366.046875 215.265625 366.300781 214.542969 Z M 367.433594 200.085938 C 367.3125 199.011719 367.214844 197.925781 367.15625 196.839844 C 363.9375 195.417969 362.023438 192.199219 361.457031 191.113281 C 360.335938 188.96875 359.792969 186.640625 359.441406 184.492188 C 356.40625 184.746094 353.394531 184.832031 350.371094 184.832031 C 349.683594 184.832031 348.984375 184.820312 348.296875 184.820312 C 348.199219 186.507812 348.441406 188.21875 349.054688 189.800781 C 349.453125 190.835938 349.960938 192.113281 349.273438 193.285156 C 348.707031 194.222656 347.632812 194.5625 347.128906 194.71875 C 342.320312 196.226562 337.257812 196.3125 332.355469 196.382812 L 331.015625 196.417969 C 329.773438 196.441406 328.535156 196.46875 327.28125 196.550781 C 329.546875 200.097656 331.234375 204.027344 332.171875 208.1875 C 333.714844 208.332031 339.089844 208.089844 350.03125 207.042969 C 349.898438 205.644531 350.296875 204.195312 351.175781 203.097656 C 351.332031 202.90625 351.574219 202.761719 351.828125 202.738281 C 357.683594 201.871094 362.792969 201 367.433594 200.085938 Z M 367.648438 210.152344 C 367.832031 209.226562 367.902344 208.261719 367.914062 207.269531 C 367.214844 207.488281 366.539062 207.476562 366.179688 207.464844 C 364.960938 207.417969 363.746094 207.488281 362.273438 207.707031 C 358.707031 208.1875 355.1875 208.597656 351.792969 208.933594 L 351.609375 208.949219 C 330.667969 211.007812 330.511719 210.335938 330.28125 209.199219 C 329.351562 204.726562 327.460938 200.496094 324.859375 196.71875 C 322.304688 196.972656 319.785156 197.40625 317.398438 198.265625 C 318.230469 199.144531 319 200.085938 319.726562 201.0625 C 322.484375 204.558594 324.460938 208.609375 325.53125 212.925781 C 340.753906 213.226562 353.9375 212.492188 365.804688 210.671875 C 366.554688 210.550781 367.167969 210.417969 367.648438 210.152344 Z M 367.878906 204.980469 C 367.816406 204.039062 367.722656 203.097656 367.636719 202.148438 C 363.128906 203.027344 358.191406 203.859375 352.5625 204.703125 C 352.164062 205.328125 351.996094 206.101562 352.054688 206.835938 C 355.285156 206.511719 358.625 206.113281 361.996094 205.65625 C 363.601562 205.4375 364.902344 205.367188 366.277344 205.425781 C 367.15625 205.449219 367.589844 205.304688 367.878906 204.980469 Z M 371.890625 200.578125 C 372.324219 204.535156 372.746094 208.65625 371.589844 212.601562 C 371.253906 213.769531 370.84375 214.917969 370.457031 216.027344 C 370.070312 217.085938 369.710938 218.148438 369.386719 219.207031 C 369.167969 219.96875 368.566406 220.558594 367.78125 220.726562 L 340.644531 227.277344 C 335.59375 228.492188 330.367188 229.734375 324.953125 229.640625 C 324.871094 229.832031 324.820312 230.035156 324.761719 230.242188 C 324.59375 230.785156 324.425781 231.328125 324.28125 231.871094 C 323.242188 235.476562 321.074219 238.9375 317.652344 242.492188 C 313.953125 246.339844 309.230469 249.210938 303.988281 250.777344 C 301.070312 251.65625 298.058594 252.089844 295.058594 252.089844 C 289.082031 252.089844 283.140625 250.378906 278.199219 247.109375 C 274.488281 244.652344 271.113281 241.347656 268.195312 237.273438 C 267.207031 235.910156 266.402344 234.414062 265.714844 232.808594 C 262.015625 232.726562 258.328125 232.605469 254.628906 232.484375 C 247.710938 232.269531 240.566406 232.027344 233.585938 232.0625 C 211.222656 232.183594 188.796875 232.21875 166.394531 232.269531 C 143.90625 232.328125 121.445312 232.363281 99.019531 232.484375 C 99.019531 232.484375 99.019531 232.484375 99.007812 232.484375 C 98.152344 232.484375 97.394531 232.003906 97.019531 231.21875 C 97.007812 231.195312 96.972656 231.160156 96.960938 231.132812 C 96.886719 231.386719 96.800781 231.617188 96.742188 231.871094 C 95.71875 235.476562 93.535156 238.9375 90.125 242.492188 C 86.414062 246.339844 81.691406 249.210938 76.449219 250.777344 C 73.546875 251.65625 70.53125 252.089844 67.519531 252.089844 C 61.542969 252.089844 55.613281 250.378906 50.648438 247.109375 C 46.949219 244.652344 43.585938 241.347656 40.660156 237.273438 C 40.007812 236.355469 39.429688 235.367188 38.898438 234.339844 C 28.65625 232.074219 17.5 229.15625 3.820312 225.140625 C 2.929688 224.875 2.289062 224.066406 2.253906 223.117188 C 2.195312 221.96875 2.195312 220.765625 2.195312 219.570312 C 2.195312 218.4375 2.207031 217.304688 2.144531 216.21875 C 2.121094 215.3125 2.628906 214.46875 3.472656 214.109375 C 3.75 213.988281 4.144531 213.78125 4.554688 213.578125 L 4.554688 213.566406 C 4.554688 212.226562 4.519531 210.875 4.507812 209.503906 C 4.421875 204.824219 4.351562 199.976562 4.90625 195.273438 C 5.820312 187.6875 9.039062 180.960938 13.96875 176.28125 C 20.546875 170.070312 29.742188 167.804688 38.597656 166.007812 C 57.191406 162.246094 81.59375 158.171875 105.730469 159.785156 C 142.015625 137.828125 173.949219 126.710938 203.363281 125.796875 C 240.121094 124.648438 285.863281 123.238281 327.390625 135.644531 C 327.957031 135.816406 328.4375 136.199219 328.714844 136.730469 C 328.992188 137.238281 329.050781 137.863281 328.871094 138.417969 C 328.449219 139.746094 329.234375 141.363281 330.195312 142.363281 C 331.449219 143.664062 333.234375 144.546875 335.113281 145.472656 C 343.089844 149.394531 350.007812 153.613281 357.347656 158.074219 C 358.707031 158.917969 360.09375 159.75 361.503906 160.605469 C 361.996094 160.894531 362.347656 161.390625 362.503906 161.957031 C 363.492188 165.914062 364.625 170.410156 363.914062 174.96875 C 363.828125 175.425781 363.734375 175.910156 363.648438 176.390625 C 363.527344 176.945312 363.40625 177.511719 363.335938 178.089844 C 363.191406 179.441406 363.359375 180.863281 363.566406 182.335938 C 363.890625 184.625 364.289062 187.027344 365.359375 189.050781 C 366.277344 190.8125 367.976562 192.730469 369.710938 193.066406 C 370.734375 193.261719 371.480469 194.152344 371.503906 195.203125 C 371.519531 196.914062 371.710938 198.699219 371.890625 200.578125 " fill-opacity="1" fill-rule="nonzero"/></g><path fill="#000000" d="M 290.308594 215.398438 C 288.9375 211.25 287.921875 206.980469 287.332031 202.640625 C 286.550781 202.980469 285.777344 203.363281 285.042969 203.785156 C 282.164062 205.5 279.765625 207.984375 278.078125 210.949219 C 282.113281 212.46875 286.222656 213.976562 290.308594 215.398438 Z M 288.949219 220.222656 C 289.140625 219.234375 289.527344 218.304688 290.042969 217.496094 C 285.730469 215.988281 281.378906 214.398438 277.089844 212.769531 C 276.003906 215.0625 275.980469 215.953125 275.980469 215.964844 C 276.089844 217.820312 276.054688 219.425781 275.835938 221.054688 C 280.140625 221.066406 284.511719 220.980469 288.828125 220.777344 C 288.851562 220.65625 288.875 220.535156 288.898438 220.4375 Z M 289.25 223.308594 C 289.152344 223.152344 289.066406 222.996094 288.984375 222.839844 C 284.910156 223.019531 280.777344 223.128906 276.679688 223.128906 C 276.308594 223.128906 275.933594 223.128906 275.570312 223.128906 C 275.597656 223.382812 275.65625 223.804688 275.777344 224.464844 C 276.1875 226.722656 276.957031 228.710938 278.03125 230.207031 C 278.464844 230.785156 278.886719 231.328125 279.332031 231.859375 C 282.390625 228.757812 285.730469 225.890625 289.25 223.308594 Z M 292.925781 226.492188 C 292.070312 226.140625 291.1875 225.613281 290.527344 224.925781 C 287.03125 227.480469 283.730469 230.328125 280.691406 233.402344 C 282.019531 234.8125 283.40625 236.03125 284.863281 236.984375 C 285.695312 237.539062 286.632812 237.996094 287.597656 238.40625 C 289.105469 234.339844 290.898438 230.339844 292.925781 226.492188 Z M 299.839844 239.320312 C 299.179688 236.679688 298.035156 234.101562 296.914062 231.605469 L 294.890625 227.144531 C 292.851562 230.988281 291.058594 235.015625 289.527344 239.09375 C 292.851562 240.070312 296.503906 240.191406 299.839844 239.320312 Z M 299.09375 201.605469 C 298.78125 201.554688 298.480469 201.53125 298.179688 201.53125 C 298.179688 201.53125 297.515625 201.542969 297.324219 201.542969 C 295.914062 201.542969 294.742188 201.386719 293.875 201.242188 L 293.707031 201.230469 C 293.515625 201.207031 293.308594 201.15625 293.058594 201.15625 C 292.40625 201.15625 290.996094 201.484375 290.476562 201.617188 C 290.082031 201.699219 289.683594 201.820312 289.296875 201.941406 C 289.886719 206.453125 290.9375 210.902344 292.394531 215.207031 C 292.996094 214.878906 293.730469 214.664062 294.5625 214.785156 C 294.695312 214.796875 294.863281 214.785156 295.058594 214.746094 C 295.273438 214.734375 295.503906 214.710938 295.695312 214.710938 C 296.203125 214.722656 296.574219 214.855469 296.914062 214.976562 L 297.082031 215.035156 C 297.179688 215.0625 297.273438 215.109375 297.359375 215.132812 C 298.371094 210.695312 298.960938 206.160156 299.09375 201.605469 Z M 299.539062 221.199219 C 299.722656 220.644531 299.769531 219.570312 299.636719 219.078125 C 299.625 219.027344 299.503906 218.640625 298.574219 218.003906 C 297.949219 217.542969 297.167969 217.230469 296.417969 216.988281 L 296.226562 216.90625 C 295.949219 216.808594 295.816406 216.761719 295.660156 216.761719 C 295.539062 216.761719 295.40625 216.785156 295.285156 216.796875 C 295.007812 216.820312 294.671875 216.871094 294.308594 216.820312 C 294.226562 216.808594 294.164062 216.808594 294.117188 216.808594 C 293.648438 216.808594 293.203125 217.039062 292.597656 217.59375 C 291.78125 218.339844 291.1875 219.414062 290.960938 220.621094 L 290.910156 220.847656 C 290.828125 221.234375 290.730469 221.703125 290.828125 221.921875 C 290.898438 222.140625 291.203125 222.535156 291.441406 222.8125 L 291.707031 223.152344 C 292.320312 223.960938 293.671875 224.742188 294.863281 224.960938 C 295.828125 225.152344 297.09375 225.152344 297.707031 224.636719 C 298.15625 224.273438 298.382812 223.683594 298.503906 223.261719 C 298.625 222.851562 298.792969 222.511719 298.925781 222.308594 L 299.15625 221.933594 C 299.324219 221.667969 299.492188 221.425781 299.539062 221.199219 Z M 308.925781 234.089844 C 309.363281 233.640625 309.722656 233.21875 310.074219 232.796875 C 306.988281 229.855469 303.671875 227.117188 300.191406 224.621094 C 299.914062 225.273438 299.515625 225.816406 299.023438 226.226562 C 298.457031 226.695312 297.78125 226.914062 297.105469 227.035156 L 298.78125 230.75 C 299.925781 233.292969 301.082031 235.910156 301.792969 238.683594 C 304.527344 237.65625 306.976562 236.101562 308.925781 234.089844 Z M 310.433594 208.828125 C 310.265625 208.609375 310.085938 208.367188 309.914062 208.152344 C 307.710938 205.5 304.832031 203.449219 301.601562 202.28125 C 301.433594 202.21875 301.277344 202.171875 301.117188 202.109375 C 300.972656 206.332031 300.445312 210.539062 299.5625 214.664062 C 303.289062 212.925781 306.9375 210.984375 310.433594 208.828125 Z M 314.074219 223.007812 C 314.074219 222.8125 314.085938 222.632812 314.085938 222.441406 C 309.867188 222.101562 305.578125 222.007812 301.347656 222.1875 C 301.261719 222.378906 301.179688 222.550781 301.082031 222.71875 C 304.6875 225.285156 308.121094 228.121094 311.335938 231.160156 C 311.953125 230.21875 312.398438 229.363281 312.628906 228.53125 C 312.796875 227.925781 312.988281 227.324219 313.167969 226.722656 C 313.628906 225.238281 314.074219 223.777344 314.074219 223.007812 Z M 314.167969 220.089844 C 314.207031 219.378906 314.265625 218.339844 314.179688 217.835938 C 313.820312 215.277344 312.902344 212.769531 311.589844 210.539062 C 307.914062 212.792969 304.09375 214.84375 300.179688 216.652344 C 300.949219 217.265625 301.457031 217.90625 301.613281 218.558594 C 301.734375 218.992188 301.78125 219.558594 301.746094 220.113281 C 305.878906 219.96875 310.046875 220.039062 314.15625 220.378906 C 314.15625 220.367188 314.15625 220.367188 314.15625 220.367188 Z M 316.363281 217.53125 C 316.460938 218.171875 316.421875 219.113281 316.363281 220.1875 L 316.363281 220.464844 C 316.316406 221.320312 316.265625 222.164062 316.265625 223.007812 C 316.265625 224.117188 315.820312 225.601562 315.289062 227.300781 C 315.097656 227.964844 314.90625 228.554688 314.746094 229.132812 C 314.179688 231.109375 312.757812 233.28125 310.519531 235.621094 C 307.988281 238.238281 304.746094 240.191406 301.117188 241.289062 C 299.191406 241.867188 297.167969 242.15625 295.09375 242.15625 C 290.960938 242.15625 286.898438 240.972656 283.644531 238.816406 C 280.957031 237.042969 278.464844 234.570312 276.246094 231.484375 C 274.980469 229.722656 274.066406 227.433594 273.59375 224.839844 C 273.304688 223.210938 273.292969 222.65625 273.378906 222.285156 C 273.824219 220.246094 273.933594 218.402344 273.777344 216.085938 C 273.738281 215.578125 273.882812 213.941406 275.980469 210.140625 C 277.863281 206.703125 280.621094 203.847656 283.921875 201.894531 C 285.800781 200.785156 287.839844 199.976562 289.972656 199.46875 C 291.042969 199.203125 292.261719 198.953125 293.105469 198.953125 C 293.480469 198.976562 293.757812 199.011719 294.019531 199.046875 L 294.191406 199.070312 C 294.996094 199.191406 296.082031 199.335938 297.324219 199.335938 C 297.515625 199.335938 298.167969 199.324219 298.167969 199.324219 C 299.394531 199.324219 300.695312 199.601562 302.347656 200.207031 C 305.949219 201.53125 309.15625 203.785156 311.613281 206.765625 C 314.132812 209.78125 315.820312 213.601562 316.363281 217.53125 " fill-opacity="1" fill-rule="nonzero"/><path fill="#000000" d="M 266.90625 178.765625 L 261.484375 178.742188 C 261.847656 178.945312 262.21875 179.089844 262.507812 179.175781 C 263.375 179.453125 265.039062 179.828125 266.414062 179.089844 C 266.59375 179.007812 266.761719 178.886719 266.90625 178.765625 Z M 260.4375 176.679688 L 267.859375 176.714844 C 267.859375 176.582031 267.824219 176.449219 267.789062 176.316406 C 267.535156 175.617188 266.800781 175.039062 265.917969 174.847656 C 265.640625 174.785156 265.363281 174.761719 265.0625 174.761719 C 264.449219 174.761719 263.75 174.882812 262.96875 175.136719 C 261.980469 175.472656 260.917969 176.015625 260.4375 176.679688 Z M 271.246094 176.714844 C 271.824219 176.726562 272.28125 177.175781 272.28125 177.753906 C 272.28125 178.308594 271.824219 178.765625 271.246094 178.765625 L 269.460938 178.765625 C 269.015625 179.644531 268.316406 180.429688 267.378906 180.925781 C 266.535156 181.359375 265.570312 181.574219 264.519531 181.574219 C 263.691406 181.574219 262.785156 181.441406 261.894531 181.152344 C 260.519531 180.707031 259.171875 179.886719 258.519531 178.742188 L 257.132812 178.742188 L 257.0625 177.703125 L 257.132812 176.679688 L 258.230469 176.679688 C 258.6875 174.679688 260.964844 173.640625 262.339844 173.183594 C 263.847656 172.699219 265.160156 172.582031 266.339844 172.832031 C 267.945312 173.183594 269.257812 174.257812 269.726562 175.65625 C 269.835938 175.992188 269.882812 176.355469 269.894531 176.714844 L 271.246094 176.714844 " fill-opacity="1" fill-rule="nonzero"/><path fill="#000000" d="M 185.375 177.835938 L 192.496094 177.8125 C 192.351562 177.476562 192.132812 177.164062 191.832031 176.957031 C 191.316406 176.59375 190.542969 176.402344 189.484375 176.414062 C 188.289062 176.425781 186.144531 176.886719 185.375 177.835938 Z M 192.566406 179.863281 L 185.734375 179.898438 C 186.445312 180.707031 187.601562 181.441406 188.457031 181.671875 C 189.90625 182.058594 191.519531 181.539062 192.277344 180.453125 C 192.410156 180.285156 192.496094 180.082031 192.566406 179.863281 Z M 195.929688 177.789062 C 196.507812 177.789062 196.964844 178.234375 196.964844 178.8125 C 196.964844 179.382812 196.507812 179.839844 195.929688 179.839844 L 194.699219 179.851562 C 194.582031 180.492188 194.351562 181.105469 193.964844 181.648438 C 192.964844 183.046875 191.253906 183.867188 189.445312 183.867188 C 188.941406 183.867188 188.433594 183.792969 187.929688 183.660156 C 186.480469 183.277344 184.15625 181.792969 183.335938 179.910156 L 179.601562 179.921875 C 179.035156 179.921875 178.578125 179.476562 178.578125 178.910156 C 178.566406 178.34375 179.035156 177.875 179.589844 177.875 L 183.097656 177.863281 C 183.6875 175.378906 187.191406 174.390625 189.457031 174.363281 C 190.929688 174.378906 192.132812 174.65625 193.027344 175.28125 C 193.871094 175.882812 194.410156 176.800781 194.640625 177.800781 L 195.929688 177.789062 " fill-opacity="1" fill-rule="nonzero"/><path fill="#000000" d="M 62.785156 215.398438 C 61.398438 211.25 60.386719 206.980469 59.796875 202.640625 C 59 202.980469 58.242188 203.363281 57.503906 203.785156 C 54.625 205.5 52.238281 207.984375 50.527344 210.949219 C 54.589844 212.46875 58.699219 213.976562 62.785156 215.398438 Z M 61.398438 220.222656 C 61.601562 219.234375 61.988281 218.304688 62.519531 217.496094 C 58.191406 215.988281 53.855469 214.398438 49.566406 212.769531 C 48.480469 215.0625 48.445312 215.953125 48.445312 215.964844 C 48.5625 217.820312 48.515625 219.425781 48.300781 221.054688 C 52.601562 221.066406 56.976562 220.980469 61.289062 220.777344 C 61.3125 220.65625 61.335938 220.535156 61.351562 220.4375 Z M 61.722656 223.308594 C 61.613281 223.152344 61.53125 222.996094 61.457031 222.839844 C 57.375 223.019531 53.253906 223.128906 49.15625 223.128906 C 48.769531 223.128906 48.394531 223.128906 48.023438 223.128906 C 48.070312 223.382812 48.117188 223.804688 48.238281 224.464844 C 48.648438 226.722656 49.433594 228.710938 50.503906 230.207031 C 50.925781 230.785156 51.359375 231.328125 51.792969 231.859375 C 54.867188 228.757812 58.191406 225.890625 61.722656 223.308594 Z M 65.386719 226.492188 C 64.542969 226.140625 63.664062 225.613281 62.988281 224.925781 C 59.496094 227.480469 56.203125 230.328125 53.15625 233.402344 C 54.480469 234.8125 55.867188 236.03125 57.335938 236.984375 C 58.167969 237.539062 59.097656 237.996094 60.058594 238.40625 C 61.578125 234.339844 63.363281 230.339844 65.386719 226.492188 Z M 72.304688 239.320312 C 71.652344 236.679688 70.496094 234.101562 69.386719 231.605469 L 67.363281 227.144531 C 65.316406 230.988281 63.53125 235.015625 62 239.09375 C 65.316406 240.070312 68.976562 240.191406 72.304688 239.320312 Z M 71.558594 201.605469 C 71.230469 201.554688 70.941406 201.53125 70.652344 201.53125 C 70.652344 201.53125 69.988281 201.542969 69.796875 201.542969 C 68.386719 201.542969 67.21875 201.386719 66.351562 201.242188 L 66.171875 201.230469 C 65.976562 201.207031 65.773438 201.15625 65.519531 201.15625 C 64.878906 201.15625 63.472656 201.484375 62.941406 201.617188 C 62.542969 201.699219 62.144531 201.820312 61.773438 201.941406 C 62.351562 206.453125 63.410156 210.902344 64.867188 215.207031 C 65.472656 214.878906 66.183594 214.664062 67.039062 214.785156 C 67.160156 214.796875 67.328125 214.785156 67.519531 214.746094 C 67.738281 214.734375 67.988281 214.710938 68.171875 214.710938 C 68.664062 214.722656 69.050781 214.855469 69.386719 214.976562 L 69.542969 215.035156 C 69.640625 215.0625 69.738281 215.109375 69.820312 215.132812 C 70.847656 210.695312 71.425781 206.160156 71.558594 201.605469 Z M 72.015625 221.199219 C 72.195312 220.644531 72.21875 219.570312 72.097656 219.078125 C 72.085938 219.027344 71.964844 218.640625 71.050781 218.003906 C 70.410156 217.542969 69.640625 217.230469 68.894531 216.988281 L 68.699219 216.90625 C 68.410156 216.808594 68.265625 216.761719 68.121094 216.761719 C 68 216.761719 67.871094 216.785156 67.761719 216.796875 C 67.472656 216.820312 67.132812 216.871094 66.773438 216.820312 C 66.699219 216.808594 66.640625 216.808594 66.578125 216.808594 C 66.109375 216.808594 65.675781 217.039062 65.074219 217.59375 C 64.242188 218.339844 63.664062 219.414062 63.421875 220.621094 L 63.363281 220.847656 C 63.289062 221.234375 63.207031 221.703125 63.289062 221.921875 C 63.363281 222.140625 63.675781 222.535156 63.90625 222.8125 L 64.167969 223.152344 C 64.773438 223.960938 66.144531 224.742188 67.316406 224.960938 C 68.304688 225.152344 69.554688 225.152344 70.183594 224.636719 C 70.617188 224.273438 70.859375 223.683594 70.964844 223.261719 C 71.085938 222.851562 71.265625 222.511719 71.398438 222.308594 L 71.617188 221.933594 C 71.796875 221.667969 71.941406 221.425781 72.015625 221.199219 Z M 81.402344 234.089844 C 81.824219 233.640625 82.199219 233.21875 82.546875 232.796875 C 79.460938 229.855469 76.125 227.117188 72.664062 224.621094 C 72.386719 225.273438 71.992188 225.816406 71.484375 226.226562 C 70.929688 226.695312 70.253906 226.914062 69.582031 227.035156 L 71.253906 230.75 C 72.398438 233.292969 73.558594 235.910156 74.257812 238.683594 C 76.992188 237.65625 79.449219 236.101562 81.402344 234.089844 Z M 82.894531 208.828125 C 82.726562 208.609375 82.558594 208.367188 82.378906 208.152344 C 80.160156 205.5 77.304688 203.449219 74.074219 202.28125 C 73.894531 202.21875 73.75 202.171875 73.582031 202.109375 C 73.4375 206.332031 72.90625 210.539062 72.027344 214.664062 C 75.761719 212.925781 79.402344 210.984375 82.894531 208.828125 Z M 86.535156 223.007812 C 86.535156 222.8125 86.546875 222.632812 86.546875 222.441406 C 82.34375 222.101562 78.050781 222.007812 73.820312 222.1875 C 73.738281 222.378906 73.640625 222.550781 73.558594 222.71875 C 77.160156 225.285156 80.59375 228.121094 83.800781 231.160156 C 84.425781 230.21875 84.859375 229.363281 85.101562 228.53125 C 85.257812 227.925781 85.449219 227.324219 85.632812 226.722656 C 86.101562 225.238281 86.535156 223.777344 86.535156 223.007812 Z M 86.644531 220.089844 C 86.667969 219.378906 86.726562 218.339844 86.65625 217.835938 C 86.28125 215.277344 85.378906 212.769531 84.054688 210.539062 C 80.390625 212.792969 76.546875 214.84375 72.640625 216.652344 C 73.425781 217.265625 73.917969 217.90625 74.085938 218.558594 C 74.195312 218.992188 74.230469 219.558594 74.21875 220.113281 C 78.339844 219.96875 82.511719 220.039062 86.632812 220.378906 C 86.632812 220.367188 86.632812 220.367188 86.632812 220.367188 Z M 88.824219 217.53125 C 88.933594 218.171875 88.886719 219.113281 88.824219 220.1875 L 88.8125 220.464844 C 88.789062 221.320312 88.742188 222.164062 88.742188 223.007812 C 88.742188 224.117188 88.28125 225.601562 87.753906 227.300781 C 87.570312 227.964844 87.378906 228.554688 87.210938 229.132812 C 86.644531 231.109375 85.234375 233.28125 82.980469 235.621094 C 80.460938 238.238281 77.207031 240.191406 73.582031 241.289062 C 71.664062 241.867188 69.640625 242.15625 67.554688 242.15625 C 63.421875 242.15625 59.375 240.972656 56.109375 238.816406 C 53.421875 237.042969 50.925781 234.570312 48.707031 231.484375 C 47.445312 229.722656 46.539062 227.433594 46.070312 224.839844 C 45.769531 223.210938 45.757812 222.65625 45.839844 222.285156 C 46.273438 220.246094 46.40625 218.402344 46.238281 216.085938 C 46.214844 215.578125 46.347656 213.941406 48.445312 210.140625 C 50.324219 206.703125 53.070312 203.847656 56.398438 201.894531 C 58.265625 200.785156 60.3125 199.976562 62.421875 199.46875 C 63.519531 199.203125 64.734375 198.953125 65.566406 198.953125 C 65.953125 198.976562 66.230469 199.011719 66.496094 199.046875 L 66.652344 199.070312 C 67.449219 199.191406 68.542969 199.335938 69.796875 199.335938 C 69.988281 199.335938 70.617188 199.324219 70.617188 199.324219 L 70.640625 199.324219 C 71.871094 199.324219 73.160156 199.601562 74.824219 200.207031 C 78.414062 201.53125 81.617188 203.785156 84.066406 206.765625 C 86.597656 209.78125 88.269531 213.601562 88.824219 217.53125 " fill-opacity="1" fill-rule="nonzero"/></svg>