<svg xmlns="http://www.w3.org/2000/svg" xmlns:xlink="http://www.w3.org/1999/xlink" version="1.1" x="0px" y="0px" viewBox="0 0 100 125" style="enable-background:new 0 0 100 100;" xml:space="preserve"><path d="M73.5083,53.31085c-2.03284,0-3.68658,1.65375-3.68658,3.68634c0,2.03314,1.65375,3.68689,3.68658,3.68689  c2.03259,0,3.68634-1.65375,3.68634-3.68689C77.19464,54.9646,75.54089,53.31085,73.5083,53.31085z M73.5083,59.57251  c-1.4198,0-2.57507-1.15552-2.57507-2.57532c0-1.41986,1.15527-2.57483,2.57507-2.57483c1.41986,0,2.57483,1.15497,2.57483,2.57483  C76.08313,58.41699,74.92816,59.57251,73.5083,59.57251z"/><path d="M28.24286,53.31085c-2.03259,0-3.68634,1.65375-3.68634,3.68634c0,2.03314,1.65375,3.68689,3.68634,3.68689  c2.0329,0,3.68665-1.65375,3.68665-3.68689C31.9295,54.9646,30.27576,53.31085,28.24286,53.31085z M28.24286,59.57251  c-1.4198,0-2.57477-1.15552-2.57477-2.57532c0-1.41986,1.15497-2.57483,2.57477-2.57483c1.41986,0,2.57507,1.15497,2.57507,2.57483  C30.81793,58.41699,29.66272,59.57251,28.24286,59.57251z"/><path d="M84.35754,56.12823l-0.01788-6.58081l-0.24316-4.66925l-0.18884-0.2171  c-0.88904-1.02094-1.87848-1.96259-2.94092-2.79895c-1.21545-0.95685-2.53979-1.78619-3.93628-2.46625l-0.13434-0.05157  c-2.42664-0.69849-4.92377-1.25104-7.4223-1.64178c-4.31409-0.67413-9.31171-0.87061-14.07263-0.55524  c-3.31024,0.21979-5.49701,0.36523-8.51166,1.1908c-0.62854,0.17206-2.29803,0.62848-7.91516,3.09692  c-2.44238,1.07355-4.88422,2.19867-7.25983,3.34546l-6.75098,1.48499c-0.98993,0.22412-2.89148,0.68549-4.50342,1.25751  c-0.50531,0.17969-1.06378,0.39893-1.72296,0.78754c-0.29089,0.17206-0.83282,0.49176-1.41144,1.03284  c-0.66754,0.62476-1.20758,1.37915-1.60516,2.24213l-0.07813,0.16986l0.05725,6.34692l7.06104,1.32794  c0.93573,2.09973,3.03882,3.56927,5.48212,3.56927c2.37177,0,4.42041-1.38617,5.39459-3.38788h34.47607  c0.97424,2.00171,3.02301,3.38788,5.39478,3.38788c2.80896,0,5.16675-1.9422,5.81781-4.55237L84.35754,56.12823z M82.47577,45.81567  l0.12256,2.34186c-0.37939,0.04468-0.76245,0.04303-1.14417-0.02991c-0.44482-0.64154-0.97778-1.12354-1.58673-1.43341  c-0.49231-0.25024-0.90747-0.32727-1.66162-0.46735c-0.203-0.03741-0.43561-0.08032-0.70752-0.13403  c0.33221-0.10529,0.68524-0.24152,1.0451-0.42169c0.39539-0.19812,0.77258-0.4353,1.12512-0.70776L82.47577,45.81567z   M19.58441,49.74664c0.17371-0.10248,0.32977-0.17291,0.49011-0.25092c0.98364-0.46167,2.0257-0.70435,3.09772-0.72119  c0.27167-0.00323,0.54114,0.00598,0.81116,0.03149l-2.52734,1.48657l-3.3689,0.69287  c0.12372-0.14392,0.23969-0.29578,0.37756-0.42474C18.90924,50.14551,19.33203,49.89587,19.58441,49.74664z M28.24286,61.33209  c-2.39026,0-4.3349-1.94464-4.3349-4.3349s1.94464-4.33496,4.3349-4.33496s4.33496,1.9447,4.33496,4.33496  S30.63312,61.33209,28.24286,61.33209z M34.1629,57.94427c0.04938-0.30933,0.08221-0.62408,0.08221-0.94708  c0-3.30969-2.69257-6.00226-6.00226-6.00226s-6.00226,2.69257-6.00226,6.00226c0,0.21802,0.01324,0.43298,0.03601,0.64508  l-4.92206-0.92517l-0.0401-4.43799l4.54596-0.93463l5.06873-2.98187l-1.23938-0.35876  c-0.14551-0.04205-0.2951-0.05878-0.44202-0.09308c0.02478-0.00568,0.05518-0.01282,0.07892-0.01819l6.84161-1.505l0.18372-0.06354  c2.38513-1.15277,4.83887-2.28387,7.29321-3.36285c5.50452-2.41901,7.08771-2.85162,7.68445-3.01495  c2.85297-0.78156,4.97296-0.92212,8.18195-1.13489c4.64105-0.30994,9.50842-0.1178,13.70441,0.53894  c2.40625,0.3761,4.81116,0.90637,7.14905,1.57611c1.26599,0.62201,2.46704,1.3775,3.5705,2.24591  c0.44006,0.34637,0.86523,0.71411,1.27594,1.0976l-1.79156-0.54401l-0.23096,0.19543  c-0.35144,0.29797-0.73621,0.55194-1.14355,0.75604c-0.87164,0.43634-1.70398,0.57257-2.25482,0.66321  c-0.51074,0.08362-1.03882,0.16992-1.05243,0.71588c-0.0141,0.58295,0.49963,0.69366,1.62476,0.93732  c0.71204,0.15417,1.23419,0.25079,1.64044,0.32623c0.71503,0.13239,1.01111,0.18774,1.35986,0.36523  c0.48956,0.24915,0.92126,0.66437,1.28278,1.23474l0.11969,0.1889l0.21704,0.05316c0.39191,0.09662,0.78674,0.14496,1.18079,0.14496  c0.16473,0,0.32855-0.02502,0.49274-0.04205l0.01715,0.32806l0.0141,5.4693l-3.20026,1.47479  c-0.23645-3.09491-2.82452-5.54218-5.97894-5.54218c-3.30969,0-6.0025,2.69257-6.0025,6.00226  c0,0.323,0.03284,0.63776,0.08221,0.94708H34.1629z M73.5083,61.33209c-2.3905,0-4.33521-1.94464-4.33521-4.3349  s1.9447-4.33496,4.33521-4.33496c2.39026,0,4.33496,1.9447,4.33496,4.33496S75.89856,61.33209,73.5083,61.33209z"/><path d="M45.55487,41.33563c-2.99542,0.99377-5.87225,2.35284-8.55072,4.04022l-1.85077,1.16583l18.40082-1.19025  l0.57745-5.83234l-0.68384,0.07813C50.76611,39.90277,48.11041,40.48785,45.55487,41.33563z M52.54089,44.30286l-12.94562,0.83746  c2.01709-1.10504,4.1311-2.02716,6.30969-2.74957c2.26544-0.75171,4.61145-1.29065,6.98438-1.60492L52.54089,44.30286z"/><path d="M66.07538,39.67377l-0.26703-0.03204c-1.50122-0.17853-3.0307-0.29199-4.54663-0.33759  c-1.46704-0.04181-2.9566-0.02332-4.42444,0.05914l-0.50531,0.02826l-0.21545,5.78674l11.33447-0.72998l0.20679-2.20081  L66.07538,39.67377z M66.43304,43.39972l-9.15997,0.58997l0.1319-3.54248c1.27222-0.05865,2.5553-0.07007,3.82367-0.03149  c1.39349,0.04126,2.79895,0.14221,4.18188,0.29901l1.10583,1.79871L66.43304,43.39972z"/><path d="M72.96771,44.07489l0.13165-0.02661c0.38129-0.12537,0.74597-0.29901,1.08356-0.51556  c0.32025-0.2052,0.61523-0.4483,0.87738-0.72296l0.55249-0.57855l-0.73486-0.31592  c-1.07086-0.46021-2.18048-0.85211-3.29852-1.16473c-0.88934-0.24854-1.80194-0.45264-2.7124-0.60571l-1.17883-0.19806  l2.56311,4.3371L72.96771,44.07489z M71.28003,41.82086c0.77863,0.2182,1.55334,0.47601,2.31238,0.77014  c-0.00299,0.0022-0.00623,0.00385-0.00922,0.00598c-0.24097,0.15417-0.49988,0.28064-0.77045,0.37506l-1.95685,0.15033  l-0.97479-1.64941C70.35144,41.57556,70.81897,41.69226,71.28003,41.82086z"/><rect x="35.77216" y="48.21771" width="0.55579" height="7.53986"/><rect x="54.66846" y="47.35742" width="0.55579" height="8.40015"/><rect x="70.09119" y="47.09314" width="0.55573" height="2.59705"/><text x="0" y="115" fill="#000000" font-size="5px" font-weight="bold" font-family="'Helvetica Neue', Helvetica, Arial-Unicode, Arial, Sans-serif">Created by Marvdrock</text><text x="0" y="120" fill="#000000" font-size="5px" font-weight="bold" font-family="'Helvetica Neue', Helvetica, Arial-Unicode, Arial, Sans-serif">from the Noun Project</text></svg>