<svg xmlns="http://www.w3.org/2000/svg" xmlns:xlink="http://www.w3.org/1999/xlink" width="500" zoomAndPan="magnify" viewBox="0 0 375 374.999991" height="500" preserveAspectRatio="xMidYMid meet" version="1.0"><defs><clipPath id="c1b48c4523"><path d="M 1 106.523438 L 374.3125 106.523438 L 374.3125 268.523438 L 1 268.523438 Z M 1 106.523438 " clip-rule="nonzero"/></clipPath></defs><path fill="#000000" d="M 321.328125 168.855469 C 321.570312 167.761719 321.484375 166.449219 321.097656 164.882812 C 320.769531 163.535156 320.34375 162.683594 319.722656 162.136719 C 319.09375 161.589844 318.300781 161.410156 317.390625 161.410156 C 316.773438 161.410156 316.078125 161.492188 315.363281 161.601562 C 313.261719 161.929688 311.707031 162.269531 310.882812 163.800781 C 309.496094 166.363281 309.703125 169.402344 311.402344 171.332031 C 312.800781 172.910156 315.121094 173.640625 317.148438 173.140625 C 319.164062 172.632812 320.878906 170.871094 321.328125 168.855469 Z M 323.304688 164.347656 C 323.78125 166.253906 323.867188 167.882812 323.550781 169.339844 C 322.917969 172.230469 320.574219 174.636719 317.695312 175.351562 C 317.101562 175.511719 316.480469 175.570312 315.859375 175.570312 C 313.554688 175.570312 311.222656 174.574219 309.691406 172.851562 C 307.359375 170.191406 307.03125 166.121094 308.878906 162.707031 C 310.324219 160.070312 313.03125 159.648438 315.023438 159.355469 C 315.714844 159.257812 316.527344 159.125 317.390625 159.125 C 318.667969 159.125 320.050781 159.402344 321.21875 160.425781 C 322.515625 161.542969 323.039062 163.183594 323.304688 164.347656 " fill-opacity="1" fill-rule="nonzero"/><path fill="#000000" d="M 292.734375 246.699219 C 296.210938 244.027344 299.804688 241.4375 303.421875 238.9375 C 299.183594 240.140625 294.957031 241.488281 290.816406 242.957031 C 291.339844 244.246094 291.96875 245.496094 292.734375 246.699219 Z M 305.171875 231.003906 C 302.320312 227.375 299.085938 224.046875 295.492188 221.09375 C 294.765625 221.785156 294.070312 222.539062 293.453125 223.339844 C 293.425781 223.378906 293.390625 223.425781 293.355469 223.476562 C 297.679688 225.273438 301.722656 227.824219 305.171875 231.003906 Z M 300.082031 237.550781 C 298.261719 237.636719 296.453125 237.699219 294.640625 237.699219 C 292.820312 237.699219 290.972656 237.636719 289.152344 237.539062 C 289.40625 238.632812 289.699219 239.726562 290.050781 240.796875 C 293.34375 239.628906 296.707031 238.558594 300.082031 237.550781 Z M 303.277344 225.25 C 302.332031 222.625 301.710938 219.890625 301.394531 217.132812 C 299.9375 217.789062 298.527344 218.605469 297.242188 219.589844 C 299.367188 221.347656 301.382812 223.246094 303.277344 225.25 Z M 304.976562 234.941406 C 305.039062 234.710938 305.136719 234.480469 305.234375 234.261719 C 301.542969 230.421875 297 227.386719 292.066406 225.417969 C 291.484375 226.378906 290.988281 227.386719 290.585938 228.429688 C 293.863281 229.097656 297.109375 230.035156 300.242188 231.199219 C 300.824219 231.417969 301.128906 232.085938 300.910156 232.667969 C 300.726562 233.132812 300.300781 233.410156 299.828125 233.410156 C 299.707031 233.410156 299.574219 233.386719 299.441406 233.335938 C 296.34375 232.183594 293.125 231.273438 289.882812 230.617188 C 289.625 231.625 289.433594 232.644531 289.324219 233.652344 C 289.296875 234.03125 289.226562 234.417969 289.175781 234.796875 C 289.152344 234.953125 289.128906 235.097656 289.117188 235.246094 C 294.289062 235.523438 299.523438 235.425781 304.675781 234.90625 C 304.773438 234.90625 304.882812 234.929688 304.976562 234.941406 Z M 307.164062 239.15625 C 307.140625 239.15625 307.128906 239.132812 307.117188 239.132812 C 307.09375 239.15625 307.09375 239.167969 307.078125 239.179688 C 302.660156 242.15625 298.296875 245.300781 294.070312 248.542969 C 294.582031 249.164062 295.117188 249.757812 295.734375 250.328125 C 296.304688 250.828125 296.902344 251.300781 297.484375 251.726562 L 304.285156 242.023438 C 304.652344 241.511719 305.355469 241.390625 305.878906 241.742188 C 306.398438 242.105469 306.507812 242.824219 306.144531 243.347656 L 299.429688 252.941406 C 300.339844 253.425781 301.25 253.816406 302.183594 254.09375 C 302.660156 254.230469 303.144531 254.363281 303.628906 254.449219 L 304.664062 250.804688 C 305.71875 247.003906 306.789062 243.101562 307.164062 239.15625 Z M 308.28125 255.175781 C 308.414062 252.066406 308.414062 248.945312 308.332031 245.824219 C 307.882812 247.695312 307.371094 249.578125 306.859375 251.398438 L 305.902344 254.859375 C 306.703125 254.980469 307.480469 255.078125 308.28125 255.175781 Z M 310.09375 236.921875 C 310.796875 236.507812 311.269531 235.707031 311.257812 234.953125 C 311.257812 234.359375 310.820312 233.519531 310.457031 233.421875 C 310.40625 233.410156 310.359375 233.410156 310.296875 233.410156 C 309.8125 233.410156 308.804688 233.738281 308.125 234.210938 C 307.515625 234.613281 307.140625 235.230469 307.164062 235.792969 C 307.175781 236.324219 307.601562 236.894531 308.148438 237.128906 C 308.742188 237.359375 309.472656 237.285156 310.09375 236.921875 Z M 313.417969 216.066406 C 313.226562 215.980469 313.03125 215.894531 312.835938 215.847656 C 311.792969 215.605469 310.652344 215.484375 309.449219 215.484375 C 309.8125 219.101562 309.945312 222.769531 309.789062 226.390625 C 309.777344 227.007812 309.265625 227.484375 308.648438 227.484375 C 308.632812 227.484375 308.609375 227.484375 308.597656 227.484375 C 307.976562 227.472656 307.480469 226.925781 307.503906 226.292969 C 307.664062 222.734375 307.542969 219.125 307.164062 215.578125 C 306.765625 215.605469 306.363281 215.675781 305.960938 215.738281 C 305.171875 215.871094 304.382812 216.078125 303.605469 216.308594 C 304.089844 221.566406 305.816406 226.679688 308.660156 231.128906 C 308.707031 231.222656 308.730469 231.308594 308.753906 231.394531 C 309.070312 231.308594 309.398438 231.222656 309.714844 231.175781 C 311.511719 226.292969 312.75 221.214844 313.417969 216.066406 Z M 313.992188 254.628906 L 312.921875 251.871094 C 312.121094 249.867188 311.304688 247.816406 310.613281 245.703125 C 310.699219 248.910156 310.699219 252.101562 310.566406 255.285156 C 311.074219 255.226562 311.597656 255.089844 312.132812 254.957031 L 312.886719 254.777344 C 313.261719 254.703125 313.636719 254.667969 313.992188 254.628906 Z M 314.171875 225.710938 L 318.21875 217.742188 C 317.585938 217.511719 316.980469 217.367188 316.175781 217.242188 C 315.96875 217.183594 315.789062 217.109375 315.582031 217.050781 C 315.109375 220.460938 314.390625 223.851562 313.417969 227.15625 C 313.6875 226.667969 313.929688 226.195312 314.171875 225.710938 Z M 322.882812 250.304688 C 323.683594 249.578125 324.398438 248.789062 325.078125 247.949219 C 323.113281 246.019531 321.097656 244.015625 318.910156 242.335938 C 316.457031 240.441406 314.125 239.203125 311.753906 238.511719 C 311.753906 238.511719 311.753906 238.5 311.742188 238.5 C 311.585938 238.632812 311.441406 238.777344 311.257812 238.886719 L 311.234375 238.886719 C 311.902344 243.066406 313.492188 247.125 315.035156 251.046875 L 316.3125 254.300781 C 317.429688 253.816406 318.691406 253.195312 319.953125 252.445312 L 313.214844 242.460938 C 312.847656 241.925781 313.007812 241.21875 313.527344 240.867188 C 314.050781 240.515625 314.742188 240.648438 315.109375 241.171875 L 321.847656 251.15625 C 322.203125 250.875 322.566406 250.621094 322.882812 250.304688 Z M 324.875 223.050781 C 324.753906 222.878906 324.628906 222.722656 324.496094 222.574219 C 323.257812 221.105469 321.8125 219.867188 320.222656 218.835938 L 316.214844 226.753906 C 315.640625 227.859375 315.058594 229 314.414062 230.105469 C 317.671875 227.433594 321.179688 225.054688 324.875 223.050781 Z M 327.300781 244.453125 C 327.679688 243.699219 327.996094 242.933594 328.273438 242.15625 C 325.175781 241.171875 322.019531 240.308594 318.859375 239.496094 C 319.347656 239.824219 319.820312 240.140625 320.304688 240.515625 C 322.492188 242.214844 324.484375 244.160156 326.414062 246.066406 C 326.71875 245.542969 327.035156 245.011719 327.300781 244.453125 Z M 329.378906 235.425781 C 329.367188 233.910156 329.148438 232.414062 328.796875 230.933594 C 325.152344 231.625 321.59375 232.753906 318.21875 234.273438 C 318.070312 234.332031 317.914062 234.371094 317.742188 234.371094 C 317.320312 234.371094 316.90625 234.128906 316.699219 233.703125 C 316.445312 233.132812 316.699219 232.464844 317.269531 232.195312 C 320.757812 230.628906 324.386719 229.476562 328.128906 228.722656 C 327.617188 227.398438 326.960938 226.109375 326.199219 224.910156 C 321.582031 227.398438 317.292969 230.460938 313.40625 233.992188 C 313.46875 234.238281 313.503906 234.480469 313.527344 234.710938 C 318.765625 235.695312 324.097656 235.925781 329.378906 235.425781 Z M 328.894531 239.945312 C 329.074219 239.214844 329.183594 238.488281 329.269531 237.710938 C 327.484375 237.878906 325.710938 237.953125 323.925781 237.953125 C 323.257812 237.953125 322.589844 237.941406 321.910156 237.929688 C 324.253906 238.558594 326.585938 239.226562 328.894531 239.945312 Z M 326.246094 221.09375 C 329.742188 225.164062 331.664062 230.289062 331.6875 235.523438 C 331.6875 238.984375 330.898438 242.335938 329.34375 245.460938 C 328.128906 247.925781 326.476562 250.136719 324.4375 251.992188 C 322.1875 254.058594 319.394531 255.429688 317.210938 256.414062 C 316.3125 256.804688 315.4375 256.851562 314.671875 256.890625 C 314.210938 256.902344 313.785156 256.914062 313.371094 257.011719 L 312.679688 257.179688 C 311.792969 257.386719 310.882812 257.617188 309.886719 257.617188 C 309.617188 257.617188 309.363281 257.605469 309.082031 257.570312 L 308.28125 257.472656 C 306.046875 257.203125 303.726562 256.914062 301.542969 256.28125 C 298.964844 255.527344 296.425781 254.058594 294.191406 252.007812 C 289.699219 247.875 288.011719 242.691406 286.84375 237.710938 C 286.589844 236.605469 286.773438 235.464844 286.917969 234.453125 C 286.976562 234.101562 287.027344 233.761719 287.0625 233.433594 C 287.183594 232.039062 287.464844 230.652344 287.863281 229.292969 C 288.65625 226.632812 289.929688 224.15625 291.640625 221.933594 C 295.089844 217.488281 300.15625 214.402344 305.597656 213.492188 C 306.046875 213.40625 306.507812 213.34375 306.957031 213.285156 C 309.21875 213.066406 311.441406 213.175781 313.371094 213.636719 C 314.074219 213.792969 314.683594 214.121094 315.207031 214.402344 C 315.714844 214.679688 316.152344 214.910156 316.601562 214.984375 C 317.914062 215.226562 318.957031 215.457031 320.257812 216.175781 C 322.515625 217.4375 324.535156 219.101562 326.246094 221.09375 " fill-opacity="1" fill-rule="nonzero"/><path fill="#000000" d="M 295.492188 168.488281 C 294.738281 168.113281 293.878906 167.882812 293.476562 167.785156 C 289.796875 166.863281 285.703125 166.765625 281.644531 167.53125 C 280.40625 167.761719 278.816406 168.125 277.503906 168.914062 C 276.339844 169.617188 275.523438 170.589844 275.183594 171.636719 C 281.851562 170.105469 288.65625 169.046875 295.492188 168.488281 Z M 294.667969 171.964844 C 295.1875 171.636719 295.917969 171.1875 296.378906 170.710938 C 289.296875 171.234375 282.21875 172.339844 275.292969 173.957031 C 275.476562 174.367188 275.707031 174.71875 276.046875 174.953125 C 276.789062 175.484375 277.867188 175.582031 278.851562 175.632812 C 280.882812 175.753906 282.847656 175.667969 284.742188 175.425781 C 288.4375 174.953125 291.679688 173.859375 294.386719 172.144531 Z M 299.003906 169.167969 C 299.621094 171.574219 297.179688 173.09375 295.867188 173.90625 L 295.589844 174.066406 C 292.601562 175.960938 289.054688 177.1875 285.035156 177.683594 C 283.613281 177.867188 282.144531 177.964844 280.648438 177.964844 C 280.007812 177.964844 279.375 177.953125 278.742188 177.914062 C 277.335938 177.855469 275.902344 177.660156 274.710938 176.808594 C 273.09375 175.65625 272.34375 173.382812 272.875 171.308594 C 273.328125 169.570312 274.539062 168.027344 276.328125 166.960938 C 277.953125 165.976562 279.800781 165.550781 281.222656 165.269531 C 285.617188 164.457031 290.050781 164.554688 294.046875 165.574219 C 295.214844 165.867188 298.347656 166.65625 299.003906 169.167969 " fill-opacity="1" fill-rule="nonzero"/><g clip-path="url(#c1b48c4523)"><path fill="#000000" d="M 7.839844 235.367188 C 10.429688 235.546875 13.003906 235.609375 15.589844 235.597656 C 15.203125 235.160156 14.921875 234.660156 14.765625 234.164062 C 14.546875 233.421875 14.59375 232.71875 14.628906 232.097656 L 14.628906 231.90625 C 14.703125 230.75 14.640625 229.558594 14.484375 228.394531 C 14.425781 227.96875 14.339844 227.554688 14.253906 227.105469 C 14.023438 225.820312 13.816406 224.519531 13.925781 223.160156 L 6.894531 223.171875 C 6.964844 223.328125 7.027344 223.476562 7.050781 223.621094 C 7.648438 227.652344 7.925781 231.671875 7.839844 235.367188 Z M 19.988281 220.949219 C 19.949219 220.914062 19.902344 220.875 19.867188 220.839844 C 18.90625 220 17.996094 219.210938 16.9375 218.824219 C 15.796875 218.410156 14.449219 218.484375 13.148438 218.542969 L 6.175781 218.871094 L 6.03125 220.886719 L 16.71875 220.875 C 17.800781 220.875 18.894531 220.886719 19.988281 220.949219 Z M 19.890625 235.195312 C 20.800781 230.726562 21.335938 226.914062 21.601562 223.339844 C 20 223.160156 18.335938 223.148438 16.71875 223.160156 L 16.234375 223.160156 C 16.101562 224.277344 16.28125 225.46875 16.511719 226.707031 C 16.585938 227.15625 16.671875 227.617188 16.730469 228.066406 C 16.9375 229.378906 17 230.714844 16.914062 232.039062 L 16.914062 232.230469 C 16.878906 232.707031 16.851562 233.167969 16.949219 233.507812 C 17.082031 233.910156 17.398438 234.261719 17.667969 234.46875 C 18.066406 234.796875 18.589844 235.050781 19.089844 235.328125 C 19.210938 235.378906 19.292969 235.476562 19.390625 235.558594 C 19.390625 235.558594 19.414062 235.558594 19.429688 235.558594 C 19.511719 235.558594 19.792969 235.558594 19.851562 235.523438 C 19.816406 235.523438 19.867188 235.28125 19.890625 235.195312 Z M 23.835938 198.550781 C 23.835938 198.527344 23.835938 198.492188 23.835938 198.464844 C 23.425781 198.441406 23.023438 198.394531 22.597656 198.332031 C 21.421875 198.101562 20.425781 197.617188 19.71875 196.863281 C 18.964844 196.074219 18.527344 195.015625 18.480469 193.863281 C 18.46875 193.414062 18.515625 192.976562 18.589844 192.515625 C 18.1875 192.636719 17.800781 192.769531 17.386719 192.878906 C 16.292969 194.398438 15.296875 195.964844 14.472656 197.566406 C 14.375 197.773438 14.277344 197.96875 14.179688 198.164062 C 13.78125 199 13.332031 199.949219 12.40625 200.847656 C 11.984375 201.257812 11.570312 201.746094 11.121094 202.28125 C 14.058594 201.089844 17.132812 200.289062 20.132812 199.523438 Z M 37.125 188.457031 C 36.820312 188.507812 36.53125 188.566406 36.214844 188.617188 C 36.214844 188.640625 36.214844 188.652344 36.203125 188.6875 L 32.972656 193.546875 C 32.726562 193.921875 32.460938 194.3125 32.398438 194.652344 C 32.316406 195.113281 32.546875 195.671875 32.835938 196.253906 L 34.308594 195.878906 C 34.9375 195.707031 35.617188 195.539062 36.261719 195.355469 C 36.054688 193.035156 36.359375 190.65625 37.125 188.457031 Z M 39.457031 242.070312 L 40.015625 242.058594 C 39.734375 241.027344 39.480469 239.980469 39.25 238.949219 C 39.007812 237.953125 39.007812 236.980469 39.066406 236.035156 C 33.445312 235.707031 27.746094 235.597656 22.101562 235.730469 C 22.027344 236.117188 21.882812 236.789062 21.335938 237.261719 C 20.714844 237.796875 19.9375 237.832031 19.511719 237.84375 C 18.152344 237.890625 16.78125 237.929688 15.433594 237.929688 C 12.855469 237.929688 10.292969 237.832031 7.742188 237.648438 C 7.730469 237.941406 7.730469 238.234375 7.707031 238.511719 C 8.507812 239.214844 9.808594 240.347656 10.453125 240.46875 C 20.242188 242.59375 29.582031 242.335938 39.457031 242.070312 Z M 44.605469 192.355469 C 47.339844 190.886719 49.476562 188.945312 50.800781 186.757812 C 47.085938 187.085938 43.378906 187.535156 39.710938 188.070312 C 38.777344 190.132812 38.386719 192.453125 38.496094 194.726562 C 39.980469 194.289062 41.4375 193.777344 42.84375 193.160156 C 42.871094 193.121094 42.90625 193.097656 42.941406 193.0625 C 43.113281 192.925781 43.292969 192.878906 43.488281 192.867188 C 43.867188 192.683594 44.242188 192.539062 44.605469 192.355469 Z M 47.316406 201.054688 L 43.28125 195.476562 C 40.539062 196.621094 37.671875 197.359375 34.867188 198.089844 L 20.703125 201.722656 C 16.511719 202.800781 12.1875 203.917969 8.449219 206.105469 C 7.925781 207.003906 7.550781 207.855469 7.292969 208.691406 C 6.796875 210.308594 6.675781 212.167969 6.542969 213.941406 L 6.347656 216.5625 L 13.027344 216.261719 C 14.484375 216.199219 16.136719 216.113281 17.703125 216.683594 C 19.171875 217.207031 20.277344 218.167969 21.371094 219.113281 C 22.074219 219.722656 22.71875 220.292969 23.449219 220.71875 C 23.800781 220.925781 24.019531 221.335938 23.996094 221.761719 C 23.835938 225.308594 23.339844 229.097656 22.550781 233.433594 C 25.660156 233.375 28.78125 233.375 31.914062 233.460938 C 31.148438 221.167969 37.210938 208.511719 47.316406 201.054688 Z M 52.9375 208.839844 L 48.652344 202.898438 C 39.105469 209.945312 33.394531 221.933594 34.199219 233.519531 C 35.921875 233.59375 37.636719 233.664062 39.347656 233.761719 C 39.40625 233.324219 39.492188 232.886719 39.53125 232.464844 C 39.734375 230.375 40.148438 228.285156 40.757812 226.246094 C 41.921875 222.285156 43.839844 218.582031 46.390625 215.265625 C 48.273438 212.824219 50.484375 210.660156 52.9375 208.839844 Z M 79.417969 169.679688 C 80.402344 168.101562 80.621094 166.195312 80.085938 164.652344 C 75.226562 165.585938 70.296875 166.59375 65.449219 167.6875 C 55.308594 169.972656 44.605469 172.777344 35.195312 177.804688 C 32.15625 179.421875 29.316406 181.265625 26.738281 183.257812 C 24.105469 185.3125 21.761719 187.511719 19.742188 189.867188 C 23.933594 188.738281 28.183594 187.777344 32.496094 186.964844 C 32.507812 186.941406 32.507812 186.914062 32.546875 186.878906 C 36.1875 182.652344 41.679688 180.988281 46.988281 179.652344 C 53.679688 177.964844 60.492188 176.507812 67.28125 175.304688 L 67.707031 175.230469 C 69.90625 174.855469 72.179688 174.441406 74.230469 173.640625 C 75.882812 173.007812 78.117188 171.804688 79.417969 169.679688 Z M 98.414062 248.265625 C 100.40625 244.292969 101.386719 240.019531 101.375 235.597656 C 101.363281 229.011719 98.839844 222.308594 94.441406 217.171875 C 92.253906 214.632812 89.691406 212.519531 86.824219 210.929688 C 85.453125 210.164062 84.359375 209.917969 82.734375 209.617188 C 81.445312 209.386719 80.414062 208.839844 79.515625 208.351562 C 78.859375 208.023438 78.324219 207.734375 77.800781 207.601562 C 76.257812 207.234375 74.523438 207.042969 72.710938 207.042969 C 71.765625 207.042969 70.804688 207.089844 69.820312 207.210938 C 69.238281 207.246094 68.65625 207.332031 68.085938 207.429688 C 61.160156 208.609375 54.664062 212.554688 50.265625 218.253906 C 48.082031 221.09375 46.441406 224.253906 45.433594 227.652344 C 44.933594 229.378906 44.570312 231.152344 44.414062 232.9375 C 44.363281 233.484375 44.253906 234.054688 44.179688 234.648438 C 44 235.804688 43.816406 236.992188 44.011719 237.84375 C 45.566406 244.488281 47.789062 251.351562 53.523438 256.621094 C 56.328125 259.195312 59.460938 261.042969 62.632812 261.976562 C 65.496094 262.804688 68.714844 263.191406 71.8125 263.570312 L 72.992188 263.703125 C 74.195312 263.847656 75.382812 263.558594 76.769531 263.230469 C 77.132812 263.132812 77.496094 263.046875 77.863281 262.972656 C 78.796875 262.753906 79.683594 262.707031 80.449219 262.671875 C 81.359375 262.621094 82.101562 262.597656 82.71875 262.332031 C 85.597656 261.042969 89.304688 259.234375 92.144531 256.621094 C 94.746094 254.230469 96.859375 251.421875 98.414062 248.265625 Z M 112.148438 228.855469 C 112.222656 225.042969 112.199219 221.167969 111.6875 217.390625 C 111.445312 215.507812 111.082031 213.601562 110.730469 211.753906 C 110.351562 209.785156 109.976562 207.746094 109.722656 205.707031 C 109.695312 205.621094 109.695312 205.535156 109.695312 205.460938 C 106.84375 205.984375 104.023438 206.566406 101.230469 207.273438 C 106.515625 213.066406 110.351562 220.304688 111.980469 228.089844 C 112.027344 228.34375 112.101562 228.589844 112.148438 228.855469 Z M 114.542969 174.378906 C 114.300781 174.34375 114.058594 174.296875 113.8125 174.257812 C 112.683594 174.113281 111.53125 174.015625 110.390625 173.917969 C 109.113281 173.808594 107.839844 173.699219 106.5625 173.53125 C 101.621094 172.898438 96.808594 171.40625 92.183594 169.984375 C 91.757812 169.863281 91.441406 169.496094 91.378906 169.058594 C 91.308594 168.636719 91.5 168.199219 91.867188 167.957031 C 94.367188 166.292969 96.859375 164.699219 99.371094 163.15625 L 96.796875 159.28125 C 91.5 161.601562 86.742188 163.21875 82.320312 164.203125 C 82.976562 166.316406 82.648438 168.78125 81.359375 170.871094 C 80.074219 172.972656 77.886719 174.671875 75.070312 175.765625 C 72.796875 176.664062 70.417969 177.089844 68.097656 177.476562 L 67.671875 177.5625 C 60.953125 178.730469 54.175781 180.1875 47.558594 181.863281 C 43.671875 182.835938 39.710938 184 36.625 186.234375 C 41.910156 185.371094 47.242188 184.714844 52.621094 184.316406 C 53.023438 184.292969 53.398438 184.460938 53.644531 184.789062 C 53.875 185.09375 53.921875 185.507812 53.789062 185.882812 C 52.464844 189.257812 49.597656 192.273438 45.675781 194.359375 C 45.578125 194.410156 45.480469 194.445312 45.40625 194.496094 L 49.183594 199.753906 C 49.234375 199.71875 49.269531 199.679688 49.320312 199.667969 C 60.503906 192.515625 75.699219 191.640625 88.015625 197.421875 C 92.207031 199.378906 96.054688 202.109375 99.410156 205.390625 C 99.46875 205.363281 99.519531 205.316406 99.601562 205.292969 C 102.859375 204.464844 106.175781 203.761719 109.503906 203.179688 C 108.847656 194.3125 110.546875 184.644531 114.542969 174.378906 Z M 127.1875 162.964844 C 128.921875 158.566406 130.320312 154.035156 131.375 149.445312 C 119.085938 154.414062 106.9375 160.789062 95.15625 168.527344 C 98.984375 169.667969 102.90625 170.761719 106.855469 171.257812 C 108.105469 171.429688 109.34375 171.539062 110.582031 171.648438 C 111.75 171.757812 112.925781 171.855469 114.105469 172 C 117.058594 172.351562 119.984375 173.007812 122.828125 173.699219 C 122.425781 173.070312 122.132812 172.375 122.035156 171.5625 C 121.941406 170.808594 122.011719 170.007812 122.28125 169.109375 C 122.960938 166.726562 124.722656 164.542969 127.1875 162.976562 Z M 135.082031 181.839844 C 135.421875 181.460938 135.53125 180.769531 135.421875 179.761719 L 135.359375 179.214844 C 135.261719 178.535156 135.179688 177.804688 135.25 177.050781 L 131.777344 177.027344 C 130.027344 177.027344 128.050781 177.003906 126.214844 176.300781 C 125.363281 177.660156 124.671875 179.09375 124.199219 180.625 C 124.148438 180.792969 124.136719 180.890625 124.125 180.953125 C 124.148438 180.953125 124.246094 181.035156 124.515625 181.144531 C 127.089844 182.410156 130.1875 182.519531 132.605469 182.507812 C 133.5625 182.492188 134.609375 182.410156 135.082031 181.839844 Z M 136.320312 159.902344 L 139.574219 146.347656 C 137.71875 147.015625 135.835938 147.707031 133.964844 148.4375 C 132.992188 152.871094 131.730469 157.265625 130.164062 161.554688 C 131.160156 161.175781 132.25 160.835938 133.515625 160.546875 C 133.746094 160.496094 133.988281 160.414062 134.253906 160.328125 C 134.875 160.15625 135.589844 159.949219 136.320312 159.902344 Z M 139.503906 173.808594 C 139.914062 172.242188 140.011719 170.542969 139.816406 168.867188 C 139.625 167.394531 139.210938 165.976562 138.578125 164.640625 L 138.480469 164.445312 C 138.117188 163.679688 137.523438 162.390625 136.867188 162.210938 C 136.769531 162.171875 136.671875 162.171875 136.550781 162.171875 C 136.101562 162.171875 135.445312 162.367188 134.921875 162.511719 C 134.609375 162.609375 134.304688 162.707031 134.023438 162.78125 C 132.09375 163.21875 130.597656 163.742188 129.3125 164.394531 C 126.847656 165.660156 125.085938 167.628906 124.464844 169.742188 C 124.296875 170.335938 124.246094 170.832031 124.296875 171.28125 C 124.476562 172.714844 125.839844 173.722656 126.945312 174.148438 C 128.425781 174.71875 130.136719 174.734375 131.789062 174.734375 L 137.59375 174.78125 C 138.070312 174.78125 138.96875 174.78125 139.246094 174.464844 C 139.355469 174.332031 139.441406 174.050781 139.503906 173.808594 Z M 141.738281 166.8125 L 147.289062 143.785156 C 146.4375 144.0625 145.613281 144.332031 144.761719 144.597656 C 143.898438 144.878906 143.011719 145.191406 142.136719 145.484375 L 138.507812 160.546875 C 139.503906 161.300781 140.109375 162.550781 140.535156 163.460938 L 140.632812 163.65625 C 141.117188 164.675781 141.480469 165.730469 141.738281 166.8125 Z M 204.980469 181.65625 C 198.335938 181.496094 191.71875 182.226562 185.269531 183.828125 C 185.316406 183.902344 185.367188 183.988281 185.414062 184.046875 C 186.035156 184.742188 187.296875 184.800781 188.449219 184.753906 C 191.121094 184.667969 194.039062 184.351562 197.339844 183.78125 C 199.855469 183.332031 202.515625 182.75 204.980469 181.65625 Z M 185.753906 181.363281 C 192.105469 179.871094 198.605469 179.214844 205.125 179.371094 C 203.5 177.746094 200.644531 177.148438 198.007812 177.148438 C 197.378906 177.148438 196.769531 177.1875 196.199219 177.246094 C 193.902344 177.476562 191.585938 178.144531 189.363281 178.789062 C 188.5 179.03125 187.589844 179.289062 186.96875 179.808594 C 186.496094 180.1875 186.117188 180.769531 185.753906 181.363281 Z M 208.515625 216.222656 C 207.847656 209.957031 208.648438 203.675781 209.695312 197.53125 C 199.578125 198.101562 189.53125 198.78125 179.644531 199.449219 L 142.285156 202.011719 C 132.261719 202.71875 122.011719 203.433594 111.957031 205.085938 C 111.96875 205.195312 111.96875 205.316406 111.980469 205.425781 C 112.222656 207.40625 112.597656 209.386719 112.976562 211.316406 C 113.339844 213.210938 113.714844 215.15625 113.960938 217.097656 C 114.566406 221.726562 114.519531 226.390625 114.386719 230.957031 C 139.199219 224.300781 164.667969 219.808594 190.101562 217.558594 C 196.25 217.023438 202.40625 216.601562 208.515625 216.222656 Z M 209.367188 227.75 C 209.316406 226.914062 209.269531 226.0625 209.21875 225.210938 C 209.109375 223.050781 208.964844 220.789062 208.734375 218.496094 C 202.613281 218.871094 196.441406 219.296875 190.296875 219.832031 C 167.160156 221.871094 143.972656 225.792969 121.296875 231.503906 C 125.863281 231.5625 130.453125 231.5625 134.984375 231.527344 C 140.691406 231.480469 146.488281 231.34375 152.21875 231.152344 C 153.738281 231.101562 155.253906 231.054688 156.785156 231.03125 C 160.585938 230.933594 164.523438 230.8125 168.3125 230.519531 C 169.683594 230.421875 171.046875 230.242188 172.417969 230.082031 C 173.816406 229.898438 175.199219 229.742188 176.585938 229.621094 C 179.328125 229.414062 182.050781 229.246094 184.78125 229.097656 L 207.226562 227.824219 C 207.59375 227.800781 207.96875 227.800781 208.332031 227.800781 C 208.6875 227.773438 209.027344 227.761719 209.367188 227.75 Z M 124.464844 237.40625 L 210.445312 237.042969 C 209.984375 234.625 209.707031 232.316406 209.535156 230.035156 C 209.136719 230.046875 208.769531 230.058594 208.371094 230.082031 C 208.03125 230.082031 207.691406 230.082031 207.363281 230.09375 L 184.917969 231.371094 C 182.207031 231.527344 179.5 231.671875 176.765625 231.890625 C 175.417969 232 174.058594 232.171875 172.710938 232.339844 C 171.300781 232.511719 169.902344 232.695312 168.484375 232.804688 C 164.644531 233.09375 160.683594 233.214844 156.847656 233.3125 C 155.316406 233.335938 153.796875 233.386719 152.292969 233.433594 C 146.558594 233.640625 140.730469 233.761719 135.007812 233.8125 C 133.089844 233.835938 131.171875 233.835938 129.238281 233.835938 C 124.234375 233.835938 119.207031 233.761719 114.214844 233.664062 C 114.140625 233.835938 114.007812 233.980469 113.875 234.089844 C 114.347656 234.953125 114.957031 235.792969 115.769531 236.59375 C 117.152344 237.917969 119.851562 237.699219 122.230469 237.539062 C 123.03125 237.46875 123.773438 237.417969 124.464844 237.40625 Z M 210.3125 193.863281 C 210.773438 191.277344 211.222656 188.675781 211.589844 186.039062 C 199.453125 186.84375 187.867188 187.632812 177.167969 188.699219 C 170.390625 189.367188 163.964844 190.207031 157.976562 191.105469 C 152 192.054688 146.460938 193.074219 141.433594 194.214844 C 131.375 196.425781 123.433594 199 118.015625 200.957031 C 116.402344 201.492188 115.066406 202.011719 113.910156 202.460938 C 123.324219 201.054688 132.824219 200.386719 142.113281 199.753906 L 179.476562 197.191406 C 189.566406 196.484375 199.792969 195.78125 210.082031 195.210938 C 210.15625 194.761719 210.226562 194.3125 210.3125 193.863281 Z M 211.03125 130.59375 C 209.027344 130.617188 207.035156 130.65625 205.042969 130.703125 C 204.09375 130.714844 203.171875 130.691406 202.25 130.65625 C 200.9375 130.605469 199.699219 130.53125 198.386719 130.691406 C 193.164062 131.261719 187.84375 132.160156 182.160156 133.421875 C 172.152344 135.644531 163.175781 138.585938 153.664062 141.71875 C 152.402344 142.121094 151.125 142.546875 149.839844 142.96875 L 142.757812 172.328125 C 147.25 172.386719 151.84375 172.292969 156.761719 172.023438 C 168.542969 171.40625 180.214844 169.960938 190.066406 168.597656 C 192.835938 168.222656 195.617188 167.832031 198.386719 167.445312 C 199.867188 167.226562 201.289062 167.261719 202.671875 167.300781 C 203 167.3125 203.355469 167.300781 203.695312 167.300781 C 204.191406 162.136719 205.46875 157.085938 206.707031 152.175781 C 207.785156 147.867188 208.902344 143.394531 209.5 138.960938 C 209.558594 138.464844 209.609375 137.964844 209.679688 137.46875 C 209.789062 136.460938 209.898438 135.441406 210.070312 134.445312 C 210.300781 133.132812 210.640625 131.84375 211.03125 130.59375 Z M 211.929688 183.269531 C 212.367188 179.273438 212.511719 175.253906 211.988281 171.296875 C 211.917969 170.6875 211.589844 169.960938 211.113281 169.253906 C 209.207031 169.363281 207.277344 169.484375 205.371094 169.582031 C 204.433594 169.617188 203.546875 169.59375 202.625 169.582031 C 201.277344 169.546875 200 169.535156 198.714844 169.714844 C 195.945312 170.105469 193.164062 170.492188 190.382812 170.871094 C 180.46875 172.230469 168.761719 173.699219 156.882812 174.320312 C 151.515625 174.585938 146.523438 174.683594 141.640625 174.609375 C 141.519531 175.046875 141.335938 175.523438 140.996094 175.921875 C 140.097656 176.992188 138.6875 177.078125 137.828125 177.078125 C 137.742188 177.078125 137.679688 177.078125 137.609375 177.078125 L 137.558594 177.078125 C 137.484375 177.625 137.535156 178.242188 137.609375 178.910156 L 137.691406 179.519531 C 137.875 181.183594 137.582031 182.433594 136.832031 183.320312 C 135.75 184.570312 134.109375 184.753906 132.640625 184.789062 C 132.410156 184.789062 132.203125 184.789062 131.949219 184.789062 C 129.410156 184.789062 126.277344 184.558594 123.507812 183.199219 C 123.140625 183.027344 122.195312 182.566406 121.914062 181.558594 C 121.746094 180.902344 121.914062 180.285156 122.011719 179.957031 C 122.425781 178.667969 122.960938 177.429688 123.605469 176.238281 C 121.378906 175.679688 119.109375 175.144531 116.851562 174.734375 C 112.890625 184.714844 111.179688 194.105469 111.738281 202.667969 C 113.109375 202 115.027344 200.992188 117.628906 199.960938 C 122.960938 197.675781 130.890625 194.808594 140.996094 192.308594 C 146.011719 191.058594 151.601562 189.890625 157.613281 188.847656 C 163.636719 187.839844 170.085938 186.925781 176.898438 186.175781 C 179.121094 185.929688 181.371094 185.699219 183.652344 185.492188 C 182.875 184.546875 182.585938 183.234375 182.898438 182.03125 C 183.082031 181.414062 183.398438 180.890625 183.652344 180.429688 C 184.125 179.628906 184.671875 178.730469 185.535156 178.035156 C 186.507812 177.234375 187.683594 176.894531 188.730469 176.578125 C 191.0625 175.921875 193.46875 175.230469 195.957031 174.964844 C 200.230469 174.527344 205.601562 175.375 207.800781 179.105469 C 208.492188 180.246094 208.5625 181.390625 208.03125 182.273438 C 207.652344 182.859375 207.117188 183.1875 206.570312 183.453125 C 206.402344 183.550781 206.195312 183.597656 206.027344 183.683594 C 207.980469 183.550781 209.9375 183.417969 211.929688 183.269531 Z M 219.761719 130.472656 C 217.671875 130.484375 215.574219 130.507812 213.484375 130.519531 C 213.460938 130.519531 213.445312 130.519531 213.433594 130.53125 C 212.960938 131.929688 212.585938 133.363281 212.339844 134.808594 C 212.171875 135.78125 212.0625 136.75 211.941406 137.734375 C 211.878906 138.234375 211.820312 138.742188 211.769531 139.253906 C 211.164062 143.820312 210.023438 148.351562 208.902344 152.722656 C 207.714844 157.472656 206.5 162.367188 205.988281 167.25 C 207.507812 167.179688 209.039062 167.082031 210.554688 167.007812 C 212.390625 161.324219 213.628906 155.457031 214.820312 149.773438 C 216.15625 143.40625 217.5625 136.835938 219.761719 130.472656 Z M 223.746094 146.25 L 226.699219 130.472656 C 225.191406 130.472656 223.6875 130.460938 222.191406 130.460938 C 219.871094 136.921875 218.4375 143.6875 217.054688 150.246094 C 215.914062 155.710938 214.699219 161.347656 212.984375 166.863281 C 215.464844 166.714844 217.929688 166.507812 220.382812 166.304688 C 221.28125 159.5625 222.519531 152.808594 223.746094 146.25 Z M 229.84375 223.351562 L 255.800781 215.785156 C 246.082031 216.527344 236.390625 217.011719 226.953125 217.5 C 221.707031 217.777344 216.386719 218.058594 211.019531 218.363281 C 211.25 220.679688 211.394531 222.929688 211.503906 225.101562 C 211.550781 225.855469 211.589844 226.585938 211.636719 227.335938 C 212.402344 227.144531 213.203125 226.984375 214.113281 226.828125 C 219.617188 225.964844 224.902344 224.785156 229.84375 223.351562 Z M 278.171875 209.191406 C 276.679688 210.273438 275.039062 211.351562 273.230469 212.277344 C 270.023438 214.023438 266.523438 215.058594 263.125 216.042969 L 230.5 225.539062 C 225.460938 227.007812 220.054688 228.199219 214.480469 229.085938 C 213.460938 229.246094 212.632812 229.425781 211.796875 229.65625 C 211.976562 232.074219 212.257812 234.503906 212.753906 237.042969 L 214.648438 237.03125 C 220.722656 237.019531 226.671875 236.945312 232.613281 236.871094 C 241.066406 236.761719 249.800781 236.691406 258.570312 236.703125 C 259.601562 236.714844 260.707031 236.714844 261.59375 236.363281 C 263.5 235.609375 264.582031 233.242188 265.445312 231.332031 C 268.964844 223.535156 273.230469 216.125 278.171875 209.191406 Z M 278.402344 205.65625 C 279.386719 204.769531 280.359375 203.945312 281.304688 203.140625 C 270.339844 196.523438 256.335938 196.097656 244.007812 196.242188 C 233.378906 196.363281 222.679688 196.8125 212.027344 197.386719 C 210.96875 203.578125 210.132812 209.917969 210.800781 216.101562 C 216.203125 215.773438 221.546875 215.496094 226.820312 215.214844 C 238.929688 214.597656 251.425781 213.941406 263.839844 212.847656 C 266.730469 212.59375 269.523438 211.609375 272.050781 210.320312 C 272.28125 210.210938 272.488281 210.078125 272.707031 209.957031 C 274.796875 208.742188 276.667969 207.175781 278.402344 205.65625 Z M 285.898438 159.171875 C 283.90625 149.652344 279.410156 140.820312 274.988281 132.269531 C 271.347656 132.003906 267.714844 131.785156 264.070312 131.566406 C 252.910156 130.945312 241.550781 130.59375 230.355469 130.484375 C 229.90625 130.472656 229.457031 130.484375 229.003906 130.472656 L 225.992188 146.675781 C 224.804688 153.039062 223.601562 159.597656 222.714844 166.109375 C 233.5 165.148438 244.359375 163.726562 254.996094 161.871094 C 255.898438 161.699219 256.785156 161.503906 257.644531 161.3125 C 259.078125 160.996094 260.5625 160.65625 262.152344 160.507812 C 265.199219 160.21875 268.210938 160.070312 270.519531 159.949219 C 271.90625 159.902344 273.289062 159.839844 274.675781 159.792969 C 278.367188 159.660156 282.167969 159.476562 285.898438 159.171875 Z M 288.179688 158.941406 C 291.046875 158.640625 293.71875 158.214844 296.234375 157.667969 C 291.871094 149.09375 286.976562 140.980469 282.375 133.59375 C 282.082031 133.507812 281.804688 133.421875 281.523438 133.351562 C 280.226562 132.949219 279 132.597656 277.648438 132.464844 C 281.984375 140.832031 286.261719 149.492188 288.179688 158.941406 Z M 299.148438 183.613281 C 300 182.554688 300.847656 181.460938 301.722656 180.367188 C 296.660156 180.613281 291.132812 180.867188 285.203125 181.144531 C 282.167969 181.28125 279.035156 181.425781 275.804688 181.59375 C 272.574219 181.8125 269.246094 182.070312 265.832031 182.3125 C 252.191406 183.257812 237.214844 184.292969 221.476562 185.398438 C 218.925781 185.566406 216.410156 185.738281 213.921875 185.894531 C 213.542969 188.699219 213.058594 191.496094 212.558594 194.25 C 212.511719 194.53125 212.464844 194.808594 212.414062 195.089844 C 222.921875 194.507812 233.5 194.082031 243.992188 193.960938 C 256.894531 193.789062 271.589844 194.25 283.1875 201.613281 C 283.90625 201.015625 284.660156 200.445312 285.410156 199.910156 C 286.503906 198.625 287.644531 197.347656 288.800781 196.097656 C 292.554688 192.027344 295.757812 187.960938 299.148438 183.613281 Z M 303.328125 178.375 C 303.714844 177.890625 304.089844 177.417969 304.480469 176.941406 C 302.511719 171.066406 300.035156 165.320312 297.289062 159.757812 C 294.167969 160.472656 290.828125 161.03125 287.183594 161.371094 C 283.042969 161.761719 278.839844 161.929688 274.757812 162.078125 C 273.375 162.125 272.003906 162.1875 270.628906 162.246094 C 268.347656 162.355469 265.359375 162.5 262.359375 162.78125 C 260.925781 162.925781 259.566406 163.21875 258.15625 163.546875 C 257.234375 163.742188 256.335938 163.945312 255.398438 164.117188 C 244.441406 166.023438 233.28125 167.480469 222.203125 168.453125 C 219.363281 168.695312 216.507812 168.925781 213.652344 169.109375 C 213.96875 169.765625 214.175781 170.394531 214.261719 171.003906 C 214.78125 175.046875 214.671875 179.09375 214.25 183.125 C 216.582031 182.957031 218.925781 182.796875 221.292969 182.652344 C 237.035156 181.621094 252.046875 180.660156 265.6875 179.785156 C 269.113281 179.566406 272.441406 179.371094 275.671875 179.152344 C 278.902344 179.054688 282.046875 178.960938 285.082031 178.863281 C 291.167969 178.703125 296.828125 178.535156 302.003906 178.414062 C 302.464844 178.386719 302.890625 178.375 303.328125 178.375 Z M 314.210938 149.566406 C 312.640625 148.097656 311.453125 146.285156 310.296875 144.539062 C 308.828125 142.316406 307.417969 140.214844 305.378906 138.878906 C 303.945312 137.941406 302.195312 137.40625 300.53125 136.945312 C 296.574219 135.878906 292.480469 134.992188 288.410156 134.371094 C 287.78125 134.273438 287.113281 134.25 286.40625 134.214844 C 286.078125 134.1875 285.738281 134.164062 285.398438 134.140625 C 289.796875 141.246094 294.398438 148.957031 298.515625 157.132812 C 304.882812 155.46875 310.078125 152.980469 314.210938 149.566406 Z M 332.683594 202.949219 C 333.167969 202.488281 333.617188 201.953125 334.078125 201.464844 C 331.042969 199.644531 327.558594 198.148438 323.660156 196.949219 C 316.84375 194.859375 310.335938 194.140625 304.273438 194.785156 C 299.464844 195.308594 294.824219 196.777344 290.890625 199.011719 C 289.515625 199.800781 288.230469 200.664062 286.976562 201.585938 C 279.082031 210.84375 272.535156 221.15625 267.519531 232.269531 C 266.535156 234.429688 265.199219 237.40625 262.445312 238.5 C 261.132812 239.011719 259.757812 238.984375 258.558594 238.984375 C 249.800781 238.949219 241.078125 239.058594 232.648438 239.15625 C 226.710938 239.226562 220.734375 239.300781 214.671875 239.3125 L 124.476562 239.691406 C 123.847656 239.703125 123.140625 239.75 122.390625 239.800781 C 121.539062 239.871094 120.617188 239.933594 119.679688 239.933594 C 117.675781 239.933594 115.636719 239.628906 114.191406 238.234375 C 111.167969 235.328125 110.484375 232.039062 109.746094 228.5625 C 107.085938 215.933594 98.386719 204.804688 87.03125 199.488281 C 75.421875 194.03125 61.101562 194.871094 50.546875 201.585938 L 50.523438 201.585938 L 54.832031 207.550781 C 58.621094 205.085938 62.863281 203.347656 67.257812 202.609375 C 67.9375 202.488281 68.617188 202.402344 69.300781 202.328125 C 72.699219 201.964844 76.027344 202.144531 78.929688 202.828125 C 80.074219 203.105469 80.984375 203.605469 81.820312 204.042969 C 82.488281 204.394531 83.074219 204.710938 83.605469 204.804688 C 85.550781 205.171875 87.191406 205.523438 89.195312 206.628906 C 92.582031 208.523438 95.605469 210.988281 98.15625 213.988281 C 103.367188 220.074219 106.257812 227.75 106.269531 235.597656 C 106.285156 238.21875 105.980469 240.820312 105.371094 243.320312 L 157.089844 242.789062 C 174.945312 242.59375 193.101562 242.460938 210.980469 242.335938 L 214.003906 242.3125 C 222.824219 242.230469 231.617188 242.179688 240.410156 242.132812 C 252.421875 242.070312 264.433594 242.011719 276.472656 241.886719 C 276.484375 241.886719 276.507812 241.886719 276.519531 241.886719 C 276.265625 240.917969 276.011719 239.933594 275.78125 238.949219 C 275.378906 237.1875 275.632812 235.449219 275.890625 233.894531 C 275.949219 233.410156 276.035156 232.914062 276.082031 232.464844 C 276.277344 230.375 276.679688 228.285156 277.285156 226.246094 C 278.464844 222.285156 280.371094 218.582031 282.933594 215.265625 C 288.070312 208.609375 295.675781 203.992188 303.800781 202.609375 C 304.480469 202.488281 305.171875 202.402344 305.851562 202.328125 C 309.253906 201.964844 312.558594 202.144531 315.460938 202.828125 C 316.601562 203.105469 317.539062 203.605469 318.351562 204.042969 C 319.03125 204.394531 319.613281 204.710938 320.148438 204.804688 C 322.09375 205.171875 323.71875 205.523438 325.734375 206.628906 C 326.34375 206.980469 326.949219 207.371094 327.535156 207.746094 C 328.554688 206.617188 329.671875 205.609375 330.789062 204.625 C 331.421875 204.078125 332.074219 203.519531 332.683594 202.949219 Z M 337.929688 235.597656 C 337.917969 229.011719 335.378906 222.308594 330.984375 217.171875 C 328.796875 214.632812 326.234375 212.519531 323.367188 210.929688 C 321.996094 210.164062 320.902344 209.917969 319.261719 209.617188 C 317.988281 209.386719 316.941406 208.839844 316.054688 208.351562 C 315.410156 208.023438 314.863281 207.734375 314.34375 207.601562 C 312.789062 207.234375 311.0625 207.042969 309.265625 207.042969 C 308.320312 207.042969 307.335938 207.089844 306.363281 207.210938 C 305.769531 207.246094 305.195312 207.332031 304.613281 207.429688 C 297.691406 208.609375 291.203125 212.554688 286.796875 218.253906 C 284.609375 221.09375 282.980469 224.253906 281.972656 227.652344 C 281.464844 229.378906 281.125 231.152344 280.941406 232.9375 C 280.894531 233.484375 280.808594 234.054688 280.710938 234.648438 C 280.527344 235.804688 280.359375 236.992188 280.554688 237.84375 C 282.09375 244.488281 284.316406 251.351562 290.0625 256.621094 C 292.867188 259.195312 296.015625 261.042969 299.160156 261.976562 C 302.039062 262.804688 305.246094 263.191406 308.355469 263.570312 L 309.546875 263.703125 C 310.734375 263.847656 311.925781 263.558594 313.308594 263.230469 C 313.675781 263.132812 314.050781 263.046875 314.402344 262.972656 C 315.339844 262.753906 316.214844 262.707031 316.980469 262.671875 C 317.914062 262.621094 318.628906 262.597656 319.25 262.332031 C 322.152344 261.042969 325.84375 259.234375 328.675781 256.621094 C 331.285156 254.230469 333.386719 251.421875 334.953125 248.265625 C 336.933594 244.292969 337.929688 240.019531 337.929688 235.597656 Z M 336.449219 131.105469 C 336.65625 130.8125 337.03125 130.3125 337.140625 130.035156 C 336.933594 129.378906 335.308594 128.976562 334.566406 128.832031 C 331.09375 128.105469 327.460938 127.460938 323.769531 126.890625 C 321.21875 126.476562 318.644531 126.125 316.007812 125.773438 C 318.351562 129.136719 320.550781 132.609375 322.578125 136.167969 C 325.820312 136.21875 328.515625 135.863281 330.800781 135.085938 C 332.683594 134.445312 334.285156 133.472656 335.550781 132.269531 C 335.757812 132.003906 335.976562 131.757812 336.144531 131.503906 Z M 346.09375 162.015625 C 346.722656 160.316406 346.613281 158.226562 345.8125 156.136719 C 345.011719 154.121094 343.6875 152.324219 342.386719 150.671875 C 340.082031 147.816406 337.515625 145.121094 334.917969 142.507812 C 334.457031 142.121094 334.019531 141.71875 333.546875 141.304688 C 333.328125 141.113281 333.144531 140.882812 333 140.625 C 331.992188 139.640625 330.984375 138.660156 329.976562 137.699219 C 328.710938 138.015625 327.363281 138.222656 325.894531 138.34375 C 331.140625 142.957031 336.121094 147.914062 340.699219 153.183594 C 341.039062 153.5625 341.074219 154.121094 340.796875 154.546875 C 338.125 158.734375 334.515625 162.417969 330.410156 165.210938 C 329.804688 165.636719 329.234375 166.074219 328.929688 166.496094 L 343.796875 165.683594 C 344.015625 165.648438 344.210938 165.71875 344.390625 165.828125 C 344.621094 165.003906 345.011719 164.261719 345.375 163.535156 C 345.644531 163.011719 345.910156 162.511719 346.09375 162.015625 Z M 348.4375 183.648438 C 347.210938 182.90625 346.019531 182.128906 344.878906 181.339844 L 328.871094 170.589844 C 328.105469 170.070312 326.511719 169 326.414062 167.25 C 326.292969 165.257812 328.140625 164.007812 329.136719 163.328125 C 332.757812 160.875 335.949219 157.65625 338.417969 154.035156 C 333.605469 148.582031 328.382812 143.433594 322.855469 138.71875 C 322.773438 138.648438 322.710938 138.550781 322.664062 138.453125 C 322.394531 138.453125 322.140625 138.453125 321.859375 138.441406 C 321.472656 138.414062 321.097656 138.210938 320.902344 137.84375 C 318.496094 133.558594 315.800781 129.378906 312.921875 125.394531 C 309.191406 124.957031 305.320312 124.570312 301.226562 124.242188 C 301.019531 124.363281 300.8125 124.421875 300.582031 124.421875 C 300.386719 124.421875 300.179688 124.375 300 124.277344 C 299.914062 124.230469 299.863281 124.179688 299.816406 124.109375 C 297 123.902344 294.09375 123.683594 291.046875 123.511719 C 286.078125 123.195312 280.832031 122.953125 274.515625 122.710938 C 271.757812 122.613281 269.003906 122.515625 266.246094 122.429688 C 265.785156 122.417969 265.335938 122.394531 264.871094 122.371094 C 263.125 122.285156 261.484375 122.199219 259.976562 122.539062 C 257.925781 122.988281 255.761719 122.757812 253.855469 122.539062 C 253.152344 122.480469 252.484375 122.394531 251.839844 122.371094 C 249.046875 122.226562 246.242188 122.101562 243.445312 122.019531 C 237.921875 121.859375 232.347656 121.847656 226.84375 121.96875 C 217.1875 122.199219 207.410156 123.113281 197.960938 124.011719 L 193.625 124.421875 C 192.675781 124.519531 191.863281 124.421875 191.148438 124.339844 L 190.625 124.289062 C 190.03125 124.230469 189.347656 124.386719 188.535156 124.558594 L 188.171875 124.628906 C 185.597656 125.175781 183.019531 125.746094 180.457031 126.34375 C 175.003906 127.605469 170.011719 128.90625 165.203125 130.277344 C 154.367188 133.410156 144.808594 136.933594 135.980469 141.050781 L 99.519531 158.066406 C 99.3125 158.164062 99.105469 158.238281 98.898438 158.347656 L 101.328125 161.980469 C 115.257812 153.609375 129.589844 147.015625 144.082031 142.410156 C 147.09375 141.453125 150.046875 140.492188 152.960938 139.546875 C 162.507812 136.398438 171.53125 133.449219 181.648438 131.1875 C 187.441406 129.902344 192.835938 129.003906 198.144531 128.417969 C 199.613281 128.261719 200.996094 128.324219 202.332031 128.371094 C 203.21875 128.40625 204.082031 128.429688 204.980469 128.417969 C 207.800781 128.335938 210.628906 128.285156 213.445312 128.261719 C 219.070312 128.152344 224.765625 128.152344 230.367188 128.199219 C 241.625 128.308594 252.992188 128.664062 264.203125 129.292969 C 267.96875 129.5 271.757812 129.753906 275.511719 130.023438 C 275.695312 129.988281 275.863281 130 276.046875 130.046875 C 276.570312 130.09375 277.105469 130.132812 277.648438 130.167969 C 279.3125 130.289062 280.773438 130.738281 282.179688 131.164062 C 282.703125 131.308594 283.226562 131.46875 283.757812 131.613281 C 284.597656 131.84375 285.53125 131.882812 286.515625 131.929688 C 287.257812 131.953125 288.011719 131.992188 288.75 132.125 C 292.917969 132.753906 297.070312 133.640625 301.140625 134.746094 C 302.988281 135.257812 304.929688 135.839844 306.640625 136.96875 C 309.070312 138.550781 310.664062 140.964844 312.207031 143.285156 C 313.554688 145.339844 314.839844 147.28125 316.636719 148.628906 C 316.917969 148.847656 317.074219 149.152344 317.101562 149.492188 C 317.113281 149.84375 316.980469 150.160156 316.722656 150.390625 C 312.277344 154.414062 306.59375 157.316406 299.5625 159.210938 C 302.34375 164.894531 304.855469 170.785156 306.847656 176.820312 C 306.957031 177.1875 306.898438 177.609375 306.640625 177.902344 C 306.546875 178.035156 306.421875 178.171875 306.328125 178.292969 C 314.683594 178.097656 321.546875 177.964844 326.511719 177.9375 C 332.28125 177.890625 335.5 177.9375 335.5 178.132812 C 335.5 178.328125 332.308594 178.621094 326.539062 178.996094 C 321.277344 179.359375 313.84375 179.761719 304.773438 180.222656 C 303.472656 181.839844 302.195312 183.453125 300.957031 185.03125 C 298.152344 188.601562 295.25 192.273438 292.078125 195.855469 C 295.734375 194.117188 299.816406 192.976562 304.03125 192.515625 C 310.40625 191.835938 317.222656 192.585938 324.328125 194.761719 C 328.578125 196.0625 332.367188 197.738281 335.648438 199.753906 C 336.351562 198.953125 337.03125 198.113281 337.75 197.238281 C 341.355469 192.769531 344.949219 188.203125 348.4375 183.648438 Z M 352.589844 183.222656 C 353.636719 183.660156 354.679688 183.9375 355.675781 184.121094 C 351.996094 180.988281 349.140625 176.917969 346.578125 173.25 C 345.667969 171.949219 344.34375 170.042969 344.171875 167.882812 C 344.101562 167.917969 344.015625 167.957031 343.917969 167.957031 L 330.191406 168.71875 L 346.152344 179.457031 C 348.207031 180.84375 350.332031 182.261719 352.589844 183.222656 Z M 356.988281 182.238281 L 355.042969 170.613281 C 354.605469 168.015625 354.144531 165.320312 353.320312 162.878906 C 352.191406 159.621094 350.015625 157.035156 347.550781 154.484375 C 347.683594 154.765625 347.828125 155.03125 347.925781 155.324219 C 348.945312 157.910156 349.054688 160.570312 348.230469 162.792969 C 348 163.4375 347.707031 164.019531 347.402344 164.589844 C 346.96875 165.441406 346.566406 166.242188 346.46875 167.054688 C 346.261719 168.671875 347.292969 170.289062 348.449219 171.949219 C 351 175.605469 353.636719 179.335938 356.988281 182.238281 Z M 364.214844 192.222656 C 364.175781 192.199219 364.164062 192.164062 364.128906 192.148438 C 363.507812 191.386719 362.683594 190.730469 361.796875 190.035156 C 360.644531 189.125 359.320312 188.042969 358.359375 186.585938 C 358.140625 186.597656 357.933594 186.613281 357.703125 186.613281 C 355.796875 186.613281 353.757812 186.175781 351.714844 185.324219 C 351.289062 185.140625 350.878906 184.933594 350.476562 184.742188 C 346.90625 189.40625 343.214844 194.082031 339.535156 198.671875 C 338.851562 199.488281 338.222656 200.25 337.589844 201.003906 C 338.632812 201.746094 339.628906 202.488281 340.542969 203.289062 C 340.871094 203.578125 341.210938 203.90625 341.550781 204.246094 C 342.738281 205.390625 343.96875 206.605469 345.339844 206.46875 C 345.789062 206.433594 346.285156 206.09375 346.871094 205.65625 C 352.675781 201.285156 358.503906 196.765625 364.214844 192.222656 Z M 369.15625 208.230469 C 369.097656 208.183594 369.035156 208.132812 368.976562 208.097656 C 368.027344 207.320312 366.835938 206.359375 366.507812 204.804688 C 366.15625 203.007812 366.21875 201.257812 366.304688 199.582031 C 366.363281 197.714844 366.449219 195.953125 365.828125 194.578125 C 365.769531 194.410156 365.660156 194.238281 365.5625 194.070312 C 359.878906 198.613281 354.046875 203.105469 348.253906 207.480469 C 347.585938 207.976562 346.675781 208.65625 345.535156 208.753906 C 343.128906 208.949219 341.367188 207.246094 339.972656 205.886719 C 339.644531 205.570312 339.351562 205.28125 339.035156 205.023438 C 338.125 204.222656 337.128906 203.457031 336.070312 202.730469 C 335.476562 203.375 334.882812 204.003906 334.238281 204.613281 C 333.605469 205.195312 332.949219 205.789062 332.28125 206.359375 C 331.261719 207.246094 330.277344 208.132812 329.414062 209.070312 C 331.324219 210.503906 333.121094 212.128906 334.699219 213.988281 C 339.921875 220.074219 342.789062 227.75 342.824219 235.597656 C 342.824219 236.082031 342.8125 236.554688 342.777344 237.042969 C 350.101562 235.9375 357.132812 233.617188 363.679688 230.132812 C 364.117188 229.898438 364.542969 229.695312 364.941406 229.488281 C 365.746094 229.097656 366.4375 228.769531 366.972656 228.34375 C 367.917969 221.265625 368.636719 214.65625 369.15625 208.230469 Z M 373.664062 205.839844 C 374.003906 206.3125 374.160156 206.894531 374.113281 207.464844 C 373.566406 214.609375 372.777344 221.933594 371.707031 229.886719 C 371.636719 230.375 371.429688 230.847656 371.078125 231.199219 C 369.835938 232.558594 368.367188 233.277344 367.082031 233.894531 C 366.726562 234.078125 366.351562 234.261719 365.988281 234.453125 C 358.53125 238.402344 350.539062 240.976562 342.195312 242.082031 C 341.621094 244.960938 340.675781 247.765625 339.339844 250.453125 C 337.503906 254.144531 335.039062 257.421875 331.992188 260.21875 C 328.625 263.3125 324.472656 265.367188 321.242188 266.800781 C 319.785156 267.445312 318.425781 267.503906 317.222656 267.578125 C 316.589844 267.601562 315.984375 267.625 315.484375 267.746094 C 315.132812 267.820312 314.816406 267.894531 314.464844 267.976562 C 313.175781 268.292969 311.753906 268.644531 310.175781 268.644531 C 309.777344 268.644531 309.363281 268.621094 308.9375 268.574219 L 307.761719 268.414062 C 304.46875 268.027344 301.054688 267.625 297.800781 266.65625 C 293.925781 265.535156 290.113281 263.3125 286.746094 260.230469 C 282.507812 256.332031 279.933594 251.824219 278.183594 247.160156 C 277.808594 247.097656 277.445312 247.015625 277.105469 246.929688 C 276.898438 246.867188 276.667969 246.808594 276.472656 246.785156 C 264.460938 246.90625 252.460938 246.964844 240.445312 247.027344 C 231.652344 247.074219 222.859375 247.125 214.03125 247.207031 L 211.03125 247.234375 C 193.152344 247.355469 174.992188 247.488281 157.136719 247.683594 L 104.328125 248.242188 C 104.316406 248.242188 104.316406 248.242188 104.304688 248.242188 C 104.132812 248.242188 103.976562 248.214844 103.804688 248.191406 C 103.503906 248.957031 103.175781 249.710938 102.796875 250.453125 C 100.976562 254.144531 98.484375 257.421875 95.460938 260.21875 C 92.097656 263.3125 87.929688 265.367188 84.6875 266.800781 C 83.242188 267.445312 81.882812 267.503906 80.679688 267.578125 C 80.046875 267.601562 79.453125 267.625 78.929688 267.746094 C 78.601562 267.820312 78.261719 267.894531 77.933594 267.976562 C 76.648438 268.292969 75.226562 268.644531 73.648438 268.644531 C 73.234375 268.644531 72.820312 268.621094 72.410156 268.574219 L 71.230469 268.414062 C 67.9375 268.027344 64.527344 267.625 61.257812 266.65625 C 57.394531 265.535156 53.570312 263.3125 50.21875 260.230469 C 45.894531 256.269531 43.308594 251.667969 41.546875 246.917969 L 39.589844 246.964844 C 36.296875 247.0625 33.054688 247.148438 29.824219 247.148438 C 23.082031 247.148438 16.429688 246.769531 9.433594 245.265625 C 7.464844 244.839844 5.703125 243.273438 4.28125 242.023438 C 4.027344 241.792969 3.796875 241.597656 3.566406 241.402344 C 2.945312 240.878906 2.640625 240.078125 2.714844 239.265625 C 3.164062 235.160156 3.03125 230.15625 2.316406 225.101562 C 2.300781 225.089844 2.265625 225.054688 2.230469 225.015625 C 2.070312 224.824219 1.890625 224.640625 1.707031 224.472656 C 1.222656 223.972656 0.964844 223.28125 1.003906 222.5625 L 1.644531 213.601562 C 1.792969 211.632812 1.949219 209.386719 2.617188 207.246094 C 3.273438 205.097656 4.402344 203.046875 6.261719 200.542969 C 7.222656 199.253906 8.097656 198.246094 8.96875 197.359375 C 9.261719 197.070312 9.457031 196.691406 9.773438 196.050781 C 9.882812 195.792969 10.003906 195.550781 10.125 195.308594 C 11.191406 193.269531 12.445312 191.261719 13.863281 189.34375 C 16.5625 185.75 19.867188 182.382812 23.738281 179.410156 C 26.519531 177.222656 29.605469 175.230469 32.886719 173.480469 C 42.808594 168.199219 53.886719 165.269531 64.378906 162.902344 C 69.445312 161.761719 74.605469 160.703125 79.707031 159.746094 C 84.859375 158.785156 90.820312 156.707031 97.464844 153.621094 L 133.914062 136.605469 C 142.964844 132.378906 152.765625 128.773438 163.84375 125.578125 C 168.75 124.179688 173.816406 122.855469 179.339844 121.582031 C 181.941406 120.972656 184.550781 120.390625 187.164062 119.855469 L 187.503906 119.769531 C 188.546875 119.539062 189.738281 119.285156 191.074219 119.40625 L 191.679688 119.480469 C 192.265625 119.539062 192.726562 119.589844 193.164062 119.566406 L 197.511719 119.152344 C 207.035156 118.242188 216.882812 117.304688 226.722656 117.074219 C 232.308594 116.953125 237.980469 116.964844 243.582031 117.125 C 246.421875 117.207031 249.253906 117.316406 252.09375 117.476562 C 252.835938 117.523438 253.601562 117.597656 254.378906 117.683594 C 255.992188 117.863281 257.65625 118.046875 258.921875 117.765625 C 261.058594 117.292969 263.113281 117.390625 265.101562 117.488281 C 265.527344 117.5 265.964844 117.523438 266.390625 117.535156 C 269.160156 117.621094 271.941406 117.71875 274.699219 117.828125 C 281.050781 118.058594 286.347656 118.324219 291.339844 118.617188 C 294.871094 118.835938 298.226562 119.066406 301.457031 119.347656 C 304.089844 115.046875 307.09375 110.941406 310.394531 107.128906 C 310.84375 106.617188 311.609375 106.570312 312.121094 107.019531 C 312.640625 107.457031 312.691406 108.234375 312.253906 108.742188 C 309.289062 112.132812 306.59375 115.773438 304.175781 119.578125 C 311.488281 120.234375 318.121094 121.046875 324.519531 122.042969 C 328.285156 122.636719 331.992188 123.304688 335.5625 124.035156 C 339.59375 124.859375 341.78125 126.753906 342.046875 129.671875 C 342.21875 131.515625 341.113281 133.023438 340.371094 134.019531 L 340.152344 134.335938 C 339.289062 135.550781 338.292969 136.691406 337.214844 137.699219 C 337.273438 137.832031 337.347656 137.992188 337.394531 138.171875 C 341.402344 141.683594 345.21875 145.242188 348.753906 148.753906 L 349.066406 149.078125 C 352.566406 152.554688 356.171875 156.125 357.945312 161.300781 C 358.90625 164.117188 359.402344 167.007812 359.855469 169.789062 L 362.078125 182.929688 C 362.269531 184.121094 363.207031 184.898438 364.832031 186.1875 C 365.828125 186.976562 366.960938 187.875 367.917969 189.027344 C 368.730469 190.023438 369.679688 191.167969 370.300781 192.585938 C 371.390625 195.003906 371.28125 197.542969 371.1875 199.800781 C 371.125 201.152344 371.0625 202.460938 371.28125 203.617188 C 371.441406 203.796875 371.828125 204.101562 372.058594 204.296875 C 372.617188 204.746094 373.203125 205.21875 373.664062 205.839844 Z M 33.128906 189.1875 C 29.15625 189.695312 25.125 190.8125 21.226562 191.835938 C 21.203125 191.859375 21.226562 191.871094 21.203125 191.882812 C 19.183594 195.976562 24.664062 197.070312 27.503906 195.914062 C 28.0625 195.683594 28.5625 195.355469 29.011719 194.96875 C 30.773438 193.449219 31.878906 190.933594 33.128906 189.1875 " fill-opacity="1" fill-rule="nonzero"/></g><path fill="#000000" d="M 56.207031 246.699219 C 59.679688 244.027344 63.25 241.4375 66.894531 238.9375 C 62.644531 240.140625 58.417969 241.488281 54.273438 242.957031 C 54.796875 244.246094 55.417969 245.496094 56.207031 246.699219 Z M 68.632812 231.003906 C 65.777344 227.375 62.535156 224.046875 58.964844 221.09375 C 58.222656 221.785156 57.519531 222.539062 56.898438 223.339844 C 56.875 223.378906 56.851562 223.425781 56.824219 223.476562 C 61.148438 225.273438 65.183594 227.824219 68.632812 231.003906 Z M 63.53125 237.550781 C 61.730469 237.636719 59.921875 237.699219 58.113281 237.699219 C 56.265625 237.699219 54.445312 237.636719 52.609375 237.539062 C 52.878906 238.632812 53.167969 239.726562 53.507812 240.796875 C 56.800781 239.628906 60.164062 238.558594 63.53125 237.550781 Z M 66.722656 225.25 C 65.800781 222.636719 65.15625 219.917969 64.867188 217.132812 C 63.394531 217.789062 61.988281 218.605469 60.710938 219.589844 C 62.824219 221.347656 64.855469 223.246094 66.722656 225.25 Z M 68.4375 234.941406 C 68.484375 234.710938 68.582031 234.480469 68.679688 234.261719 C 65 230.421875 60.457031 227.386719 55.511719 225.417969 C 54.941406 226.378906 54.445312 227.386719 54.042969 228.429688 C 57.324219 229.097656 60.578125 230.035156 63.710938 231.199219 C 64.296875 231.417969 64.585938 232.085938 64.355469 232.667969 C 64.199219 233.132812 63.761719 233.410156 63.300781 233.410156 C 63.164062 233.410156 63.019531 233.386719 62.886719 233.335938 C 59.800781 232.183594 56.59375 231.273438 53.351562 230.617188 C 53.085938 231.613281 52.890625 232.644531 52.792969 233.652344 C 52.757812 234.03125 52.695312 234.417969 52.621094 234.796875 C 52.609375 234.953125 52.597656 235.097656 52.5625 235.246094 C 57.734375 235.523438 62.984375 235.425781 68.144531 234.90625 C 68.242188 234.90625 68.339844 234.929688 68.4375 234.941406 Z M 70.609375 239.15625 C 70.597656 239.15625 70.597656 239.132812 70.574219 239.132812 C 70.5625 239.15625 70.539062 239.167969 70.527344 239.179688 C 66.105469 242.15625 61.746094 245.300781 57.542969 248.542969 C 58.039062 249.164062 58.585938 249.757812 59.207031 250.328125 C 59.765625 250.828125 60.347656 251.300781 60.953125 251.726562 L 67.730469 242.023438 C 68.109375 241.511719 68.8125 241.390625 69.335938 241.742188 C 69.859375 242.105469 69.96875 242.824219 69.613281 243.347656 L 62.886719 252.941406 C 63.785156 253.425781 64.71875 253.816406 65.632812 254.09375 C 66.117188 254.230469 66.613281 254.363281 67.101562 254.449219 L 68.132812 250.804688 C 69.175781 247.015625 70.246094 243.101562 70.609375 239.15625 Z M 71.726562 255.175781 C 71.863281 252.066406 71.886719 248.945312 71.789062 245.824219 C 71.339844 247.71875 70.839844 249.578125 70.332031 251.398438 L 69.371094 254.859375 C 70.148438 254.980469 70.949219 255.078125 71.726562 255.175781 Z M 74.714844 234.953125 C 74.714844 234.359375 74.277344 233.519531 73.902344 233.421875 C 73.867188 233.410156 73.804688 233.410156 73.757812 233.410156 C 73.28125 233.410156 72.25 233.738281 71.570312 234.210938 C 70.988281 234.613281 70.597656 235.230469 70.625 235.792969 C 70.648438 236.324219 71.046875 236.894531 71.617188 237.128906 C 72.191406 237.359375 72.941406 237.285156 73.550781 236.921875 C 74.265625 236.507812 74.714844 235.707031 74.714844 234.953125 Z M 76.890625 216.066406 C 76.695312 215.980469 76.5 215.894531 76.308594 215.847656 C 75.261719 215.605469 74.121094 215.484375 72.90625 215.484375 C 73.28125 219.078125 73.417969 222.757812 73.246094 226.390625 C 73.222656 227.007812 72.710938 227.484375 72.105469 227.484375 C 72.09375 227.484375 72.082031 227.484375 72.054688 227.484375 C 71.425781 227.472656 70.9375 226.925781 70.964844 226.292969 C 71.109375 222.722656 71 219.125 70.625 215.578125 C 70.234375 215.605469 69.820312 215.675781 69.433594 215.738281 C 68.632812 215.871094 67.855469 216.078125 67.0625 216.308594 C 67.539062 221.566406 69.285156 226.679688 72.128906 231.128906 C 72.179688 231.222656 72.191406 231.308594 72.226562 231.394531 C 72.53125 231.308594 72.859375 231.222656 73.1875 231.175781 C 74.984375 226.292969 76.222656 221.214844 76.890625 216.066406 Z M 77.460938 254.628906 L 76.367188 251.871094 C 75.578125 249.867188 74.765625 247.816406 74.058594 245.703125 C 74.167969 248.910156 74.144531 252.101562 74.011719 255.285156 C 74.546875 255.226562 75.070312 255.089844 75.601562 254.957031 L 76.332031 254.777344 C 76.71875 254.703125 77.097656 254.667969 77.460938 254.628906 Z M 77.617188 225.710938 L 81.6875 217.742188 C 81.042969 217.511719 80.425781 217.367188 79.648438 217.242188 C 79.429688 217.183594 79.234375 217.109375 79.039062 217.050781 C 78.566406 220.460938 77.851562 223.851562 76.890625 227.15625 C 77.132812 226.667969 77.375 226.195312 77.617188 225.710938 Z M 86.351562 250.304688 C 87.152344 249.578125 87.871094 248.789062 88.527344 247.949219 C 86.570312 246.019531 84.554688 244.015625 82.367188 242.335938 C 79.925781 240.441406 77.570312 239.203125 75.226562 238.511719 L 75.214844 238.5 C 75.042969 238.632812 74.898438 238.777344 74.714844 238.886719 C 74.703125 238.886719 74.703125 238.886719 74.691406 238.886719 C 75.371094 243.066406 76.949219 247.125 78.503906 251.046875 L 79.78125 254.300781 C 80.886719 253.816406 82.160156 253.195312 83.414062 252.445312 L 76.660156 242.460938 C 76.320312 241.925781 76.453125 241.21875 76.976562 240.867188 C 77.496094 240.515625 78.214844 240.648438 78.566406 241.171875 L 85.296875 251.15625 C 85.648438 250.875 86.023438 250.621094 86.351562 250.304688 Z M 88.332031 223.050781 C 88.210938 222.878906 88.101562 222.722656 87.96875 222.574219 C 86.714844 221.105469 85.269531 219.867188 83.691406 218.835938 L 79.660156 226.753906 C 79.089844 227.859375 78.519531 229 77.863281 230.105469 C 81.128906 227.433594 84.628906 225.054688 88.332031 223.050781 Z M 90.761719 244.453125 C 91.136719 243.699219 91.464844 242.921875 91.71875 242.15625 C 88.625 241.171875 85.488281 240.308594 82.320312 239.496094 C 82.792969 239.824219 83.292969 240.140625 83.753906 240.515625 C 85.964844 242.214844 87.957031 244.160156 89.863281 246.066406 C 90.191406 245.542969 90.492188 245.011719 90.761719 244.453125 Z M 92.851562 235.425781 C 92.824219 233.910156 92.621094 232.414062 92.242188 230.933594 C 88.625 231.625 85.066406 232.753906 81.6875 234.273438 C 81.519531 234.332031 81.371094 234.371094 81.214844 234.371094 C 80.777344 234.371094 80.363281 234.128906 80.167969 233.703125 C 79.914062 233.132812 80.167969 232.464844 80.742188 232.195312 C 84.214844 230.628906 87.859375 229.476562 91.585938 228.722656 C 91.089844 227.398438 90.433594 226.109375 89.667969 224.910156 C 85.050781 227.398438 80.742188 230.460938 76.878906 233.992188 C 76.925781 234.238281 76.976562 234.480469 76.988281 234.710938 C 82.210938 235.695312 87.542969 235.925781 92.851562 235.425781 Z M 92.351562 239.945312 C 92.523438 239.214844 92.644531 238.488281 92.730469 237.710938 C 90.957031 237.878906 89.167969 237.953125 87.398438 237.953125 C 86.730469 237.953125 86.035156 237.941406 85.367188 237.929688 C 87.722656 238.558594 90.054688 239.226562 92.351562 239.945312 Z M 95.132812 235.523438 C 95.144531 238.984375 94.367188 242.335938 92.8125 245.460938 C 91.585938 247.925781 89.921875 250.136719 87.90625 251.992188 C 85.648438 254.058594 82.867188 255.429688 80.679688 256.414062 C 79.78125 256.804688 78.894531 256.851562 78.128906 256.890625 C 77.667969 256.902344 77.230469 256.9375 76.839844 257.011719 L 76.136719 257.179688 C 75.261719 257.386719 74.339844 257.617188 73.332031 257.617188 C 73.089844 257.617188 72.808594 257.605469 72.554688 257.570312 L 71.726562 257.472656 C 69.503906 257.203125 67.199219 256.914062 65 256.28125 C 62.4375 255.554688 59.886719 254.058594 57.652344 252.007812 C 53.167969 247.875 51.46875 242.691406 50.316406 237.710938 C 50.046875 236.605469 50.230469 235.464844 50.375 234.453125 C 50.425781 234.101562 50.472656 233.761719 50.507812 233.433594 C 50.65625 232.039062 50.910156 230.628906 51.324219 229.292969 C 52.125 226.632812 53.375 224.15625 55.089844 221.933594 C 58.539062 217.488281 63.628906 214.402344 69.042969 213.492188 C 69.503906 213.40625 69.953125 213.34375 70.417969 213.285156 C 72.675781 213.066406 74.898438 213.175781 76.828125 213.636719 C 77.546875 213.792969 78.140625 214.121094 78.664062 214.402344 C 79.171875 214.679688 79.609375 214.910156 80.046875 214.984375 C 81.371094 215.226562 82.417969 215.457031 83.726562 216.175781 C 85.976562 217.4375 88.003906 219.101562 89.691406 221.09375 C 93.191406 225.164062 95.132812 230.289062 95.132812 235.523438 " fill-opacity="1" fill-rule="nonzero"/><path fill="#000000" d="M 364.75 213.136719 C 364.882812 212.507812 364.992188 211.949219 364.832031 211.570312 C 364.722656 211.304688 364.394531 211.039062 363.957031 210.902344 C 363.742188 210.878906 363.507812 210.84375 363.265625 210.792969 C 363.15625 210.78125 363.011719 210.746094 362.878906 210.710938 C 362.867188 210.84375 362.867188 210.976562 362.839844 211.0625 C 362.839844 211.207031 362.828125 211.316406 362.804688 211.425781 L 360.996094 226.136719 C 361.214844 226.085938 361.421875 225.964844 361.554688 225.820312 C 362.027344 225.332031 362.222656 224.445312 362.40625 223.679688 Z M 366.960938 210.734375 C 367.371094 211.777344 367.152344 212.847656 366.972656 213.636719 L 364.613281 224.191406 C 364.410156 225.140625 364.117188 226.4375 363.207031 227.398438 C 362.597656 228.042969 361.699219 228.429688 360.835938 228.429688 C 360.824219 228.429688 360.824219 228.429688 360.824219 228.429688 C 360.085938 228.429688 359.417969 228.152344 358.941406 227.652344 C 358.699219 227.398438 358.589844 227.058594 358.640625 226.71875 L 360.558594 210.902344 C 360.605469 210.332031 360.679688 209.375 361.421875 208.816406 C 362.1875 208.242188 363.121094 208.425781 363.726562 208.558594 C 363.996094 208.609375 364.226562 208.609375 364.421875 208.65625 C 365.621094 208.960938 366.558594 209.75 366.960938 210.734375 " fill-opacity="1" fill-rule="nonzero"/></svg>