<svg xmlns="http://www.w3.org/2000/svg" xmlns:xlink="http://www.w3.org/1999/xlink" width="500" zoomAndPan="magnify" viewBox="0 0 375 374.999991" height="500" preserveAspectRatio="xMidYMid meet" version="1.0"><defs><clipPath id="61c6db29f5"><path d="M 0.863281 124 L 374.363281 124 L 374.363281 251.308594 L 0.863281 251.308594 Z M 0.863281 124 " clip-rule="nonzero"/></clipPath></defs><g clip-path="url(#61c6db29f5)"><path fill="#000000" d="M 13.761719 195.011719 C 13.3125 193.238281 13.082031 191.414062 13.046875 189.5625 C 12.339844 189.808594 11.632812 190.039062 10.929688 190.292969 C 11.292969 191.667969 11.574219 193.054688 11.828125 194.441406 C 12.472656 194.660156 13.117188 194.867188 13.761719 195.011719 Z M 14.320312 207.164062 C 14.371094 206.945312 14.429688 206.738281 14.503906 206.542969 C 14.199219 206.496094 13.894531 206.433594 13.566406 206.421875 C 11.609375 206.238281 9.59375 206.203125 7.609375 206.25 C 7.632812 206.496094 7.648438 206.738281 7.671875 206.957031 C 7.792969 208.722656 8.058594 210.449219 8.414062 212.164062 C 8.886719 212.175781 9.347656 212.210938 9.796875 212.261719 C 10.441406 212.332031 11.050781 212.382812 11.632812 212.359375 C 12.558594 212.34375 13.761719 212.003906 14.128906 211.179688 C 14.320312 210.738281 14.296875 210.144531 14.285156 209.523438 L 14.285156 209.050781 C 14.285156 208.625 14.320312 208.234375 14.382812 207.882812 C 14.296875 207.664062 14.25 207.417969 14.320312 207.164062 Z M 15.671875 224.460938 C 16.328125 224.484375 17.019531 224.496094 17.675781 224.410156 C 16.875 223.898438 16.195312 223.160156 15.839844 222.257812 C 15.71875 221.917969 15.632812 221.566406 15.550781 221.222656 C 15.5 220.992188 15.429688 220.75 15.367188 220.53125 C 15.027344 219.644531 14.113281 218.875 12.910156 218.5 C 12.074219 218.246094 11.113281 218.183594 10.199219 218.171875 C 10.429688 218.914062 10.285156 219.726562 9.8125 220.347656 L 7.378906 223.644531 C 7.816406 223.816406 8.292969 224.007812 8.753906 224.179688 Z M 18.054688 221.394531 C 18.238281 221.867188 18.613281 222.28125 19.074219 222.511719 C 18.6875 218.136719 17.871094 213.78125 16.65625 209.574219 C 16.667969 210.363281 16.679688 211.238281 16.292969 212.125 C 15.488281 213.988281 13.386719 214.691406 11.707031 214.730469 C 11.609375 214.730469 11.523438 214.742188 11.441406 214.742188 C 10.796875 214.742188 10.164062 214.679688 9.554688 214.609375 C 9.375 214.59375 9.203125 214.582031 9.03125 214.582031 C 9.15625 214.984375 9.277344 215.386719 9.410156 215.800781 C 10.722656 215.773438 12.183594 215.800781 13.605469 216.238281 C 15.511719 216.832031 17.007812 218.136719 17.578125 219.726562 C 17.703125 220.03125 17.785156 220.347656 17.847656 220.6875 C 17.910156 220.921875 17.96875 221.175781 18.054688 221.394531 Z M 18.796875 200.414062 C 19.671875 199.5625 20.570312 198.734375 21.46875 197.933594 C 20.839844 197.992188 20.230469 198.042969 19.609375 198.078125 C 19.390625 198.078125 19.148438 198.078125 18.917969 198.078125 C 16.632812 198.078125 14.296875 197.703125 11.988281 196.996094 C 11.839844 197.398438 11.609375 197.773438 11.292969 198.078125 C 9.835938 199.429688 8.511719 201.410156 7.925781 203.136719 C 7.828125 203.382812 7.792969 203.625 7.730469 203.878906 C 9.75 203.832031 11.78125 203.878906 13.785156 204.050781 C 14.332031 204.097656 14.929688 204.183594 15.5 204.355469 C 16.414062 202.835938 17.652344 201.542969 18.796875 200.414062 Z M 24.242188 194.964844 C 24.183594 193.722656 24.011719 192.496094 23.683594 191.304688 C 23.632812 191.167969 23.621094 191.074219 23.585938 191.023438 C 23.585938 191.058594 23.488281 191.035156 23.332031 191.035156 C 20.730469 190.816406 18.066406 191.121094 15.585938 191.898438 C 15.730469 193.117188 15.976562 194.308594 16.316406 195.488281 C 16.316406 195.488281 16.316406 195.511719 16.316406 195.523438 C 17.398438 195.65625 18.480469 195.742188 19.550781 195.707031 C 21.070312 195.65625 22.636719 195.390625 24.242188 194.964844 Z M 31.378906 186.753906 C 25.992188 186.695312 20.605469 187.398438 15.390625 188.871094 C 15.390625 189.078125 15.414062 189.285156 15.414062 189.503906 C 18.042969 188.75 20.8125 188.445312 23.539062 188.664062 C 23.890625 188.699219 24.582031 188.75 25.15625 189.25 C 25.703125 189.699219 25.871094 190.34375 25.96875 190.683594 C 26.1875 191.511719 26.347656 192.375 26.457031 193.226562 C 27.5625 192.421875 28.644531 191.582031 29.519531 190.597656 C 30.589844 189.382812 31.234375 188.042969 31.378906 186.753906 Z M 32.265625 208.707031 C 32.449219 208.269531 32.65625 207.796875 32.863281 207.296875 C 32.316406 207.128906 31.71875 206.992188 31.113281 206.933594 C 29.542969 211.007812 28.011719 215.203125 27.816406 219.558594 C 28.546875 219.742188 29.214844 219.835938 29.882812 219.910156 C 29.957031 218.707031 30.164062 217.5625 30.382812 216.492188 C 30.503906 215.847656 30.636719 215.238281 30.710938 214.644531 C 30.953125 212.636719 31.488281 210.628906 32.265625 208.707031 Z M 38.46875 187.300781 C 36.898438 187.082031 35.34375 186.960938 33.773438 186.875 C 33.566406 189.027344 32.472656 190.769531 31.464844 191.949219 C 33.910156 190.585938 36.21875 188.957031 38.46875 187.300781 Z M 86.527344 227.535156 C 87.34375 224.847656 87.71875 222.367188 87.636719 220.128906 C 87.636719 220.117188 87.636719 220.117188 87.636719 220.117188 C 87.5625 218.609375 87.417969 217.246094 87.125 216.007812 C 87.027344 215.507812 86.832031 214.984375 86.652344 214.425781 C 86.347656 213.597656 86.019531 212.660156 85.871094 211.628906 C 85.789062 211.105469 85.773438 210.617188 85.75 210.132812 C 85.738281 209.546875 85.726562 209.242188 85.617188 208.964844 C 85.277344 208.078125 84.582031 207.285156 83.78125 206.347656 L 83.609375 206.15625 C 83.199219 205.65625 82.785156 205.179688 82.371094 204.695312 C 80.074219 201.957031 77.910156 199.378906 75.160156 197.6875 C 71.113281 195.183594 66.273438 193.929688 61.433594 193.929688 C 56.402344 193.929688 51.390625 195.28125 47.234375 197.957031 C 44.035156 200.023438 41.265625 202.820312 39.234375 206.03125 C 38.273438 207.578125 37.542969 209.21875 36.960938 210.628906 C 36.363281 212.125 35.9375 213.695312 35.746094 215.277344 C 35.660156 215.96875 35.511719 216.710938 35.355469 217.492188 C 35.085938 218.875 34.808594 220.300781 34.941406 221.480469 C 35.050781 222.5 35.304688 223.597656 35.527344 224.667969 L 35.71875 225.566406 C 36.363281 228.59375 37.882812 232.011719 39.914062 234.933594 C 43.210938 239.710938 48 243.277344 53.398438 245.003906 C 56.996094 246.171875 61.191406 246.5 65.507812 245.9375 C 69.738281 245.390625 74.101562 243.46875 77.773438 240.527344 C 81.910156 237.207031 85.023438 232.597656 86.527344 227.535156 Z M 92.351562 224.8125 C 93.582031 224.8125 94.820312 224.8125 96.0625 224.8125 C 95.113281 219.386719 93.640625 214 91.695312 208.832031 C 91.5 208.367188 91.34375 207.90625 91.148438 207.457031 C 89.582031 203.515625 87.902344 200.269531 85.996094 197.542969 L 85.570312 196.910156 C 84.777344 195.742188 83.878906 194.40625 82.882812 193.808594 C 82.117188 193.359375 81.386719 192.847656 80.667969 192.335938 C 79.953125 191.851562 79.246094 191.363281 78.503906 190.914062 C 75.0625 188.894531 70.882812 187.53125 66.066406 186.914062 C 58.394531 185.925781 51.210938 187.011719 45.277344 190.074219 C 39.0625 193.261719 34.445312 198.722656 32.667969 204.792969 C 33.105469 204.902344 33.519531 205.011719 33.910156 205.15625 C 34.222656 204.550781 34.566406 203.929688 34.941406 203.320312 C 37.375 199.488281 40.667969 196.144531 44.472656 193.699219 C 54.394531 187.3125 67.792969 187.179688 77.824219 193.359375 C 81.277344 195.488281 83.804688 198.503906 86.261719 201.410156 C 86.652344 201.898438 87.0625 202.371094 87.464844 202.847656 L 87.636719 203.039062 C 88.597656 204.160156 89.691406 205.4375 90.335938 207.128906 C 90.785156 208.234375 90.796875 209.195312 90.832031 209.972656 C 90.832031 210.265625 90.84375 210.570312 90.882812 210.875 C 90.96875 211.433594 91.199219 212.078125 91.441406 212.734375 C 91.671875 213.414062 91.914062 214.121094 92.085938 214.898438 C 92.4375 216.457031 92.632812 218.109375 92.707031 219.945312 C 92.753906 221.480469 92.621094 223.121094 92.351562 224.8125 Z M 112.996094 210.558594 C 111.878906 199.792969 112.292969 188.859375 114.226562 178.289062 C 97.800781 178.886719 80.949219 179.710938 65.035156 184.445312 C 65.472656 184.46875 65.933594 184.503906 66.371094 184.554688 C 71.5 185.234375 76 186.667969 79.71875 188.871094 C 80.511719 189.34375 81.253906 189.867188 82.019531 190.390625 C 82.6875 190.867188 83.367188 191.363281 84.097656 191.777344 C 85.53125 192.640625 86.636719 194.269531 87.527344 195.574219 L 87.941406 196.179688 C 89.945312 199.0625 91.707031 202.457031 93.351562 206.566406 C 93.53125 207.042969 93.726562 207.515625 93.910156 207.992188 C 95.636719 212.5625 96.972656 217.320312 97.957031 222.125 C 101.203125 217.113281 106.480469 213.113281 112.996094 210.558594 Z M 102.882812 219.753906 L 114.214844 219.316406 C 113.835938 217.222656 113.496094 215.105469 113.242188 212.988281 C 109.132812 214.667969 105.617188 216.980469 102.882812 219.753906 Z M 115.308594 224.679688 C 115.078125 223.679688 114.90625 222.683594 114.699219 221.675781 L 102.640625 222.136719 C 102.335938 222.136719 102.03125 222.125 101.726562 222.085938 C 101.421875 222.074219 101.132812 222.074219 100.898438 222.0625 C 100.21875 222.9375 99.625 223.863281 99.101562 224.835938 C 104.5 224.835938 109.898438 224.789062 115.308594 224.679688 Z M 119.890625 166.480469 C 118.773438 166.261719 117.640625 166.042969 116.523438 165.882812 C 116.242188 165.835938 116 165.6875 115.832031 165.492188 C 88.449219 165.03125 61.277344 168.886719 35.085938 176.988281 C 26.917969 179.519531 20.207031 182.714844 15.027344 186.523438 C 18.964844 185.441406 22.992188 184.761719 27.050781 184.515625 C 27.125 184.273438 27.257812 184.03125 27.476562 183.859375 C 33.179688 179.566406 40.132812 177.828125 47.367188 176.292969 C 71.183594 171.222656 95.585938 167.9375 119.890625 166.480469 Z M 130.25 162.890625 C 130.46875 161.636719 131.039062 160.457031 131.902344 159.414062 C 128.851562 161.578125 125.910156 163.875 123.089844 166.273438 C 123.003906 166.429688 122.90625 166.734375 122.796875 167.039062 C 122.652344 167.476562 122.503906 167.902344 122.394531 168.109375 C 122.214844 168.5 121.824219 168.753906 121.398438 168.765625 C 96.753906 170.175781 72 173.472656 47.855469 178.605469 C 41.738281 179.90625 35.816406 181.355469 30.882812 184.417969 C 34.457031 184.445312 38.066406 184.746094 41.617188 185.441406 C 42.089844 185.527344 42.445312 185.855469 42.554688 186.316406 C 42.664062 186.777344 42.480469 187.265625 42.113281 187.53125 C 38.855469 189.988281 35.5 192.507812 31.792969 194.492188 C 29.980469 195.453125 28.195312 196.230469 26.40625 196.8125 C 24.339844 198.480469 22.347656 200.269531 20.449219 202.105469 C 19.402344 203.136719 18.296875 204.304688 17.496094 205.632812 C 18.140625 206.386719 18.480469 207.320312 18.722656 208.1875 C 20.183594 213.027344 21.117188 218.027344 21.507812 223.074219 C 21.542969 223.535156 21.59375 224.230469 21.265625 224.898438 C 20.996094 225.480469 20.484375 225.929688 19.78125 226.273438 C 18.757812 226.746094 17.664062 226.84375 16.679688 226.84375 C 16.496094 226.84375 16.328125 226.84375 16.15625 226.84375 C 21.046875 228.425781 26.359375 229.761719 31.902344 230.429688 C 31.441406 229.15625 31.015625 227.851562 30.757812 226.589844 L 30.566406 225.738281 C 30.332031 224.617188 30.078125 223.449219 29.933594 222.28125 C 28.984375 222.210938 28.035156 222.074219 27.125 221.84375 C 26.84375 221.773438 26.285156 221.613281 25.894531 221.140625 C 25.398438 220.554688 25.433594 219.824219 25.445312 219.523438 C 25.664062 214.472656 27.550781 209.574219 29.214844 205.253906 C 29.386719 204.816406 29.8125 204.523438 30.285156 204.511719 C 32.15625 197.652344 37.277344 191.511719 44.195312 187.957031 C 48.753906 185.613281 54.007812 184.359375 59.621094 184.226562 C 59.734375 183.859375 59.976562 183.554688 60.363281 183.433594 C 77.910156 177.4375 96.546875 176.5625 114.664062 175.90625 C 114.734375 175.6875 114.84375 175.503906 115.015625 175.347656 C 116.960938 173.679688 118.941406 172.011719 120.949219 170.371094 C 121.011719 170.285156 121.105469 170.226562 121.214844 170.152344 C 124.183594 167.707031 127.199219 165.273438 130.25 162.890625 Z M 136.511719 170.105469 C 135.613281 170.054688 134.613281 169.980469 133.617188 169.582031 C 132.074219 168.9375 130.871094 167.5 130.359375 165.824219 C 128.621094 167.195312 126.882812 168.582031 125.15625 169.980469 C 128.925781 170.054688 132.71875 170.089844 136.511719 170.105469 Z M 147.160156 161.746094 C 147.355469 159.851562 147.257812 159.289062 146.675781 159.046875 C 145.421875 158.511719 143.878906 158.246094 142.25 158.246094 C 141.105469 158.246094 139.914062 158.378906 138.75 158.644531 C 137.082031 159.035156 135.710938 159.679688 134.738281 160.554688 C 133.640625 161.527344 132.984375 162.84375 132.984375 164.058594 C 132.984375 165.300781 133.714844 166.503906 134.710938 166.90625 C 135.308594 167.160156 136.0625 167.195312 136.792969 167.222656 L 144.367188 167.648438 C 144.742188 167.671875 145.289062 167.707031 145.507812 167.5625 C 145.65625 167.476562 145.824219 167.246094 146.03125 166.855469 C 146.601562 165.6875 146.941406 164.300781 147.078125 162.488281 C 147.089844 162.246094 147.125 161.992188 147.160156 161.746094 Z M 162.238281 140.132812 C 162.191406 140.011719 162.140625 139.914062 162.082031 139.792969 C 156.269531 141.910156 150.46875 144.5625 144.753906 147.734375 C 137.082031 151.992188 129.191406 157.417969 120.71875 164.253906 C 121.011719 164.300781 121.300781 164.351562 121.582031 164.421875 C 133.472656 154.378906 147.148438 146.203125 162.238281 140.132812 Z M 181.605469 173.449219 C 183.308594 172.523438 185.179688 171.878906 187.015625 171.539062 C 171.84375 172.171875 156.574219 172.511719 141.351562 172.511719 C 134.96875 172.511719 128.621094 172.4375 122.273438 172.339844 C 120.914062 173.472656 119.550781 174.617188 118.1875 175.773438 L 181.035156 173.507812 C 181.167969 173.507812 181.265625 173.546875 181.386719 173.570312 C 181.460938 173.546875 181.535156 173.484375 181.605469 173.449219 Z M 196.074219 178.75 L 179.199219 179.152344 C 179.40625 179.53125 179.84375 179.871094 180.367188 180.066406 C 183.515625 181.257812 187.320312 181.441406 192.015625 180.625 C 193.011719 180.453125 194.140625 180.222656 195.042969 179.699219 C 195.464844 179.445312 195.820312 179.105469 196.074219 178.75 Z M 180.683594 176.757812 L 196.085938 176.378906 C 195.78125 175.90625 195.320312 175.492188 194.90625 175.238281 L 194.785156 175.164062 L 194.492188 174.980469 C 193.628906 174.457031 192.753906 173.898438 191.941406 173.765625 C 191.320312 173.679688 190.675781 173.617188 190.03125 173.617188 C 187.613281 173.617188 185.035156 174.289062 182.726562 175.539062 C 182.175781 175.84375 181.386719 176.269531 180.683594 176.757812 Z M 200.136719 215.289062 C 199.976562 213.074219 199.855469 210.835938 199.769531 208.585938 C 180.863281 209.328125 161.910156 209.621094 143.101562 209.460938 L 142.3125 209.449219 C 140.816406 209.449219 139.308594 209.4375 137.824219 209.4375 C 131.078125 209.4375 124.242188 209.707031 117.800781 211.445312 C 117.023438 211.652344 116.257812 211.882812 115.515625 212.136719 C 115.792969 214.511719 116.171875 216.882812 116.609375 219.230469 L 170.175781 217.175781 C 173.789062 217.027344 177.410156 216.882812 181.035156 216.710938 C 187.152344 216.40625 193.582031 216.019531 200.136719 215.289062 Z M 203.054688 174.421875 C 201.265625 174.457031 199.453125 174.46875 197.65625 174.519531 C 198.433594 175.429688 198.980469 176.625 198.847656 177.984375 C 198.6875 179.457031 197.726562 180.867188 196.246094 181.730469 C 195.003906 182.472656 193.617188 182.765625 192.414062 182.960938 C 190.371094 183.324219 188.476562 183.496094 186.710938 183.496094 C 184.039062 183.496094 181.679688 183.105469 179.539062 182.289062 C 178.3125 181.828125 177.339844 180.941406 176.925781 179.90625 C 176.5625 179.042969 176.597656 178.117188 177.023438 177.242188 C 177.21875 176.792969 177.546875 176.378906 177.921875 175.992188 L 116.789062 178.191406 C 116.742188 178.191406 116.695312 178.191406 116.644531 178.191406 C 114.699219 188.53125 114.261719 199.210938 115.296875 209.753906 C 115.914062 209.546875 116.523438 209.328125 117.179688 209.148438 C 125.375 206.945312 133.984375 207.019531 142.324219 207.078125 L 143.125 207.101562 C 161.898438 207.273438 180.816406 206.945312 199.699219 206.214844 C 199.574219 202.433594 199.589844 198.636719 199.769531 194.84375 C 200.160156 187.300781 201.253906 180.550781 203.054688 174.421875 Z M 200.742188 223.886719 C 200.585938 221.820312 200.425781 219.753906 200.28125 217.671875 C 193.714844 218.390625 187.296875 218.78125 181.144531 219.082031 C 177.535156 219.253906 173.898438 219.398438 170.273438 219.535156 L 117.082031 221.589844 C 117.277344 222.429688 117.421875 223.292969 117.605469 224.144531 C 117.640625 224.3125 117.640625 224.460938 117.628906 224.628906 C 123.832031 224.496094 130.042969 224.289062 136.195312 224.023438 C 149.011719 223.449219 161.75 223.621094 174.066406 223.789062 C 180.148438 223.863281 186.457031 223.984375 192.71875 223.960938 C 195.394531 223.960938 198.070312 223.925781 200.742188 223.886719 Z M 199.234375 160.289062 C 201.496094 152.941406 203.710938 145.449219 205.8125 137.992188 C 198.410156 138.1875 190.992188 138.722656 183.699219 139.964844 C 170.214844 142.261719 157.449219 147.808594 146.519531 155.996094 C 146.941406 156.128906 147.40625 156.226562 147.792969 156.394531 C 150.492188 157.550781 150.191406 160.359375 150.019531 162.050781 C 149.984375 162.28125 149.96875 162.503906 149.957031 162.722656 C 149.875 163.792969 149.714844 164.753906 149.496094 165.640625 C 154.371094 165.617188 159.246094 165.617188 164.097656 165.566406 C 172.839844 165.519531 181.703125 165.382812 190.480469 165.214844 C 191.84375 165.203125 193.191406 165.179688 194.542969 165.164062 C 195.527344 165.164062 196.523438 165.140625 197.519531 165.128906 C 198.214844 163.546875 198.726562 161.894531 199.234375 160.289062 Z M 203.78125 172.050781 C 203.917969 171.648438 204.074219 171.257812 204.207031 170.871094 C 201.328125 170.929688 198.457031 171.015625 195.601562 171.175781 C 194.238281 171.234375 192.890625 171.285156 191.539062 171.34375 C 191.792969 171.367188 192.0625 171.394531 192.316406 171.429688 C 193.191406 171.5625 193.984375 171.953125 194.738281 172.378906 C 194.90625 172.269531 195.101562 172.183594 195.308594 172.183594 C 198.128906 172.121094 200.960938 172.085938 203.78125 172.050781 Z M 205.097656 168.484375 C 205.328125 167.925781 205.558594 167.378906 205.800781 166.832031 L 205.507812 166.917969 C 204.988281 167.085938 204.4375 167.246094 203.78125 167.292969 C 200.707031 167.476562 197.59375 167.511719 194.566406 167.539062 C 193.230469 167.550781 191.867188 167.5625 190.542969 167.585938 C 181.753906 167.757812 172.863281 167.890625 164.109375 167.9375 C 158.96875 167.988281 153.8125 168 148.644531 168 C 148.632812 168.035156 148.621094 168.097656 148.597656 168.121094 C 148.316406 168.71875 147.820312 169.554688 146.917969 170.066406 C 146.917969 170.066406 146.90625 170.066406 146.894531 170.089844 C 163.113281 170.007812 179.371094 169.59375 195.480469 168.800781 C 198.675781 168.644531 201.886719 168.546875 205.097656 168.484375 Z M 212.21875 138.335938 C 212.292969 138.1875 212.34375 138.054688 212.414062 137.921875 C 211.042969 137.921875 209.667969 137.933594 208.304688 137.945312 C 206.140625 145.644531 203.832031 153.402344 201.496094 160.980469 C 201.097656 162.269531 200.65625 163.667969 200.109375 165.054688 C 201.277344 165.03125 202.46875 164.996094 203.636719 164.921875 C 204.027344 164.886719 204.390625 164.789062 204.828125 164.65625 L 205.253906 164.53125 C 205.8125 164.363281 206.382812 164.328125 206.933594 164.3125 C 206.945312 164.191406 206.980469 164.082031 206.992188 163.972656 C 207.210938 163.050781 207.441406 162.101562 207.550781 161.210938 C 208.535156 153.976562 209.933594 146.738281 211.734375 139.671875 C 211.820312 139.34375 212.027344 138.832031 212.21875 138.335938 Z M 217.179688 149.609375 C 217.535156 145.753906 217.304688 141.8125 217.035156 137.945312 C 216.304688 137.945312 215.589844 137.933594 214.871094 137.933594 C 214.871094 137.992188 214.871094 138.054688 214.847656 138.117188 C 214.761719 138.40625 214.589844 138.832031 214.410156 139.246094 C 214.25 139.625 214.09375 140 214.019531 140.257812 C 212.257812 147.226562 210.871094 154.378906 209.910156 161.542969 C 209.789062 162.453125 209.570312 163.367188 209.363281 164.265625 L 210.421875 164.265625 C 211.832031 164.230469 213.242188 164.191406 214.664062 164.191406 L 216.109375 164.179688 C 216.039062 161.1875 216.109375 158.476562 216.390625 155.996094 C 216.488281 155.007812 216.621094 154.023438 216.753906 153.0625 C 216.925781 151.90625 217.082031 150.765625 217.179688 149.609375 Z M 202.480469 215.019531 C 213.765625 213.671875 225.316406 211.261719 236.207031 206.605469 C 224.890625 207.40625 213.535156 208.027344 202.140625 208.503906 C 202.226562 210.691406 202.347656 212.855469 202.480469 215.019531 Z M 257.363281 169.59375 C 257.484375 169.496094 257.605469 169.421875 257.753906 169.324219 C 248.050781 169.398438 238.3125 169.53125 228.644531 169.789062 C 225.726562 169.871094 222.785156 169.945312 219.855469 170.042969 C 219.441406 170.054688 219.042969 170.054688 218.617188 170.054688 C 217.691406 170.042969 216.742188 170.042969 215.929688 170.199219 L 215.417969 170.324219 C 214.589844 170.503906 213.8125 170.699219 212.804688 170.710938 L 211.34375 170.722656 C 209.835938 170.761719 208.28125 170.796875 206.75 170.820312 C 206.605469 171.210938 206.457031 171.613281 206.324219 172 C 222.664062 171.757812 239.125 171.792969 255.394531 172.136719 C 255.441406 172.050781 255.492188 171.988281 255.566406 171.917969 C 255.976562 170.980469 256.648438 170.175781 257.363281 169.59375 Z M 272.683594 133.613281 C 272.902344 132.519531 272.5625 131.28125 271.820312 130.441406 C 271.066406 129.601562 269.742188 129.078125 268.769531 129.25 C 266.117188 129.675781 263.894531 130.792969 262.25 132.433594 C 263.078125 132.65625 263.90625 132.875 264.757812 133.054688 C 267.480469 133.699219 270.203125 134.417969 272.890625 135.195312 C 272.671875 134.722656 272.5625 134.175781 272.683594 133.613281 Z M 258.847656 171.441406 C 263.503906 171.175781 268.171875 171.039062 272.804688 171.050781 C 272.414062 170.566406 271.882812 170.140625 271.210938 169.871094 C 270.128906 169.445312 268.914062 169.335938 267.710938 169.335938 C 267.429688 169.335938 267.152344 169.363281 266.871094 169.363281 C 263.953125 169.421875 260.988281 169.726562 258.847656 171.441406 Z M 273.144531 173.425781 C 272.707031 173.425781 272.28125 173.425781 271.84375 173.425781 C 267.101562 173.425781 262.347656 173.59375 257.632812 173.875 C 257.8125 174.507812 258.507812 174.980469 259.066406 175.285156 C 260.523438 176.0625 262.335938 176.453125 264.28125 176.402344 C 265.921875 176.367188 267.675781 176.027344 269.828125 175.371094 C 270.957031 175.03125 271.855469 174.675781 272.550781 174.09375 C 272.804688 173.875 272.988281 173.65625 273.144531 173.425781 Z M 280.730469 171.929688 C 281.316406 171.050781 281.875 170.199219 282.410156 169.335938 C 279.757812 169.324219 277.109375 169.289062 274.433594 169.289062 C 275.113281 170.042969 275.578125 170.917969 275.734375 171.84375 C 275.992188 173.375 275.394531 174.8125 274.070312 175.90625 C 273.023438 176.792969 271.757812 177.269531 270.519531 177.632812 C 268.171875 178.363281 266.203125 178.714844 264.332031 178.765625 C 264.210938 178.765625 264.101562 178.765625 263.976562 178.765625 C 261.742188 178.765625 259.675781 178.277344 257.949219 177.363281 C 256.5625 176.625 255.699219 175.675781 255.371094 174.554688 C 255.371094 174.542969 255.371094 174.519531 255.347656 174.507812 C 238.835938 174.167969 222.140625 174.128906 205.546875 174.386719 C 203.660156 180.515625 202.53125 187.3125 202.140625 194.964844 C 201.960938 198.675781 201.933594 202.394531 202.042969 206.117188 C 215.539062 205.570312 229.023438 204.792969 242.421875 203.78125 C 242.980469 203.746094 243.503906 204.097656 243.660156 204.644531 C 243.808594 205.179688 243.550781 205.765625 243.042969 206.019531 C 230.179688 212.648438 216.195312 215.761719 202.640625 217.394531 C 202.785156 219.558594 202.957031 221.699219 203.125 223.851562 C 209.496094 223.753906 215.890625 223.597656 222.140625 223.425781 C 228.003906 223.28125 233.863281 223.121094 239.710938 223.023438 C 244.160156 222.953125 247.878906 219.523438 251.03125 216.324219 C 253.921875 213.378906 256.476562 209.546875 258.847656 204.621094 C 262.542969 196.910156 267.785156 189.855469 272.828125 183.019531 C 275.492188 179.410156 278.277344 175.6875 280.730469 171.929688 Z M 284.5 166.003906 C 278.628906 166.003906 272.769531 166.003906 266.921875 165.992188 C 266.019531 165.980469 265.15625 165.957031 264.28125 165.917969 C 263.152344 165.882812 261.996094 165.871094 260.839844 165.871094 L 214.699219 166.5625 C 213.253906 166.5625 211.855469 166.601562 210.445312 166.636719 L 208.453125 166.648438 C 208.195312 167.246094 207.941406 167.839844 207.699219 168.425781 C 208.890625 168.414062 210.128906 168.375 211.308594 168.363281 L 212.769531 168.339844 C 213.535156 168.328125 214.140625 168.195312 214.894531 168 L 215.417969 167.902344 C 216.488281 167.671875 217.59375 167.671875 218.617188 167.683594 C 219.027344 167.683594 219.417969 167.683594 219.78125 167.671875 C 222.714844 167.585938 225.65625 167.5 228.585938 167.414062 C 240.292969 167.113281 252.148438 166.941406 263.820312 166.90625 C 270.433594 166.894531 277.132812 166.917969 283.773438 166.988281 C 283.964844 166.648438 284.234375 166.332031 284.5 166.003906 Z M 295.832031 159.046875 C 295.066406 157.734375 294.375 156.410156 293.777344 155.09375 C 292.160156 154.0625 289.828125 152.710938 287.382812 151.871094 C 285.851562 151.347656 284.378906 150.632812 282.957031 149.925781 C 282.058594 149.488281 281.15625 149.050781 280.246094 148.660156 C 272.839844 145.535156 265.292969 143.078125 257.8125 141.363281 C 250.105469 139.625 242.238281 138.613281 234.457031 138.382812 L 230.6875 138.273438 C 226.945312 138.175781 223.1875 138.054688 219.394531 137.980469 C 219.6875 141.863281 219.929688 145.851562 219.550781 149.816406 C 219.429688 151.019531 219.273438 152.199219 219.113281 153.378906 C 218.980469 154.328125 218.835938 155.277344 218.738281 156.25 C 218.480469 158.632812 218.421875 161.238281 218.480469 164.144531 L 260.816406 163.5 C 262.007812 163.488281 263.175781 163.523438 264.34375 163.546875 C 265.207031 163.585938 266.058594 163.609375 266.921875 163.621094 C 275.429688 163.65625 283.953125 163.609375 292.464844 163.667969 C 293.511719 162.050781 294.554688 160.496094 295.832031 159.046875 Z M 314.117188 198.855469 C 315.820312 198.382812 317.570312 197.933594 319.261719 197.507812 C 316.585938 193.578125 312.269531 190.429688 307.007812 188.601562 C 302.566406 187.058594 297.472656 186.351562 291.003906 186.414062 C 285.511719 186.449219 281.230469 187.046875 277.558594 188.273438 C 274.324219 189.34375 269.863281 191.511719 266.882812 195.742188 C 266.761719 195.914062 266.617188 196.011719 266.445312 196.097656 C 264.429688 199.199219 262.554688 202.371094 260.988281 205.644531 C 258.507812 210.824219 255.808594 214.851562 252.71875 217.976562 C 249.253906 221.515625 245.097656 225.3125 239.746094 225.394531 C 233.910156 225.492188 228.0625 225.652344 222.203125 225.796875 C 212.550781 226.054688 202.542969 226.308594 192.71875 226.320312 C 186.398438 226.320312 180.121094 226.234375 174.03125 226.148438 C 161.75 225.980469 149.035156 225.808594 136.316406 226.394531 C 124.023438 226.953125 111.613281 227.21875 99.234375 227.21875 C 96.789062 227.21875 94.335938 227.207031 91.878906 227.183594 C 91.734375 227.78125 91.585938 228.386719 91.40625 228.996094 C 91.171875 229.761719 90.917969 230.503906 90.625 231.246094 C 112.777344 231.5 135.136719 231.648438 157.191406 231.671875 C 180.535156 231.683594 204.246094 231.585938 227.550781 231.355469 C 234.347656 231.257812 241.167969 231.199219 247.976562 231.101562 C 248.902344 231.078125 249.824219 231.0625 250.761719 231.027344 C 253.070312 230.964844 255.480469 230.894531 257.886719 231.039062 C 259.199219 231.148438 259.832031 230.796875 261.472656 228.996094 C 261.21875 228.179688 260.988281 227.390625 260.816406 226.589844 L 260.621094 225.738281 C 260.367188 224.542969 260.113281 223.328125 259.964844 222.085938 C 259.722656 220.09375 260.113281 218.183594 260.453125 216.492188 C 260.574219 215.847656 260.707031 215.238281 260.78125 214.644531 C 261.035156 212.613281 261.558594 210.617188 262.335938 208.707031 C 262.992188 207.101562 263.820312 205.179688 265 203.320312 C 267.441406 199.488281 270.738281 196.144531 274.542969 193.699219 C 284.441406 187.3125 297.863281 187.179688 307.894531 193.359375 C 310.324219 194.867188 312.292969 196.824219 314.117188 198.855469 Z M 316.597656 227.535156 C 317.414062 224.847656 317.765625 222.367188 317.679688 220.128906 C 317.679688 220.117188 317.679688 220.117188 317.679688 220.117188 C 317.632812 218.609375 317.488281 217.246094 317.195312 215.980469 C 317.097656 215.507812 316.902344 214.984375 316.707031 214.414062 C 316.417969 213.597656 316.089844 212.660156 315.941406 211.652344 C 315.855469 211.105469 315.84375 210.617188 315.820312 210.132812 C 315.808594 209.546875 315.796875 209.242188 315.675781 208.964844 C 315.335938 208.078125 314.640625 207.285156 313.851562 206.347656 L 313.679688 206.15625 C 313.253906 205.65625 312.84375 205.167969 312.429688 204.683594 C 310.144531 201.957031 307.980469 199.378906 305.21875 197.6875 C 301.15625 195.183594 296.332031 193.929688 291.503906 193.929688 C 286.472656 193.929688 281.449219 195.28125 277.292969 197.957031 C 274.105469 200.023438 271.332031 202.820312 269.277344 206.046875 C 268.320312 207.578125 267.613281 209.21875 267.042969 210.628906 C 266.410156 212.125 266.007812 213.695312 265.8125 215.277344 C 265.714844 215.96875 265.582031 216.710938 265.425781 217.492188 C 265.15625 218.875 264.878906 220.300781 265 221.480469 C 265.121094 222.476562 265.363281 223.597656 265.59375 224.667969 L 265.777344 225.566406 C 266.410156 228.59375 267.953125 232.011719 269.984375 234.933594 C 273.277344 239.710938 278.070312 243.277344 283.445312 245.003906 C 287.066406 246.171875 291.261719 246.5 295.554688 245.9375 C 299.808594 245.390625 304.148438 243.46875 307.84375 240.527344 C 311.992188 237.207031 315.101562 232.597656 316.597656 227.535156 Z M 326.484375 156.835938 C 325.667969 156.53125 324.855469 156.226562 324.050781 155.921875 C 315.601562 152.757812 307.210938 149.425781 299.117188 146.191406 C 294.421875 144.332031 289.621094 142.421875 284.78125 140.535156 C 285.425781 140.863281 286.070312 141.191406 286.691406 141.53125 C 289.132812 142.824219 291.664062 144.160156 294.191406 145.242188 C 304.027344 149.523438 314.214844 153.9375 324.515625 157.480469 C 325.035156 157.660156 325.816406 157.34375 326.484375 156.835938 Z M 337.851562 190.550781 C 340.441406 188.796875 343.859375 185.792969 345.597656 181.355469 C 341.632812 179.175781 338.335938 175.976562 335.382812 172.816406 C 335.359375 172.78125 335.335938 172.742188 335.296875 172.707031 C 331.964844 172.730469 328.636719 172.742188 325.28125 172.765625 C 315.542969 172.816406 305.789062 172.863281 296.0625 172.925781 C 293.765625 172.925781 291.601562 173.011719 289.449219 173.097656 C 287.285156 173.179688 285.046875 173.253906 282.703125 173.265625 C 280.195312 177.0625 277.425781 180.796875 274.726562 184.445312 C 273.828125 185.671875 272.890625 186.914062 271.976562 188.179688 C 273.679688 187.21875 275.359375 186.5 276.816406 186.023438 C 280.71875 184.722656 285.242188 184.101562 290.992188 184.054688 C 297.8125 183.992188 303.089844 184.722656 307.785156 186.367188 C 313.691406 188.410156 318.570312 192.035156 321.5 196.558594 C 321.558594 196.65625 321.597656 196.777344 321.632812 196.898438 C 323.152344 196.507812 324.683594 196.121094 326.179688 195.671875 C 331.117188 194.222656 334.824219 192.59375 337.851562 190.550781 Z M 354.542969 196.617188 C 355.03125 195.0625 355.613281 193.335938 356.613281 191.886719 C 354.289062 189.601562 352.878906 186.609375 351.601562 183.933594 C 351.554688 183.8125 351.554688 183.714844 351.53125 183.59375 C 350.265625 183.335938 348.988281 182.9375 347.722656 182.386719 C 345.753906 187.277344 342.007812 190.597656 339.164062 192.507812 C 335.941406 194.695312 332.015625 196.425781 326.847656 197.945312 C 324.683594 198.589844 322.496094 199.125 320.355469 199.671875 C 318.871094 200.035156 317.351562 200.425781 315.820312 200.851562 C 315.992188 201.046875 316.148438 201.230469 316.320312 201.410156 C 316.71875 201.886719 317.121094 202.359375 317.535156 202.847656 L 317.707031 203.039062 C 318.664062 204.171875 319.746094 205.4375 320.40625 207.128906 C 320.828125 208.234375 320.867188 209.195312 320.902344 209.972656 C 320.902344 210.265625 320.902344 210.570312 320.953125 210.886719 C 321.035156 211.433594 321.253906 212.054688 321.5 212.734375 C 321.730469 213.414062 321.984375 214.121094 322.15625 214.898438 C 322.496094 216.457031 322.691406 218.109375 322.761719 219.945312 C 322.773438 220.226562 322.761719 220.53125 322.761719 220.824219 C 329.863281 220.140625 336.941406 218.792969 343.785156 216.785156 C 345.207031 216.359375 346.554688 215.910156 347.566406 215.070312 C 348.914062 213.9375 349.558594 212.136719 350.289062 209.925781 Z M 354.105469 162.503906 C 354.921875 162.027344 355.75 161.554688 356.585938 161.101562 C 355.503906 160.75 354.410156 160.507812 353.363281 160.386719 C 351.066406 160.117188 348.707031 160.167969 346.226562 160.214844 C 343.820312 160.25 341.339844 160.300781 338.835938 160.046875 C 335.394531 159.691406 332.136719 158.804688 328.964844 157.710938 C 328.015625 158.816406 326.433594 159.898438 324.84375 159.898438 C 324.464844 159.898438 324.113281 159.851562 323.761719 159.714844 C 313.351562 156.152344 303.140625 151.726562 293.242188 147.421875 C 290.628906 146.289062 288.0625 144.9375 285.570312 143.625 C 283.140625 142.335938 280.609375 140.996094 278.082031 139.890625 C 277.730469 139.746094 277.496094 139.417969 277.425781 139.050781 C 273.074219 137.664062 268.648438 136.414062 264.210938 135.378906 C 262.871094 135.050781 261.558594 134.722656 260.257812 134.355469 C 258.726562 133.957031 257.21875 133.566406 255.734375 133.226562 C 249.386719 132.96875 243.015625 132.777344 236.707031 132.703125 C 225.144531 132.570312 213.425781 132.738281 201.863281 133.25 C 191.089844 133.699219 181.398438 134.273438 171.757812 136.777344 C 169.289062 137.421875 166.808594 138.175781 164.328125 139.015625 C 164.488281 139.367188 164.621094 139.734375 164.753906 140.085938 L 164.875 140.390625 C 165.09375 140.996094 164.792969 141.679688 164.195312 141.910156 C 154.214844 145.839844 144.875 150.691406 136.269531 156.410156 C 136.839844 156.1875 137.460938 155.996094 138.117188 155.835938 C 139.855469 155.433594 141.640625 155.3125 143.34375 155.410156 C 154.941406 146.253906 168.730469 140.121094 183.296875 137.628906 C 199.027344 134.953125 215.152344 135.425781 230.75 135.902344 L 234.519531 136.023438 C 242.457031 136.253906 250.46875 137.277344 258.335938 139.0625 C 265.949219 140.792969 273.632812 143.296875 281.183594 146.484375 C 282.128906 146.886719 283.054688 147.347656 284.003906 147.796875 C 285.363281 148.476562 286.761719 149.148438 288.148438 149.621094 C 290.992188 150.59375 293.609375 152.1875 295.359375 153.28125 C 295.539062 153.402344 295.710938 153.585938 295.796875 153.804688 C 296.488281 155.398438 297.339844 157.003906 298.3125 158.585938 C 298.605469 159.035156 298.53125 159.632812 298.167969 160.019531 C 296.609375 161.636719 295.359375 163.535156 294.105469 165.492188 C 293.886719 165.835938 293.425781 166.078125 293.085938 166.042969 C 291.296875 166.027344 289.484375 166.027344 287.699219 166.027344 C 287.675781 166.027344 287.675781 166.042969 287.675781 166.042969 C 287.382812 166.296875 287.101562 166.589844 286.835938 166.894531 C 286.8125 166.917969 286.8125 166.953125 286.800781 166.988281 C 285.984375 168.167969 285.242188 169.335938 284.476562 170.53125 C 284.402344 170.652344 284.332031 170.761719 284.257812 170.882812 C 285.996094 170.847656 287.710938 170.796875 289.363281 170.722656 C 291.554688 170.652344 293.730469 170.566406 296.050781 170.566406 C 305.777344 170.492188 315.515625 170.445312 325.28125 170.394531 C 328.515625 170.371094 331.746094 170.359375 334.96875 170.335938 C 335.261719 169.921875 335.652344 169.664062 335.820312 169.554688 C 338.363281 168.035156 341.207031 167.304688 343.953125 166.636719 C 345.898438 166.140625 347.722656 165.664062 349.472656 164.957031 C 351.066406 164.277344 352.539062 163.414062 354.105469 162.503906 Z M 359.042969 181.015625 C 358.980469 180.429688 358.945312 179.835938 358.921875 179.238281 L 356.441406 178.875 C 352.902344 178.351562 350.898438 174.554688 350.179688 172.949219 C 350.132812 172.839844 350.132812 172.742188 350.117188 172.621094 C 346.265625 172.65625 342.410156 172.671875 338.554688 172.695312 C 341.230469 175.429688 344.171875 178.058594 347.613281 179.773438 C 351.480469 181.683594 355.652344 182.109375 359.042969 181.015625 Z M 359.421875 211.785156 L 358.652344 210.53125 C 358.226562 209.828125 357.777344 209.074219 357.183594 208.660156 C 357.097656 208.613281 357.035156 208.539062 356.964844 208.464844 C 355.53125 211.261719 354.335938 214.085938 353.632812 217.050781 C 354.980469 216.359375 356.199219 215.363281 357.160156 214.15625 L 357.476562 213.71875 C 357.996094 213.039062 358.59375 212.296875 359.421875 211.785156 Z M 359.84375 172.609375 C 358.046875 172.65625 356.234375 172.671875 354.460938 172.609375 C 353.851562 172.609375 353.242188 172.609375 352.648438 172.621094 C 353.316406 173.933594 354.75 176.234375 356.78125 176.511719 L 359.03125 176.855469 C 359.066406 176.550781 359.078125 176.269531 359.117188 175.953125 C 359.285156 174.8125 359.542969 173.691406 359.84375 172.609375 Z M 360.597656 170.199219 C 361.230469 168.5 361.9375 166.855469 362.628906 165.300781 C 361.886719 164.082031 360.757812 163.097656 359.46875 162.355469 C 358.070312 162.976562 356.707031 163.742188 355.285156 164.558594 C 353.730469 165.46875 352.113281 166.417969 350.386719 167.148438 C 348.476562 167.9375 346.472656 168.425781 344.527344 168.925781 C 342.871094 169.335938 341.28125 169.761719 339.796875 170.324219 C 344.683594 170.285156 349.585938 170.273438 354.496094 170.238281 C 356.539062 170.308594 358.570312 170.273438 360.597656 170.199219 Z M 361.960938 204.269531 C 361.804688 204 361.644531 203.734375 361.546875 203.441406 C 361.449219 203.136719 361.378906 202.835938 361.316406 202.519531 C 361.257812 202.273438 361.230469 202.042969 361.121094 201.824219 C 361.074219 201.667969 360.988281 201.582031 360.941406 201.53125 C 360.941406 201.59375 360.792969 201.738281 360.550781 202.140625 C 359.90625 203.222656 359.25 204.316406 358.640625 205.402344 C 358.957031 205.304688 359.296875 205.21875 359.640625 205.121094 C 359.929688 205.046875 360.210938 204.960938 360.503906 204.878906 C 361.097656 204.707031 361.570312 204.511719 361.960938 204.269531 Z M 366.519531 194.148438 C 367.296875 194.355469 368.125 194.5625 368.976562 194.695312 C 368.210938 193.84375 367.214844 193.105469 366.167969 192.300781 C 364.902344 191.375 363.578125 190.390625 362.449219 189.089844 C 361.0625 187.519531 360.0625 185.550781 359.492188 183.375 C 358.09375 183.773438 356.625 183.992188 355.117188 183.992188 C 354.835938 183.992188 354.53125 183.96875 354.242188 183.945312 C 355.445312 186.449219 356.84375 189.089844 358.996094 190.855469 C 361.074219 192.582031 363.84375 193.457031 366.519531 194.148438 Z M 367.808594 211.007812 L 368.160156 206.945312 C 367.421875 206.992188 366.679688 206.980469 365.914062 206.847656 C 365.085938 206.691406 364.320312 206.386719 363.664062 205.984375 C 362.835938 206.605469 361.886719 206.945312 361.183594 207.152344 C 360.867188 207.25 360.550781 207.335938 360.246094 207.417969 C 359.992188 207.492188 359.761719 207.542969 359.515625 207.625 C 360.015625 208.1875 360.367188 208.769531 360.683594 209.292969 L 361.828125 211.164062 C 362.117188 211.164062 362.449219 211.164062 362.738281 211.179688 C 364.476562 211.261719 366.167969 211.191406 367.808594 211.007812 Z M 368.367188 204.5625 L 369.023438 197.082031 C 367.941406 196.945312 366.910156 196.703125 365.925781 196.449219 C 363.359375 195.78125 360.707031 194.953125 358.433594 193.40625 C 357.707031 194.539062 357.253906 195.949219 356.816406 197.335938 L 352.539062 210.65625 C 351.871094 212.6875 351.066406 215.203125 349.085938 216.882812 C 347.75 218.011719 346.144531 218.5625 344.464844 219.046875 C 337.339844 221.140625 329.996094 222.550781 322.628906 223.230469 C 322.519531 224.253906 322.375 225.3125 322.128906 226.371094 C 336.71875 225.796875 351.859375 222.953125 367.203125 217.878906 L 367.601562 213.414062 C 365.996094 213.5625 364.367188 213.632812 362.761719 213.550781 C 361.960938 213.511719 361.328125 213.476562 360.855469 213.683594 C 360.320312 213.902344 359.859375 214.511719 359.371094 215.15625 L 359.007812 215.628906 C 357.707031 217.269531 356.003906 218.609375 354.09375 219.472656 C 353.667969 219.65625 353.269531 219.742188 352.890625 219.742188 C 352.210938 219.742188 351.652344 219.449219 351.335938 218.914062 C 350.945312 218.28125 351.078125 217.613281 351.140625 217.332031 C 352.378906 211.433594 355.347656 206.203125 358.53125 200.925781 C 358.824219 200.449219 359.589844 199.171875 360.953125 199.160156 C 360.976562 199.160156 360.976562 199.160156 360.988281 199.160156 C 361.984375 199.160156 362.898438 199.855469 363.324219 200.9375 C 363.480469 201.289062 363.566406 201.667969 363.640625 202.042969 C 363.675781 202.238281 363.710938 202.457031 363.796875 202.664062 C 364.101562 203.5625 365.097656 204.292969 366.339844 204.511719 C 366.996094 204.621094 367.675781 204.621094 368.367188 204.5625 Z M 373.960938 192.886719 C 374.277344 193.359375 374.386719 193.894531 374.351562 194.453125 L 374.253906 195.511719 C 374.289062 195.707031 374.277344 195.902344 374.203125 196.082031 L 372.125 219.960938 C 372.039062 220.96875 371.359375 221.820312 370.410156 222.136719 C 353.449219 227.925781 336.683594 231.101562 320.574219 231.539062 C 318.582031 236.5625 315.25 241.097656 311.007812 244.503906 C 306.605469 248.019531 301.339844 250.316406 296.199219 250.988281 C 294.628906 251.179688 293.058594 251.277344 291.515625 251.277344 C 288.125 251.277344 284.867188 250.792969 281.898438 249.84375 C 275.457031 247.765625 269.742188 243.519531 265.800781 237.828125 C 264.976562 236.632812 264.222656 235.34375 263.566406 234.042969 C 262.03125 235.382812 260.234375 236.304688 257.535156 236.125 C 255.382812 235.964844 253.21875 236.039062 250.921875 236.097656 C 249.949219 236.136719 248.988281 236.160156 248.039062 236.171875 C 241.21875 236.269531 234.421875 236.34375 227.613281 236.429688 C 206.214844 236.648438 184.511719 236.746094 163.027344 236.746094 C 161.082031 236.746094 159.125 236.746094 157.179688 236.746094 C 134.285156 236.730469 111.0625 236.574219 88.121094 236.292969 C 86.214844 239.40625 83.792969 242.21875 80.949219 244.503906 C 76.535156 248.019531 71.292969 250.316406 66.152344 250.988281 C 64.558594 251.179688 62.992188 251.277344 61.445312 251.277344 C 58.066406 251.277344 54.796875 250.792969 51.839844 249.84375 C 45.386719 247.777344 39.671875 243.519531 35.746094 237.828125 C 35.269531 237.167969 34.867188 236.476562 34.457031 235.785156 C 22.175781 234.859375 10.90625 230.652344 2.40625 227.085938 C 1.703125 226.78125 1.152344 226.175781 0.949219 225.421875 C 0.742188 224.667969 0.898438 223.863281 1.359375 223.242188 L 4.921875 218.4375 C 3.660156 214.863281 2.878906 211.140625 2.589844 207.335938 C 2.480469 205.59375 2.417969 203.515625 3.113281 201.496094 C 3.839844 199.367188 5.203125 197.152344 6.855469 195.339844 C 6.539062 193.542969 6.113281 191.730469 5.59375 189.988281 C 5.3125 189.113281 5.554688 188.164062 6.175781 187.496094 C 12.402344 180.953125 21.375 175.929688 33.582031 172.136719 C 60.753906 163.742188 88.9375 159.777344 117.339844 160.433594 C 126.128906 153.355469 134.3125 147.734375 142.285156 143.296875 C 151.527344 138.152344 161.023438 134.308594 170.492188 131.851562 C 180.609375 129.25 190.578125 128.640625 201.644531 128.167969 C 213.289062 127.65625 225.121094 127.484375 236.769531 127.632812 C 244.195312 127.714844 251.746094 127.933594 259.199219 128.289062 C 261.535156 126.183594 264.539062 124.796875 267.929688 124.238281 C 270.640625 123.800781 273.65625 124.90625 275.578125 127.035156 C 276.902344 128.507812 277.691406 130.441406 277.8125 132.398438 C 285.667969 135.378906 293.449219 138.46875 300.988281 141.472656 C 309.074219 144.683594 317.4375 148.015625 325.816406 151.167969 C 330.214844 152.820312 334.75 154.535156 339.359375 155.007812 C 341.535156 155.230469 343.75 155.179688 346.117188 155.144531 C 348.660156 155.082031 351.296875 155.023438 353.972656 155.351562 C 360.660156 156.140625 365.816406 159.472656 367.796875 164.300781 C 368.066406 164.945312 368.050781 165.6875 367.761719 166.308594 C 366.242188 169.628906 364.660156 173.058594 364.136719 176.683594 C 363.613281 180.308594 364.394531 183.628906 366.253906 185.746094 C 367.042969 186.632812 368.078125 187.410156 369.195312 188.25 C 370.835938 189.46875 372.695312 190.855469 373.960938 192.886719 " fill-opacity="1" fill-rule="nonzero"/></g><path fill="#000000" d="M 278.59375 224.15625 C 278.03125 222.0625 278.15625 219.875 278.433594 217.855469 C 276.402344 217.078125 274.628906 216.164062 273.058594 215.117188 C 273.011719 215.410156 272.9375 215.726562 272.890625 216.140625 C 272.78125 216.710938 272.683594 217.320312 272.5625 217.929688 L 272.390625 218.875 C 272.28125 219.484375 272.148438 220.09375 272.101562 220.519531 C 272.074219 220.652344 272.074219 220.773438 272.101562 220.90625 C 272.195312 221.550781 272.367188 222.332031 272.539062 223.144531 L 272.730469 224.105469 C 272.890625 224.800781 273.121094 225.566406 273.414062 226.308594 C 275.089844 225.394531 276.867188 224.75 278.59375 224.15625 Z M 282.289062 229.554688 C 281.109375 228.632812 280.183594 227.535156 279.503906 226.355469 C 277.765625 226.953125 275.964844 227.574219 274.398438 228.484375 C 274.824219 229.300781 275.273438 230.117188 275.820312 230.894531 C 276.550781 231.964844 277.386719 232.925781 278.324219 233.824219 C 279.664062 232.597656 280.976562 231.199219 282.289062 229.554688 Z M 280.222656 211.054688 C 280.550781 210.484375 280.964844 209.996094 281.402344 209.535156 C 280.464844 208.320312 279.492188 207.152344 278.386719 206.128906 C 277.207031 207.238281 276.160156 208.488281 275.285156 209.839844 C 274.785156 210.667969 274.324219 211.617188 273.828125 212.785156 C 275.273438 213.816406 276.9375 214.71875 278.847656 215.496094 C 278.859375 215.445312 278.859375 215.386719 278.882812 215.335938 C 279.128906 213.964844 279.417969 212.429688 280.222656 211.054688 Z M 283.722656 227.644531 C 284.003906 227.074219 283.882812 226.480469 283.601562 226.089844 C 283.445312 225.882812 282.871094 225.203125 281.886719 225.542969 L 281.789062 225.578125 C 282.3125 226.40625 282.992188 227.085938 283.722656 227.644531 Z M 284.988281 216.371094 C 285.292969 215.945312 285.4375 215.277344 284.988281 214.632812 L 283.128906 211.945312 C 283.03125 211.785156 282.910156 211.628906 282.800781 211.480469 C 282.605469 211.738281 282.410156 211.992188 282.265625 212.25 C 281.667969 213.257812 281.4375 214.546875 281.195312 215.773438 C 281.15625 215.945312 281.144531 216.117188 281.109375 216.285156 C 281.144531 216.296875 281.183594 216.324219 281.21875 216.335938 C 281.9375 216.554688 282.675781 216.785156 283.417969 216.96875 C 284.332031 217.199219 284.855469 216.578125 284.988281 216.371094 Z M 290.277344 239.03125 C 290.277344 236.949219 290.046875 234.859375 289.777344 232.792969 C 288.902344 232.621094 288.050781 232.402344 287.164062 232.109375 C 286.140625 231.757812 285.167969 231.332031 284.292969 230.855469 C 282.910156 232.597656 281.511719 234.082031 280.113281 235.382812 C 281.789062 236.632812 283.648438 237.609375 285.632812 238.238281 C 287.019531 238.691406 288.609375 238.945312 290.277344 239.03125 Z M 291.867188 201.058594 C 291.734375 201.058594 291.613281 201.023438 291.503906 201.023438 C 287.722656 201.023438 284.039062 202.054688 281.144531 203.929688 C 280.828125 204.136719 280.511719 204.378906 280.222656 204.609375 C 281.316406 205.65625 282.289062 206.800781 283.1875 207.992188 C 283.527344 207.761719 283.867188 207.542969 284.160156 207.371094 C 285.71875 206.421875 287.1875 205.789062 288.671875 205.4375 C 289.460938 205.253906 290.300781 205.121094 291.128906 205.046875 C 291.296875 203.625 291.554688 202.3125 291.867188 201.058594 Z M 295.578125 230.429688 C 295.25 229.871094 294.894531 229.3125 294.582031 228.765625 C 294.117188 227.960938 293.339844 227.902344 292.78125 228.085938 C 292.222656 228.265625 291.664062 228.777344 291.773438 229.652344 C 291.796875 230.019531 291.855469 230.347656 291.894531 230.675781 C 292.5625 230.734375 293.21875 230.761719 293.863281 230.710938 C 294.457031 230.652344 295.03125 230.578125 295.578125 230.429688 Z M 295.917969 212.359375 C 296.914062 211.226562 297.863281 210.046875 298.773438 208.832031 C 297.109375 207.90625 295.238281 207.429688 293.328125 207.371094 C 293.253906 208.625 293.207031 209.9375 293.253906 211.398438 C 293.28125 212.359375 294.03125 212.699219 294.253906 212.785156 C 294.496094 212.867188 295.285156 213.085938 295.917969 212.359375 Z M 299.855469 237.21875 C 299.820312 237.195312 299.785156 237.15625 299.746094 237.121094 C 298.761719 235.613281 297.789062 234.09375 296.828125 232.546875 C 295.941406 232.804688 295.019531 232.984375 294.058594 233.070312 C 293.679688 233.09375 293.328125 233.109375 292.949219 233.109375 C 292.695312 233.109375 292.441406 233.09375 292.183594 233.070312 C 292.441406 235.042969 292.648438 237.035156 292.648438 239.054688 C 293.328125 239.019531 293.984375 238.980469 294.664062 238.886719 C 296.367188 238.664062 298.144531 238.070312 299.855469 237.21875 Z M 302.019531 204.097656 C 301.851562 203.964844 301.667969 203.84375 301.5 203.734375 C 299.394531 202.445312 296.890625 201.582031 294.253906 201.230469 C 293.9375 202.394531 293.691406 203.648438 293.535156 205 C 295.84375 205.121094 298.167969 205.691406 300.171875 206.882812 C 300.816406 205.960938 301.4375 205.046875 302.019531 204.097656 Z M 303.796875 216.722656 C 303.613281 215.203125 303.1875 213.769531 302.472656 212.503906 C 301.984375 211.601562 301.402344 210.835938 300.707031 210.191406 C 299.734375 211.480469 298.738281 212.722656 297.691406 213.914062 C 296.949219 214.777344 295.882812 215.253906 294.800781 215.253906 C 294.335938 215.253906 293.898438 215.167969 293.460938 215.019531 C 291.941406 214.460938 290.921875 213.074219 290.882812 211.46875 C 290.835938 210.023438 290.871094 208.707031 290.945312 207.429688 C 290.363281 207.503906 289.789062 207.601562 289.230469 207.734375 C 287.976562 208.050781 286.726562 208.585938 285.390625 209.390625 C 285.085938 209.574219 284.855469 209.742188 284.597656 209.914062 C 284.746094 210.144531 284.914062 210.363281 285.074219 210.582031 L 286.933594 213.257812 C 287.882812 214.609375 287.882812 216.371094 286.933594 217.722656 C 286.179688 218.792969 285.035156 219.386719 283.808594 219.386719 C 283.480469 219.386719 283.140625 219.351562 282.824219 219.265625 C 282.128906 219.082031 281.414062 218.875 280.730469 218.65625 C 280.511719 220.359375 280.488281 221.941406 280.855469 223.402344 L 281.121094 223.316406 C 282.773438 222.757812 284.5 223.292969 285.511719 224.703125 C 286.445312 225.980469 286.507812 227.597656 285.730469 228.921875 C 286.53125 229.347656 287.308594 229.652344 287.90625 229.859375 C 288.441406 230.03125 288.9375 230.1875 289.449219 230.296875 C 289.449219 230.210938 289.4375 230.128906 289.414062 230.03125 C 289.195312 228.070312 290.265625 226.40625 292.039062 225.835938 C 293.839844 225.238281 295.675781 225.929688 296.621094 227.574219 C 297.035156 228.265625 297.449219 228.949219 297.863281 229.640625 C 298.375 229.386719 298.859375 229.09375 299.296875 228.777344 C 300.464844 227.902344 301.304688 226.792969 301.9375 225.675781 C 301.15625 225.445312 300.367188 225.1875 299.601562 224.898438 C 297.949219 224.3125 296.914062 222.71875 297.011719 220.957031 C 297.109375 219.230469 298.265625 217.855469 299.941406 217.464844 C 301.230469 217.175781 302.507812 216.929688 303.796875 216.722656 Z M 303.140625 223.023438 C 303.566406 221.722656 303.796875 220.398438 303.882812 219.121094 C 302.75 219.300781 301.621094 219.507812 300.5 219.777344 C 299.515625 219.996094 299.394531 220.835938 299.382812 221.089844 C 299.347656 221.675781 299.601562 222.378906 300.417969 222.683594 C 301.242188 222.988281 302.082031 223.253906 302.957031 223.535156 C 303.007812 223.363281 303.089844 223.171875 303.140625 223.023438 Z M 309.121094 227.34375 C 307.503906 227.085938 305.875 226.746094 304.269531 226.34375 C 303.347656 228.097656 302.15625 229.59375 300.730469 230.652344 C 300.210938 231.039062 299.648438 231.378906 299.078125 231.683594 C 299.941406 233.070312 300.816406 234.445312 301.730469 235.820312 C 301.789062 235.878906 301.800781 235.988281 301.839844 236.074219 C 302.363281 235.734375 302.898438 235.382812 303.40625 234.96875 C 305.910156 232.960938 307.90625 230.285156 309.121094 227.34375 Z M 309.765625 216.105469 C 309.460938 215.167969 309.109375 214.035156 308.902344 212.722656 C 308.84375 212.210938 308.792969 211.75 308.769531 211.347656 C 308.585938 211.128906 308.308594 210.800781 308.039062 210.484375 L 306.992188 209.269531 C 305.910156 207.964844 304.84375 206.726562 303.820312 205.679688 C 303.273438 206.554688 302.703125 207.417969 302.105469 208.269531 C 303.054688 209.109375 303.882812 210.132812 304.5625 211.347656 C 305.402344 212.894531 305.910156 214.59375 306.128906 216.40625 C 307.347656 216.273438 308.5625 216.152344 309.765625 216.105469 Z M 309.925781 225.054688 C 310.398438 223.316406 310.628906 221.699219 310.59375 220.386719 C 310.566406 219.65625 310.496094 219.011719 310.410156 218.402344 C 310.347656 218.414062 310.289062 218.453125 310.238281 218.453125 C 308.902344 218.5 307.589844 218.621094 306.265625 218.78125 C 306.214844 220.421875 305.925781 222.113281 305.390625 223.765625 C 305.339844 223.898438 305.292969 224.023438 305.230469 224.144531 C 306.773438 224.53125 308.34375 224.835938 309.925781 225.054688 Z M 312.953125 220.300781 C 313.011719 221.992188 312.707031 224.023438 312.0625 226.1875 C 312.0625 226.199219 312.050781 226.199219 312.050781 226.222656 C 312.0625 226.320312 312.089844 226.429688 312.089844 226.539062 C 312.050781 226.832031 311.90625 227.085938 311.699219 227.269531 C 310.363281 230.980469 307.980469 234.347656 304.878906 236.828125 C 301.875 239.238281 298.347656 240.804688 294.96875 241.230469 C 293.8125 241.390625 292.671875 241.453125 291.527344 241.453125 C 289.144531 241.453125 286.859375 241.136719 284.902344 240.503906 C 280.5 239.078125 276.574219 236.160156 273.875 232.242188 C 272.171875 229.8125 270.933594 227.039062 270.421875 224.582031 L 270.226562 223.667969 C 270.03125 222.769531 269.863281 221.941406 269.765625 221.25 C 269.703125 220.90625 269.691406 220.566406 269.742188 220.214844 C 269.8125 219.753906 269.949219 219.082031 270.046875 218.535156 L 270.25 217.492188 C 270.375 216.894531 270.445312 216.324219 270.542969 215.75 C 270.761719 214.472656 270.871094 213.78125 271.128906 213.113281 C 271.894531 211.226562 272.511719 209.804688 273.292969 208.574219 C 274.96875 205.9375 277.230469 203.625 279.855469 201.933594 C 283.140625 199.816406 287.273438 198.648438 291.503906 198.648438 C 295.539062 198.648438 299.539062 199.757812 302.726562 201.714844 C 304.828125 203.015625 306.75 205.304688 308.804688 207.734375 L 309.839844 208.964844 C 310.289062 209.488281 310.738281 210.011719 310.835938 210.132812 C 311.007812 210.3125 311.089844 210.570312 311.101562 210.824219 C 311.128906 211.238281 311.152344 211.773438 311.261719 212.359375 C 311.480469 213.804688 311.917969 215.058594 312.234375 215.96875 C 312.234375 216.007812 312.292969 216.140625 312.292969 216.152344 L 312.683594 217.574219 C 312.828125 218.476562 312.914062 219.339844 312.953125 220.300781 " fill-opacity="1" fill-rule="nonzero"/><path fill="#000000" d="M 293.921875 220.167969 C 294.117188 219.316406 293.460938 217.625 292.648438 217.367188 C 292.5 217.320312 292.332031 217.285156 292.160156 217.285156 C 291.113281 217.285156 289.949219 218.183594 289.523438 219.121094 C 289.292969 219.617188 289.230469 220.140625 289.363281 220.554688 C 289.484375 220.921875 289.753906 221.261719 290.140625 221.527344 C 290.871094 222.039062 291.894531 222.125 292.671875 221.734375 C 293.28125 221.457031 293.742188 220.835938 293.921875 220.167969 Z M 293.390625 215.117188 C 295.457031 215.800781 296.671875 218.753906 296.222656 220.726562 C 295.894531 222.074219 294.945312 223.253906 293.691406 223.863281 C 293.058594 224.191406 292.332031 224.351562 291.613281 224.351562 C 290.617188 224.351562 289.621094 224.058594 288.792969 223.472656 C 287.976562 222.925781 287.382812 222.125 287.101562 221.261719 C 286.800781 220.300781 286.894531 219.179688 287.347656 218.136719 C 288.292969 216.03125 290.957031 214.328125 293.390625 215.117188 " fill-opacity="1" fill-rule="nonzero"/><path fill="#000000" d="M 48.535156 224.15625 C 47.964844 222.0625 48.085938 219.875 48.363281 217.855469 C 46.335938 217.078125 44.558594 216.164062 42.992188 215.117188 C 42.941406 215.410156 42.894531 215.726562 42.820312 216.140625 C 42.734375 216.710938 42.636719 217.320312 42.515625 217.929688 L 42.335938 218.875 C 42.226562 219.363281 42.089844 220.058594 42.019531 220.519531 C 42.003906 220.652344 42.003906 220.773438 42.042969 220.90625 C 42.128906 221.566406 42.296875 222.34375 42.480469 223.171875 L 42.664062 224.105469 C 42.820312 224.800781 43.074219 225.566406 43.34375 226.308594 C 45.019531 225.394531 46.796875 224.75 48.535156 224.15625 Z M 52.242188 229.554688 C 51.0625 228.632812 50.117188 227.535156 49.433594 226.355469 C 47.695312 226.953125 45.910156 227.574219 44.328125 228.484375 C 44.742188 229.300781 45.203125 230.117188 45.75 230.894531 C 46.492188 231.964844 47.332031 232.925781 48.242188 233.824219 C 49.605469 232.597656 50.90625 231.210938 52.242188 229.554688 Z M 50.152344 211.054688 C 50.480469 210.484375 50.894531 209.996094 51.332031 209.535156 C 50.417969 208.320312 49.433594 207.152344 48.316406 206.128906 C 47.148438 207.238281 46.101562 208.488281 45.238281 209.839844 C 44.71875 210.667969 44.253906 211.617188 43.769531 212.785156 C 45.226562 213.816406 46.867188 214.71875 48.777344 215.496094 C 48.789062 215.445312 48.8125 215.386719 48.8125 215.335938 C 49.058594 213.964844 49.375 212.429688 50.152344 211.054688 Z M 53.652344 227.644531 C 53.945312 227.074219 53.8125 226.480469 53.53125 226.089844 C 53.375 225.882812 52.8125 225.203125 51.816406 225.542969 L 51.71875 225.578125 C 52.253906 226.40625 52.910156 227.085938 53.652344 227.644531 Z M 54.917969 216.371094 C 55.222656 215.945312 55.378906 215.277344 54.929688 214.632812 L 53.058594 211.945312 C 52.949219 211.785156 52.839844 211.628906 52.730469 211.480469 C 52.523438 211.738281 52.339844 211.992188 52.207031 212.25 C 51.609375 213.28125 51.355469 214.546875 51.148438 215.773438 C 51.113281 215.945312 51.074219 216.117188 51.039062 216.285156 C 51.074219 216.296875 51.113281 216.324219 51.160156 216.335938 C 51.890625 216.554688 52.621094 216.785156 53.363281 216.96875 C 54.261719 217.199219 54.785156 216.578125 54.917969 216.371094 Z M 60.230469 239.03125 C 60.207031 236.988281 59.988281 234.917969 59.707031 232.792969 C 58.855469 232.621094 57.980469 232.402344 57.09375 232.109375 C 56.0625 231.757812 55.101562 231.332031 54.226562 230.855469 C 52.839844 232.597656 51.453125 234.09375 50.054688 235.382812 C 51.730469 236.632812 53.59375 237.609375 55.5625 238.238281 C 56.949219 238.691406 58.539062 238.945312 60.230469 239.03125 Z M 61.800781 201.058594 C 61.679688 201.058594 61.566406 201.023438 61.433594 201.023438 C 57.652344 201.023438 53.980469 202.054688 51.074219 203.929688 C 50.757812 204.136719 50.46875 204.378906 50.152344 204.609375 C 51.257812 205.65625 52.230469 206.800781 53.117188 207.992188 C 53.457031 207.761719 53.800781 207.542969 54.089844 207.371094 C 55.648438 206.421875 57.128906 205.789062 58.613281 205.4375 C 59.390625 205.253906 60.230469 205.121094 61.058594 205.046875 C 61.226562 203.625 61.484375 202.3125 61.800781 201.058594 Z M 65.519531 230.429688 C 65.179688 229.871094 64.828125 229.335938 64.511719 228.765625 C 64.046875 227.988281 63.28125 227.878906 62.710938 228.085938 C 62.152344 228.265625 61.605469 228.777344 61.703125 229.652344 C 61.75 230.019531 61.789062 230.347656 61.824219 230.675781 C 62.492188 230.722656 63.171875 230.761719 63.816406 230.710938 C 64.390625 230.652344 64.960938 230.578125 65.519531 230.429688 Z M 65.847656 212.359375 C 66.84375 211.226562 67.792969 210.023438 68.71875 208.832031 C 67.0625 207.90625 65.167969 207.429688 63.257812 207.371094 C 63.183594 208.625 63.160156 209.9375 63.183594 211.398438 C 63.210938 212.359375 63.964844 212.699219 64.207031 212.785156 C 64.425781 212.867188 65.214844 213.085938 65.847656 212.359375 Z M 69.789062 237.21875 C 69.75 237.195312 69.714844 237.15625 69.703125 237.121094 C 68.707031 235.636719 67.71875 234.09375 66.773438 232.546875 C 65.882812 232.804688 64.949219 232.984375 63.988281 233.070312 C 63.625 233.09375 63.257812 233.109375 62.894531 233.109375 C 62.652344 233.109375 62.382812 233.09375 62.117188 233.070312 C 62.382812 235.042969 62.578125 237.035156 62.578125 239.054688 C 63.257812 239.019531 63.9375 238.980469 64.597656 238.886719 C 66.320312 238.664062 68.074219 238.070312 69.789062 237.21875 Z M 71.964844 204.097656 C 71.78125 203.964844 71.609375 203.84375 71.429688 203.734375 C 69.324219 202.445312 66.820312 201.582031 64.207031 201.230469 C 63.878906 202.394531 63.625 203.648438 63.453125 205 C 65.773438 205.121094 68.097656 205.691406 70.128906 206.882812 C 70.746094 205.960938 71.378906 205.035156 71.964844 204.097656 Z M 73.726562 216.722656 C 73.542969 215.203125 73.117188 213.769531 72.425781 212.503906 C 71.9375 211.601562 71.332031 210.835938 70.652344 210.191406 C 69.679688 211.480469 68.679688 212.722656 67.636719 213.914062 C 66.882812 214.777344 65.824219 215.253906 64.730469 215.253906 C 64.292969 215.253906 63.828125 215.167969 63.390625 215.019531 C 61.871094 214.460938 60.851562 213.074219 60.828125 211.46875 C 60.789062 210.023438 60.828125 208.707031 60.886719 207.429688 C 60.292969 207.503906 59.71875 207.601562 59.160156 207.734375 C 57.910156 208.050781 56.65625 208.574219 55.320312 209.390625 C 55.039062 209.574219 54.785156 209.742188 54.527344 209.914062 C 54.675781 210.144531 54.84375 210.363281 55.003906 210.582031 L 56.875 213.257812 C 57.8125 214.609375 57.8125 216.371094 56.863281 217.722656 C 56.132812 218.792969 54.964844 219.386719 53.726562 219.386719 C 53.410156 219.386719 53.09375 219.351562 52.753906 219.265625 C 52.0625 219.082031 51.355469 218.875 50.675781 218.65625 C 50.445312 220.359375 50.417969 221.941406 50.785156 223.402344 L 51.0625 223.316406 C 52.703125 222.757812 54.429688 223.292969 55.453125 224.703125 C 56.390625 225.980469 56.449219 227.597656 55.660156 228.921875 C 56.472656 229.347656 57.226562 229.652344 57.859375 229.859375 C 58.371094 230.03125 58.894531 230.1875 59.390625 230.296875 C 59.378906 230.210938 59.367188 230.128906 59.367188 230.03125 C 59.148438 228.070312 60.195312 226.40625 61.96875 225.835938 C 63.78125 225.238281 65.617188 225.957031 66.554688 227.574219 C 66.953125 228.265625 67.378906 228.949219 67.792969 229.640625 C 68.292969 229.386719 68.789062 229.09375 69.238281 228.777344 C 70.394531 227.902344 71.234375 226.792969 71.890625 225.675781 C 71.089844 225.445312 70.308594 225.1875 69.53125 224.898438 C 67.890625 224.289062 66.84375 222.71875 66.941406 220.957031 C 67.0625 219.230469 68.21875 217.855469 69.882812 217.464844 C 71.160156 217.175781 72.4375 216.929688 73.726562 216.722656 Z M 73.070312 223.023438 C 73.507812 221.722656 73.738281 220.398438 73.8125 219.121094 C 72.679688 219.300781 71.550781 219.507812 70.433594 219.777344 C 69.445312 219.996094 69.324219 220.835938 69.3125 221.089844 C 69.277344 221.675781 69.53125 222.378906 70.347656 222.683594 C 71.183594 222.988281 72.035156 223.253906 72.886719 223.535156 C 72.9375 223.363281 73.007812 223.171875 73.070312 223.023438 Z M 79.074219 227.34375 C 77.433594 227.085938 75.804688 226.746094 74.199219 226.34375 C 73.277344 228.097656 72.085938 229.59375 70.664062 230.652344 C 70.164062 231.039062 69.605469 231.378906 69.007812 231.683594 C 69.871094 233.070312 70.773438 234.46875 71.660156 235.796875 C 71.71875 235.878906 71.746094 235.988281 71.769531 236.074219 C 72.304688 235.734375 72.828125 235.382812 73.335938 234.96875 C 75.855469 232.960938 77.835938 230.285156 79.074219 227.34375 Z M 79.71875 216.105469 C 79.390625 215.167969 79.039062 214.035156 78.855469 212.722656 C 78.773438 212.210938 78.734375 211.75 78.699219 211.347656 C 78.515625 211.128906 78.238281 210.800781 77.96875 210.484375 L 76.949219 209.269531 C 75.84375 207.964844 74.796875 206.726562 73.761719 205.679688 C 73.203125 206.554688 72.621094 207.417969 72.035156 208.269531 C 72.984375 209.109375 73.835938 210.132812 74.492188 211.347656 C 75.332031 212.894531 75.855469 214.59375 76.074219 216.40625 C 77.277344 216.273438 78.503906 216.152344 79.71875 216.105469 Z M 79.855469 225.054688 C 80.339844 223.316406 80.570312 221.699219 80.523438 220.386719 C 80.5 219.65625 80.449219 219.011719 80.339844 218.402344 C 80.292969 218.414062 80.242188 218.453125 80.171875 218.453125 C 78.855469 218.5 77.519531 218.621094 76.195312 218.78125 C 76.171875 220.421875 75.878906 222.113281 75.320312 223.765625 C 75.28125 223.898438 75.222656 224.023438 75.160156 224.144531 C 76.71875 224.53125 78.273438 224.835938 79.855469 225.054688 Z M 82.894531 220.300781 C 82.964844 221.992188 82.636719 224.023438 82.007812 226.1875 C 82.007812 226.199219 82.007812 226.222656 81.980469 226.222656 C 82.007812 226.320312 82.03125 226.429688 82.019531 226.539062 C 81.980469 226.832031 81.835938 227.085938 81.628906 227.269531 C 80.292969 230.980469 77.921875 234.347656 74.808594 236.828125 C 71.792969 239.238281 68.28125 240.804688 64.898438 241.230469 C 63.746094 241.390625 62.601562 241.453125 61.457031 241.453125 C 59.101562 241.453125 56.789062 241.136719 54.832031 240.503906 C 50.429688 239.078125 46.503906 236.160156 43.804688 232.242188 C 42.128906 229.8125 40.851562 227.039062 40.351562 224.582031 L 40.167969 223.667969 C 39.976562 222.78125 39.792969 221.953125 39.683594 221.25 C 39.648438 220.90625 39.648438 220.554688 39.683594 220.214844 C 39.757812 219.703125 39.890625 218.960938 40.011719 218.414062 L 40.183594 217.492188 C 40.304688 216.894531 40.402344 216.324219 40.484375 215.75 C 40.691406 214.472656 40.8125 213.78125 41.082031 213.113281 C 41.824219 211.226562 42.445312 209.804688 43.222656 208.574219 C 44.898438 205.9375 47.183594 203.625 49.785156 201.933594 C 53.070312 199.816406 57.214844 198.648438 61.433594 198.648438 C 65.496094 198.648438 69.484375 199.757812 72.679688 201.714844 C 74.773438 203.015625 76.707031 205.304688 78.746094 207.734375 L 79.78125 208.964844 C 80.242188 209.488281 80.679688 210.011719 80.765625 210.132812 C 80.9375 210.3125 81.035156 210.570312 81.035156 210.824219 C 81.070312 211.238281 81.105469 211.773438 81.191406 212.359375 C 81.410156 213.816406 81.847656 215.070312 82.164062 215.980469 C 82.1875 216.019531 82.226562 216.117188 82.226562 216.152344 L 82.613281 217.574219 C 82.785156 218.476562 82.855469 219.339844 82.894531 220.300781 " fill-opacity="1" fill-rule="nonzero"/><path fill="#000000" d="M 63.84375 220.167969 C 64.046875 219.316406 63.390625 217.625 62.601562 217.367188 C 62.429688 217.320312 62.261719 217.285156 62.089844 217.285156 C 61.058594 217.285156 59.878906 218.183594 59.453125 219.121094 C 59.234375 219.617188 59.171875 220.140625 59.292969 220.554688 C 59.417969 220.921875 59.683594 221.261719 60.074219 221.527344 C 60.800781 222.039062 61.824219 222.125 62.601562 221.734375 C 63.210938 221.457031 63.695312 220.835938 63.84375 220.167969 Z M 63.320312 215.117188 C 65.398438 215.773438 66.625 218.753906 66.152344 220.703125 C 65.824219 222.074219 64.898438 223.253906 63.648438 223.863281 C 62.992188 224.191406 62.273438 224.351562 61.542969 224.351562 C 60.546875 224.351562 59.5625 224.058594 58.734375 223.472656 C 57.910156 222.925781 57.324219 222.125 57.046875 221.261719 C 56.742188 220.300781 56.828125 219.179688 57.300781 218.136719 C 58.25 216.054688 60.886719 214.304688 63.320312 215.117188 " fill-opacity="1" fill-rule="nonzero"/></svg>