<svg xmlns="http://www.w3.org/2000/svg" xmlns:xlink="http://www.w3.org/1999/xlink" version="1.1" x="0px" y="0px" viewBox="0 0 100 125" style="enable-background:new 0 0 100 100;" xml:space="preserve"><path d="M75.15387,39.17407c-0.89368-0.12048-1.80029-0.22687-2.69476-0.31482  c-1.04858-0.10364-2.12024-0.18616-3.18488-0.24475l-0.98425-0.05481l2.94714,5.54199h9.04816l-4.94714-4.90265L75.15387,39.17407z   M71.90497,42.99011l-1.70422-3.20435c0.72076,0.04938,1.44043,0.10962,2.14929,0.17963  c0.81976,0.08087,1.6499,0.17694,2.47058,0.28546l2.76392,2.73926H71.90497z"/><path d="M85.63568,44.56683c-0.01953-0.15851-0.08441-0.30829-0.18646-0.43097  c-0.2749-0.33051-0.55792-0.66162-0.85022-0.99213c-1.82495-2.06354-3.87494-3.97021-6.09235-5.66736  c-0.10962-0.08362-0.23798-0.13898-0.37421-0.16071c-3.12024-0.50256-6.30133-0.91016-9.4552-1.21136  c-3.80115-0.3631-7.73389-0.5824-11.68945-0.65186c-3.54932-0.06354-7.15314,0-10.71033,0.18616  c-0.11072,0.00598-0.21899,0.03363-0.31854,0.08142c-2.31024,1.11371-4.58136,2.36743-6.74994,3.7265  c-1.83392,1.14954-3.63177,2.39624-5.34741,3.70807l-4.30237,0.21869c-0.51257,0.02606-0.92889,0.07764-2.68085,0.29419  l-1.4082,0.17365c-4.87982,0.60083-6.20929,0.79352-7.4978,1.66571c-0.38318,0.25891-1.07513,0.78644-1.76447,1.41986  l-0.05048,0.04663c-0.60028,0.55145-0.99677,0.9162-1.34247,1.46759c-0.6236,0.99652-0.72644,1.99408-0.77393,2.85107  c-0.09851,1.77643,0.03906,3.75635,0.40894,5.88556c0.06244,0.35822,0.34979,0.63501,0.71045,0.68335l3.96838,0.53326  c0.36578,3.46661,3.30536,6.17725,6.86731,6.17725c3.52582,0,6.43799-2.65735,6.85162-6.07336h31.25732  c0.44666,3.38019,3.34015,5.99957,6.84033,5.99957c3.56915,0,6.51434-2.72137,6.87048-6.19806  c1.06488-0.18793,2.20636-0.39948,3.36005-0.65363l3.81146-0.83905c0.34515-0.07599,0.60516-0.36151,0.64832-0.7121  c0.24506-1.98865,0.36389-4.01147,0.35358-6.01147C85.97949,48.24609,85.86035,46.38989,85.63568,44.56683z M17.28583,48.2005  l0.05048-0.04614c0.17926-0.16473,0.34735-0.30939,0.50824-0.44513l3.31946,0.00989l-2.90833,1.53485H16.2796  C16.49988,48.92798,16.78693,48.65894,17.28583,48.2005z M25.99609,62.90411c-2.88904,0-5.23944-2.35065-5.23944-5.23969  c0-2.8891,2.3504-5.2392,5.23944-5.2392s5.23969,2.3501,5.23969,5.2392C31.23578,60.55347,28.88513,62.90411,25.99609,62.90411z   M70.94537,62.83026c-2.88904,0-5.23969-2.35065-5.23969-5.23969s2.35065-5.23969,5.23969-5.23969s5.23944,2.35065,5.23944,5.23969  S73.83441,62.83026,70.94537,62.83026z M80.81744,56.0177c-1.03607,0.22821-2.06616,0.42114-3.04272,0.59521  c-0.47736-3.34595-3.35358-5.92932-6.82935-5.92932c-3.55145,0-6.48303,2.69519-6.86292,6.14716H32.84772  c-0.41364-3.41602-3.32581-6.07281-6.85162-6.07281c-3.48615,0-6.36951,2.59833-6.83386,5.95868l-3.16791-0.4259  c-0.27002-1.76013-0.36963-3.44482-0.28876-4.90643c0.02124-0.38293,0.05762-0.71259,0.12067-1.01874h2.70465l7.09558-3.745  l-6.20911-0.01825c0.95166-0.43683,2.43652-0.63617,6.25635-1.10632l1.40948-0.17365  c1.70343-0.21112,2.10803-0.26105,2.56042-0.28387l4.56183-0.23175c0.16962-0.00867,0.3324-0.06891,0.46704-0.17261  c1.73511-1.33734,3.55933-2.60736,5.42175-3.77423c2.06976-1.29718,4.2348-2.49609,6.43805-3.56476  c3.46466-0.17749,6.97162-0.23669,10.42621-0.17535c3.91241,0.06842,7.802,0.28552,11.56024,0.64429  c3.04834,0.29089,6.12219,0.68274,9.14069,1.16418c2.06842,1.59949,3.98218,3.38837,5.69073,5.32056  c0.22552,0.25452,0.44531,0.51019,0.65997,0.76526c0.02991,0.25397,0.04291,0.51129,0.06854,0.76636h-3.55164l1.41302,2.28931  v2.39081h2.37317c-0.00488,1.61359-0.08746,3.23859-0.26428,4.84564L80.81744,56.0177z M82.51947,46.89197h1.65863  c0.06219,0.81927,0.10114,1.63776,0.11902,2.45697h-1.24548v-1.59509L82.51947,46.89197z"/><rect x="35.34137" y="45.91931" width="0.55579" height="7.50299"/><rect x="53.16199" y="45.91931" width="0.55579" height="7.50299"/><path d="M54.15955,37.86169l-0.70178-0.02222c-0.98315-0.03204-1.98621-0.04071-2.98022-0.02496  c-1.10474,0.01733-2.22119,0.06458-3.31781,0.14001l-0.1015,0.00702l-0.09229,0.04291  c-1.41327,0.64911-2.80438,1.39215-4.13434,2.20789c-1.6405,1.00629-3.22125,2.14441-4.69806,3.38239l-1.19403,1.0014  l15.45258-0.19379L54.15955,37.86169z M40.09503,43.44495c1.06567-0.82007,2.177-1.58539,3.31781-2.28497  c1.26355-0.77502,2.5835-1.48224,3.92493-2.10315c1.04449-0.07056,2.10614-0.1145,3.15686-0.1308  c0.74084-0.01196,1.48633-0.00977,2.22449,0.00543l-1.18079,4.37018L40.09503,43.44495z"/><path d="M65.9201,38.2677c-1.54279-0.12701-3.10565-0.22095-4.64484-0.27899  c-1.62042-0.06134-3.2652-0.08411-4.8891-0.07001l-0.44373,0.00378l-1.38885,6.3974L68.48157,44.125l-2.21222-5.828L65.9201,38.2677  z M55.93652,43.18878l0.90363-4.1618c1.46167-0.00323,2.93762,0.0174,4.39331,0.0722  c1.4068,0.05316,2.83337,0.13678,4.24591,0.24805l1.40002,3.68903L55.93652,43.18878z"/><path d="M25.99609,53.29639c-2.40845,0-4.36804,1.95929-4.36804,4.36804c0,2.40869,1.95959,4.36853,4.36804,4.36853  c2.40869,0,4.36829-1.95984,4.36829-4.36853C30.36438,55.25568,28.40479,53.29639,25.99609,53.29639z M25.99609,60.92145  c-1.79565,0-3.25647-1.46112-3.25647-3.25702c0-1.79541,1.46082-3.25653,3.25647-3.25653s3.25677,1.46112,3.25677,3.25653  C29.25287,59.46033,27.79175,60.92145,25.99609,60.92145z"/><rect x="69.61401" y="45.91931" width="0.55579" height="2.36206"/><path d="M70.94537,53.22253c-2.40869,0-4.36829,1.95935-4.36829,4.36804c0,2.40875,1.95959,4.36804,4.36829,4.36804  c2.40845,0,4.36804-1.95929,4.36804-4.36804C75.31342,55.18188,73.35382,53.22253,70.94537,53.22253z M70.94537,60.84705  c-1.79565,0-3.25677-1.46106-3.25677-3.25647s1.46112-3.25647,3.25677-3.25647s3.25647,1.46106,3.25647,3.25647  S72.74103,60.84705,70.94537,60.84705z"/><rect x="34.1604" y="55.21716" width="28.90131" height="0.55579"/><text x="0" y="115" fill="#000000" font-size="5px" font-weight="bold" font-family="'Helvetica Neue', Helvetica, Arial-Unicode, Arial, Sans-serif">Created by Marvdrock</text><text x="0" y="120" fill="#000000" font-size="5px" font-weight="bold" font-family="'Helvetica Neue', Helvetica, Arial-Unicode, Arial, Sans-serif">from the Noun Project</text></svg>