<svg xmlns="http://www.w3.org/2000/svg" xmlns:xlink="http://www.w3.org/1999/xlink" width="500" zoomAndPan="magnify" viewBox="0 0 375 374.999991" height="500" preserveAspectRatio="xMidYMid meet" version="1.0"><defs><clipPath id="31d1acae40"><path d="M 2 113.140625 L 373.605469 113.140625 L 373.605469 261.640625 L 2 261.640625 Z M 2 113.140625 " clip-rule="nonzero"/></clipPath></defs><g clip-path="url(#31d1acae40)"><path fill="#000000" d="M 15.332031 197.027344 C 15.71875 196.867188 16.105469 196.734375 16.492188 196.605469 C 15.453125 192.503906 15.234375 188.1875 15.851562 184 C 14.667969 184.144531 13.457031 184.207031 12.238281 184.195312 C 12.152344 184.339844 12.054688 184.496094 11.972656 184.628906 C 11.414062 185.59375 11.332031 186.847656 11.234375 188.292969 L 10.460938 200.089844 C 11.742188 198.859375 13.375 197.785156 15.332031 197.027344 Z M 20.878906 186.292969 C 21.226562 185.160156 21.652344 184.074219 22.085938 182.988281 C 20.828125 183.242188 19.546875 183.484375 18.28125 183.6875 C 17.578125 187.726562 17.761719 191.9375 18.75 195.941406 C 19.113281 195.832031 19.476562 195.734375 19.839844 195.652344 C 19.632812 192.503906 19.972656 189.308594 20.878906 186.292969 Z M 29.953125 208.011719 C 28.175781 207.832031 26.363281 207.867188 24.492188 207.890625 L 23.402344 207.929688 C 21.132812 207.964844 18.484375 207.941406 15.921875 207.277344 C 13.699219 206.710938 11.789062 205.660156 10.363281 204.273438 C 10.292969 204.453125 10.230469 204.636719 10.183594 204.816406 C 10.183594 204.925781 10.160156 205.019531 10.160156 205.117188 C 10.160156 206.070312 10.148438 207.492188 8.988281 208.867188 C 8.710938 209.195312 8.417969 209.519531 8.140625 209.796875 C 7.5 210.449219 7.28125 210.714844 7.199219 211.0625 C 7.113281 211.449219 7.1875 211.75 7.402344 212.570312 L 7.488281 212.957031 C 7.800781 214.222656 7.765625 215.429688 7.730469 216.476562 C 7.71875 216.914062 7.707031 217.335938 7.71875 217.769531 C 7.753906 218.722656 7.875 219.675781 8.03125 220.613281 C 12.1875 222.761719 17.289062 223.917969 22.980469 223.871094 C 23.707031 223.847656 24.441406 223.835938 24.890625 223.496094 C 25.324219 223.183594 25.578125 222.496094 25.84375 221.710938 C 26.519531 219.722656 27.089844 217.636719 27.632812 215.609375 C 28.320312 213.089844 29.035156 210.519531 29.953125 208.011719 Z M 34.507812 181.648438 C 35.125 181.203125 35.910156 180.648438 36.792969 180.191406 C 35.511719 180.226562 34.195312 180.503906 33 180.746094 L 24.839844 182.421875 C 24.226562 183.90625 23.585938 185.425781 23.136719 186.980469 C 22.351562 189.585938 22.027344 192.359375 22.160156 195.085938 C 23.1875 194.832031 24.238281 194.578125 25.226562 194.238281 C 26.132812 193.949219 27.015625 193.578125 27.875 193.179688 C 27.667969 192.574219 27.476562 191.960938 27.367188 191.285156 C 27.199219 190.152344 27.320312 189.078125 27.730469 188.199219 C 28.914062 185.558594 31.402344 183.808594 33.613281 182.265625 Z M 39.65625 181.722656 C 38.398438 181.804688 37.144531 182.636719 35.863281 183.554688 L 34.957031 184.195312 C 32.902344 185.605469 30.785156 187.101562 29.867188 189.152344 C 29.578125 189.753906 29.613281 190.453125 29.699219 190.933594 C 29.746094 191.320312 29.84375 191.707031 29.964844 192.09375 C 34.097656 189.65625 37.519531 186.015625 39.65625 181.722656 Z M 42.351562 191.574219 C 42.785156 191.285156 43.222656 191.042969 43.644531 190.789062 C 41.710938 190.140625 39.824219 189.320312 38.039062 188.355469 C 34.824219 192.058594 30.640625 194.925781 25.964844 196.472656 C 24.527344 196.941406 23.039062 197.292969 21.613281 197.617188 C 19.71875 198.074219 17.929688 198.507812 16.203125 199.195312 C 14.316406 199.945312 12.769531 201.015625 11.683594 202.246094 C 12.828125 203.5 14.496094 204.492188 16.503906 205.019531 C 18.789062 205.601562 21.242188 205.625 23.367188 205.589844 L 24.441406 205.550781 C 26.496094 205.527344 28.625 205.46875 30.75 205.746094 C 30.785156 205.757812 30.824219 205.769531 30.859375 205.792969 C 30.957031 205.574219 31.015625 205.359375 31.125 205.152344 C 33.90625 199.125 37.785156 194.433594 42.351562 191.574219 Z M 96.34375 226.609375 C 96.621094 221.15625 95.402344 216.042969 92.742188 211.402344 C 89.832031 206.347656 85.273438 202.03125 79.921875 199.292969 C 77.203125 197.90625 74.339844 196.917969 71.402344 196.363281 C 70.023438 196.121094 68.550781 195.988281 67.027344 195.988281 C 64.128906 195.988281 60.984375 196.445312 57.636719 197.375 C 55.390625 197.992188 53.179688 198.859375 50.941406 199.761719 C 47.863281 201.015625 44.851562 203.515625 41.699219 207.433594 C 37.953125 212.089844 35.644531 217.671875 35.039062 223.59375 C 34.933594 224.65625 34.882812 225.703125 34.882812 226.753906 C 34.882812 230.09375 35.292969 233.085938 36.054688 235.640625 C 36.707031 237.8125 38.085938 240.007812 39.402344 242.105469 C 39.898438 242.878906 40.382812 243.660156 40.828125 244.433594 C 41.53125 245.640625 42.605469 246.785156 43.742188 248.027344 C 44.34375 248.679688 44.949219 249.304688 45.503906 249.980469 C 47.160156 251.945312 48.902344 253.199219 51.148438 254.03125 C 53.84375 255.058594 56.683594 255.804688 59.558594 256.277344 C 63.691406 256.9375 67.898438 257.023438 72.019531 256.527344 L 72.234375 256.492188 C 76.066406 256.023438 79.679688 255.578125 82.628906 253.632812 C 86.566406 251.054688 89.480469 247.097656 91.582031 243.960938 C 93.105469 241.695312 94.324219 238.96875 95.21875 235.847656 C 95.910156 233.386719 96.054688 230.960938 96.222656 228.40625 Z M 105.347656 225.691406 C 105.636719 225.28125 106.035156 224.714844 106.566406 224.316406 C 105.792969 222.265625 105.054688 220.179688 104.355469 218.15625 C 103.253906 215.03125 102.132812 211.824219 100.839844 208.734375 C 100.574219 208.085938 100.296875 207.433594 100.003906 206.769531 C 98.300781 202.984375 96.476562 199.859375 94.445312 197.183594 C 93.890625 196.445312 93.296875 195.746094 92.707031 195.085938 C 92.441406 194.78125 92.199219 194.445312 91.980469 194.132812 C 91.824219 193.878906 91.65625 193.625 91.449219 193.40625 C 90.386719 192.238281 88.609375 191.308594 87.003906 190.550781 C 82.3125 188.332031 76.9375 187.75 72.792969 187.472656 C 66.664062 187.078125 61.6875 187.316406 57.082031 188.199219 C 52.089844 189.152344 48.066406 190.753906 43.609375 193.539062 C 39.425781 196.167969 35.839844 200.511719 33.253906 206.144531 C 31.777344 209.316406 30.824219 212.824219 29.894531 216.226562 C 29.324219 218.289062 28.757812 220.410156 28.054688 222.460938 C 27.753906 223.363281 27.355469 224.605469 26.265625 225.390625 C 25.265625 226.125 24.054688 226.1875 22.980469 226.210938 C 20.828125 226.210938 18.75 226.015625 16.746094 225.714844 C 21.023438 227.453125 25.53125 228.792969 29.976562 229.949219 C 29.917969 228.910156 29.867188 227.839844 29.867188 226.753906 C 29.867188 225.535156 29.929688 224.316406 30.050781 223.097656 C 30.75 216.199219 33.410156 209.699219 37.785156 204.285156 C 41.480469 199.691406 45.167969 196.6875 49.070312 195.121094 C 51.4375 194.144531 53.78125 193.226562 56.296875 192.539062 C 62.167969 190.921875 67.558594 190.550781 72.332031 191.441406 C 75.753906 192.09375 79.0625 193.226562 82.21875 194.832031 C 88.417969 198.027344 93.710938 203.019531 97.09375 208.917969 C 99.96875 213.898438 101.40625 219.335938 101.40625 225.101562 C 101.40625 225.691406 101.394531 226.269531 101.359375 226.863281 L 101.238281 228.730469 C 101.214844 229.09375 101.1875 229.480469 101.164062 229.851562 C 102.335938 229.851562 103.507812 229.851562 104.683594 229.863281 C 104.609375 229.441406 104.535156 229.03125 104.535156 228.609375 C 104.511719 227.476562 104.789062 226.476562 105.347656 225.691406 Z M 99.910156 167.828125 C 107.085938 167.152344 113.175781 163.078125 117.746094 159.496094 C 110.253906 159.664062 103.097656 159.84375 95.75 160.558594 C 75.246094 162.511719 53.953125 166.394531 30.640625 172.449219 C 26.96875 173.402344 22.824219 174.460938 19.332031 176.488281 C 16.960938 177.875 15.1875 179.816406 13.761719 181.816406 C 16.660156 181.6875 19.546875 181.117188 22.386719 180.527344 L 32.527344 178.453125 C 34.617188 178.019531 37.203125 177.5 39.65625 178.1875 C 39.8125 178.054688 39.972656 177.921875 40.1875 177.875 C 59.765625 173.148438 79.871094 169.769531 99.910156 167.828125 Z M 108.875 223.75 L 122.46875 223.402344 C 122.121094 221.84375 121.671875 220.578125 121.105469 219.601562 C 120.996094 219.421875 120.851562 219.277344 120.632812 219.09375 C 120.414062 218.890625 120.210938 218.683594 120.003906 218.457031 C 119.386719 217.71875 119 216.648438 118.953125 215.550781 C 118.953125 215.5 118.941406 215.441406 118.941406 215.394531 C 118.894531 215.234375 118.867188 215.066406 118.894531 214.875 C 118.894531 214.863281 118.90625 214.824219 118.90625 214.8125 C 118.6875 211.015625 118.347656 207.277344 118.035156 203.671875 C 117.671875 199.738281 117.332031 195.722656 117.128906 191.609375 C 114.964844 191.863281 112.863281 192.273438 110.832031 192.972656 C 106.90625 194.359375 102.277344 197.605469 101.082031 202.511719 C 101.03125 202.71875 100.921875 202.863281 100.789062 203.019531 C 101.261719 203.925781 101.695312 204.839844 102.144531 205.816406 C 102.433594 206.492188 102.734375 207.15625 103.015625 207.832031 C 104.332031 210.992188 105.46875 214.222656 106.566406 217.382812 C 107.304688 219.492188 108.078125 221.640625 108.875 223.75 Z M 131.121094 160.773438 L 129.453125 162.003906 C 129.03125 162.316406 128.621094 162.617188 128.199219 162.945312 C 129.128906 162.800781 130.082031 162.703125 131.023438 162.570312 C 131.023438 161.96875 131.0625 161.363281 131.121094 160.773438 Z M 147.808594 163.835938 C 148.292969 162.339844 148.535156 160.738281 148.460938 159.109375 C 148.4375 157.914062 148.316406 156.40625 147.796875 155.40625 C 147.664062 155.117188 147.4375 155.019531 146.554688 154.851562 C 145.769531 154.71875 144.984375 154.648438 144.183594 154.648438 C 142.144531 154.648438 140.027344 155.070312 137.625 155.589844 C 136.789062 155.769531 135.90625 155.972656 135.292969 156.40625 C 134.492188 156.976562 133.9375 158.046875 133.625 159.675781 C 133.332031 161.125 133.273438 162.582031 133.382812 164.042969 C 133.40625 164.429688 133.453125 164.523438 133.464844 164.535156 C 133.492188 164.511719 133.769531 164.511719 133.890625 164.511719 L 147.316406 164.222656 C 147.410156 164.222656 147.628906 164.210938 147.703125 164.1875 C 147.664062 164.1875 147.714844 164.125 147.808594 163.835938 Z M 205.066406 208.878906 C 204.894531 207.046875 204.847656 205.191406 204.847656 203.371094 C 188.59375 204.1875 172.230469 205.960938 156.195312 208.613281 C 148.535156 209.882812 140.183594 211.269531 131.8125 213.113281 C 132.546875 213.042969 133.285156 213.003906 134.023438 212.96875 C 151.277344 212.257812 168.753906 211.316406 185.984375 210.21875 C 192.109375 209.820312 198.429688 209.386719 205.066406 208.878906 Z M 205.511719 192.007812 C 205.679688 190.550781 205.8125 189.078125 205.933594 187.617188 C 179.289062 189.535156 152.328125 190.753906 125.683594 191.1875 C 123.605469 191.226562 121.515625 191.261719 119.460938 191.394531 C 119.652344 195.410156 119.992188 199.378906 120.367188 203.464844 C 120.644531 206.636719 120.933594 209.953125 121.152344 213.292969 C 132.824219 210.132812 145.019531 208.097656 155.808594 206.3125 C 171.992188 203.621094 188.484375 201.851562 204.882812 201.015625 C 204.894531 200.304688 204.90625 199.605469 204.945312 198.90625 C 205.015625 196.640625 205.269531 194.277344 205.511719 192.007812 Z M 168.605469 222.542969 L 206.890625 221.640625 C 206.792969 219.371094 206.382812 217.128906 205.949219 214.789062 C 205.730469 213.632812 205.511719 212.425781 205.34375 211.21875 C 198.648438 211.703125 192.292969 212.136719 186.128906 212.535156 C 168.886719 213.65625 151.398438 214.574219 134.117188 215.308594 C 131.714844 215.417969 129.296875 215.683594 126.953125 215.933594 C 125.199219 216.128906 123.375 216.332031 121.550781 216.464844 C 121.636719 216.648438 121.71875 216.828125 121.816406 216.972656 C 121.9375 217.117188 122.070312 217.238281 122.203125 217.371094 C 122.492188 217.613281 122.855469 217.949219 123.121094 218.417969 C 123.871094 219.710938 124.425781 221.328125 124.851562 223.328125 L 160.085938 222.410156 C 160.523438 222.398438 160.96875 222.375 161.441406 222.351562 C 162.953125 222.265625 164.523438 222.183594 166.058594 222.53125 C 166.578125 222.640625 167.21875 222.617188 167.871094 222.582031 C 168.125 222.570312 168.367188 222.542969 168.605469 222.542969 Z M 208.992188 128.644531 L 202.769531 128.644531 C 200.207031 128.644531 197.71875 128.910156 195.082031 129.1875 C 193.910156 129.308594 192.726562 129.441406 191.554688 129.539062 C 183.820312 130.191406 175.59375 133.421875 169.273438 136.160156 C 165.828125 137.667969 162.445312 139.367188 159.195312 141.261719 C 158.433594 141.707031 157.648438 142.152344 156.835938 142.613281 C 154.625 143.867188 152.316406 145.144531 150.324219 146.617188 L 142.492188 152.390625 C 143.96875 152.285156 145.464844 152.285156 147 152.5625 C 147.859375 152.71875 149.1875 152.960938 149.890625 154.332031 C 150.613281 155.746094 150.757812 157.503906 150.808594 159.023438 C 150.832031 159.496094 150.832031 159.953125 150.808594 160.398438 C 165.1875 159.085938 179.652344 158.3125 194.03125 158.132812 C 196.679688 158.097656 199.324219 158.046875 201.984375 157.988281 C 204.535156 148.292969 206.890625 138.425781 208.992188 128.644531 Z M 208.835938 167.082031 C 209.28125 164.789062 209.730469 162.449219 210.152344 160.148438 C 204.773438 160.28125 199.410156 160.398438 194.070312 160.460938 C 179.566406 160.652344 164.992188 161.414062 150.492188 162.777344 C 150.371094 163.378906 150.226562 163.96875 150.046875 164.574219 C 150.023438 164.574219 150.023438 164.574219 150.023438 164.574219 C 149.914062 164.945312 149.660156 165.730469 148.921875 166.175781 C 148.367188 166.527344 147.761719 166.550781 147.363281 166.5625 L 133.9375 166.851562 C 133.851562 166.851562 133.78125 166.851562 133.707031 166.851562 C 133.210938 166.851562 132.546875 166.804688 131.980469 166.34375 C 131.460938 165.921875 131.253906 165.394531 131.144531 164.921875 C 129.25 165.164062 127.363281 165.417969 125.464844 165.65625 C 125.285156 165.695312 125.09375 165.683594 124.933594 165.632812 C 124.015625 166.503906 123.171875 167.429688 122.46875 168.46875 C 119.460938 172.941406 119.375 179.007812 119.304688 183.890625 C 119.265625 185.640625 119.292969 187.367188 119.339844 189.054688 C 121.417969 188.921875 123.507812 188.886719 125.550781 188.847656 C 152.355469 188.414062 179.386719 187.183594 206.105469 185.253906 C 206.417969 179.128906 207.628906 172.992188 208.835938 167.082031 Z M 210.574219 157.796875 L 215.480469 128.621094 L 211.398438 128.644531 C 209.308594 138.402344 206.960938 148.253906 204.414062 157.941406 C 206.46875 157.890625 208.507812 157.84375 210.574219 157.796875 Z M 222.890625 128.621094 L 217.851562 128.621094 L 212.945312 157.722656 C 215.191406 157.675781 217.4375 157.613281 219.664062 157.542969 C 221.570312 148.039062 222.660156 138.320312 222.890625 128.621094 Z M 263.152344 204.371094 C 262.804688 204.03125 262.332031 203.730469 261.859375 203.539062 C 260.820312 203.054688 259.539062 203.019531 258.296875 202.984375 C 241.980469 202.644531 224.484375 202.453125 207.191406 203.238281 C 207.179688 205.070312 207.242188 206.890625 207.410156 208.710938 C 216.679688 208.011719 226.585938 207.226562 237.609375 206.289062 C 239.769531 206.105469 241.875 205.914062 243.929688 205.722656 C 250.34375 205.117188 256.433594 204.539062 263.152344 204.371094 Z M 262.03125 211.484375 C 262.550781 209.785156 263.070312 208.191406 263.625 206.710938 C 256.820312 206.878906 250.648438 207.433594 244.15625 208.046875 C 242.078125 208.242188 239.988281 208.445312 237.800781 208.628906 C 226.828125 209.554688 216.933594 210.351562 207.699219 211.039062 C 207.855469 212.148438 208.039062 213.269531 208.265625 214.355469 C 208.703125 216.695312 209.136719 219.121094 209.234375 221.578125 L 210.988281 221.542969 C 212.414062 221.542969 213.800781 221.496094 215.191406 221.457031 C 215.917969 221.421875 216.617188 221.410156 217.320312 221.398438 C 218.1875 221.375 219.046875 221.289062 219.890625 221.230469 C 220.871094 221.144531 221.839844 221.0625 222.828125 221.035156 L 255.84375 220.613281 C 256.21875 220.589844 256.628906 220.589844 257.027344 220.589844 C 257.074219 220.53125 257.113281 220.445312 257.171875 220.398438 C 258.261719 219.445312 259.152344 218.417969 259.804688 217.335938 C 260.761719 215.742188 261.292969 213.957031 261.847656 212.078125 Z M 262.476562 156.359375 C 263.550781 147.183594 264.242188 137.859375 264.542969 128.644531 C 261.8125 128.5625 259.105469 128.527344 256.410156 128.527344 C 253.980469 128.527344 251.566406 128.539062 249.171875 128.5625 C 246.730469 128.597656 244.265625 128.609375 241.824219 128.609375 L 225.234375 128.621094 C 225.003906 138.292969 223.929688 147.992188 222.054688 157.480469 C 224.917969 157.371094 227.746094 157.289062 230.5625 157.203125 C 241.027344 156.878906 251.855469 156.539062 262.476562 156.359375 Z M 264.820312 223.652344 C 264.726562 223.570312 264.640625 223.484375 264.578125 223.375 C 261.714844 222.894531 258.753906 222.917969 255.867188 222.941406 L 222.851562 223.375 C 221.921875 223.402344 221.003906 223.484375 220.097656 223.546875 C 219.191406 223.628906 218.308594 223.714844 217.390625 223.726562 C 216.679688 223.75 215.976562 223.761719 215.277344 223.796875 C 213.851562 223.835938 212.425781 223.882812 211.023438 223.882812 L 168.65625 224.882812 C 168.4375 224.882812 168.21875 224.894531 168.003906 224.921875 C 167.253906 224.957031 166.382812 225.003906 165.539062 224.800781 C 164.316406 224.535156 162.914062 224.605469 161.5625 224.691406 C 161.089844 224.703125 160.605469 224.738281 160.148438 224.75 L 108.378906 226.101562 C 108.246094 226.136719 108.113281 226.1875 107.96875 226.175781 C 107.824219 226.234375 107.402344 226.824219 107.253906 227.042969 C 106.929688 227.511719 106.867188 228.128906 106.882812 228.550781 C 106.882812 228.972656 106.964844 229.40625 107.074219 229.863281 C 159.410156 230.214844 212.398438 229.851562 264.726562 228.730469 C 264.6875 228.078125 264.652344 227.429688 264.652344 226.753906 C 264.652344 225.714844 264.726562 224.691406 264.820312 223.652344 Z M 269.777344 194.820312 C 269.726562 194.746094 269.667969 194.6875 269.632812 194.601562 C 267.953125 190.960938 264.652344 188.101562 260.785156 186.980469 C 258.066406 186.171875 255.070312 186.230469 252.195312 186.257812 C 248.472656 186.304688 244.773438 186.328125 241.074219 186.339844 C 231.964844 186.363281 222.539062 186.402344 213.246094 187.113281 C 211.613281 187.234375 209.945312 187.328125 208.292969 187.449219 C 208.183594 189.054688 208.027344 190.695312 207.84375 192.273438 C 207.601562 194.492188 207.359375 196.796875 207.289062 198.980469 C 207.253906 199.605469 207.242188 200.257812 207.226562 200.898438 C 224.53125 200.113281 242.03125 200.304688 258.34375 200.65625 C 259.757812 200.679688 261.367188 200.714844 262.851562 201.414062 C 263.804688 201.851562 264.554688 202.390625 265.085938 203.03125 C 265.992188 200.980469 266.949219 199.136719 267.988281 197.460938 C 268.542969 196.53125 269.160156 195.664062 269.777344 194.820312 Z M 289.921875 155.984375 C 287.105469 151.609375 284.347656 147.339844 281.59375 143.058594 C 278.65625 138.464844 275.683594 133.867188 272.664062 129.140625 C 270.730469 128.972656 268.808594 128.839844 266.863281 128.742188 C 266.585938 137.933594 265.898438 147.183594 264.847656 156.324219 C 273.183594 156.191406 281.546875 156.070312 289.921875 155.984375 Z M 292.347656 166.042969 C 292.734375 164.742188 293.109375 163.390625 293 162.125 C 292.867188 160.785156 292.144531 159.496094 291.394531 158.3125 C 281.75 158.410156 272.109375 158.53125 262.539062 158.699219 C 251.902344 158.878906 241.089844 159.21875 230.648438 159.542969 C 224.679688 159.738281 218.625 159.917969 212.546875 160.085938 C 212.109375 162.582031 211.613281 165.089844 211.121094 167.539062 C 209.972656 173.28125 208.800781 179.226562 208.460938 185.085938 C 210.007812 184.976562 211.542969 184.894531 213.066406 184.773438 C 222.441406 184.050781 231.917969 184.023438 241.050781 184 C 244.75 183.988281 248.433594 183.976562 252.15625 183.929688 C 255.214844 183.890625 258.378906 183.832031 261.460938 184.726562 C 265.679688 185.953125 269.316406 188.96875 271.335938 192.863281 C 273.617188 190.222656 276.179688 188.078125 278.921875 186.558594 C 281.546875 185.085938 284.398438 184.167969 287.324219 183.554688 C 287.347656 183.507812 287.324219 183.46875 287.347656 183.421875 Z M 297.230469 155.902344 L 290.574219 146 C 287.140625 140.921875 283.308594 136.8125 279.261719 132.457031 L 277.59375 130.660156 C 277.363281 130.40625 277.363281 130.40625 276.832031 130.25 C 276.566406 130.179688 276.289062 130.128906 276.023438 130.058594 C 278.574219 134.023438 281.074219 137.910156 283.578125 141.804688 C 286.585938 146.472656 289.59375 151.148438 292.675781 155.960938 C 294.199219 155.9375 295.707031 155.925781 297.230469 155.902344 Z M 314.246094 124.113281 C 314.210938 122.84375 314.597656 121.6875 315.164062 120.601562 C 307.515625 119.589844 299.734375 119.023438 291.671875 118.914062 L 240.96875 118.25 C 240.085938 118.238281 239.226562 118.347656 238.296875 118.46875 C 237.136719 118.601562 235.929688 118.757812 234.597656 118.695312 C 231.746094 118.589844 228.871094 118.539062 226.054688 118.539062 C 220.449219 118.550781 214.769531 118.804688 209.160156 119.289062 C 198.238281 120.242188 187.324219 122.097656 176.726562 124.8125 C 176.207031 124.945312 175.6875 125.066406 175.144531 125.183594 C 174.503906 125.316406 173.851562 125.460938 173.222656 125.65625 C 172.703125 125.800781 172.039062 126.199219 171.398438 126.609375 C 171.058594 126.800781 170.746094 127.007812 170.433594 127.1875 C 169.609375 127.632812 168.800781 128.128906 168.003906 128.597656 C 178.722656 125.355469 190.457031 123.136719 203.46875 121.894531 C 221.183594 120.242188 238.730469 120.566406 256.628906 121.109375 C 261.195312 121.242188 265.691406 121.324219 270.1875 121.410156 C 285.195312 121.675781 299.40625 121.941406 314.257812 124.183594 C 314.257812 124.160156 314.246094 124.136719 314.246094 124.113281 Z M 321.039062 189.65625 C 321.472656 189.269531 321.957031 188.945312 322.425781 188.667969 C 315.503906 184.652344 307.625 184.109375 302.101562 184.410156 L 300.601562 184.496094 C 293.449219 184.871094 286.066406 185.28125 280.058594 188.597656 C 276.191406 190.742188 272.710938 194.226562 269.980469 198.679688 C 267.78125 202.246094 265.96875 206.527344 264.277344 212.148438 L 264.109375 212.738281 C 263.515625 214.679688 262.914062 216.695312 261.8125 218.539062 C 261.378906 219.253906 260.859375 219.953125 260.253906 220.625 C 261.738281 220.664062 263.238281 220.796875 264.710938 221.023438 C 265.945312 215.828125 267.285156 210.519531 269.535156 205.527344 C 272.3125 199.292969 276.058594 194.566406 280.664062 191.492188 C 284.75 188.753906 289.910156 187.078125 295.972656 186.546875 C 301.28125 186.074219 306.644531 186.496094 311.828125 186.894531 C 315.09375 187.160156 318.171875 188.136719 321 189.707031 C 321.023438 189.679688 321.023438 189.667969 321.039062 189.65625 Z M 329.304688 155.769531 C 327.25 153.683594 325.0625 151.679688 322.789062 149.8125 C 312.289062 141.105469 299.625 134.722656 286.222656 131.359375 C 284.265625 130.867188 282.285156 130.480469 280.3125 130.140625 L 280.976562 130.867188 C 285.097656 135.292969 288.976562 139.464844 292.519531 144.699219 L 300.046875 155.890625 C 309.824219 155.816406 319.597656 155.769531 329.304688 155.769531 Z M 331.152344 226.609375 C 331.417969 221.15625 330.210938 216.042969 327.539062 211.402344 C 324.613281 206.347656 320.070312 202.03125 314.707031 199.292969 C 312 197.90625 309.132812 196.917969 306.210938 196.363281 C 304.820312 196.121094 303.359375 195.988281 301.824219 195.988281 C 298.921875 195.988281 295.792969 196.445312 292.433594 197.375 C 290.1875 197.992188 288 198.859375 285.75 199.761719 C 282.667969 201.015625 279.636719 203.515625 276.496094 207.433594 C 272.75 212.089844 270.453125 217.671875 269.847656 223.59375 C 269.75 224.65625 269.679688 225.703125 269.679688 226.753906 C 269.679688 230.09375 270.078125 233.085938 270.851562 235.640625 C 271.527344 237.8125 272.882812 239.984375 274.199219 242.105469 C 274.683594 242.878906 275.175781 243.648438 275.625 244.433594 C 276.324219 245.640625 277.414062 246.785156 278.550781 248.027344 C 279.152344 248.679688 279.757812 249.304688 280.3125 249.980469 C 281.96875 251.945312 283.695312 253.199219 285.933594 254.03125 C 288.652344 255.058594 291.480469 255.804688 294.355469 256.277344 C 298.5 256.9375 302.695312 257.023438 306.8125 256.527344 L 307.042969 256.492188 C 310.863281 256.023438 314.476562 255.578125 317.425781 253.632812 C 321.351562 251.054688 324.289062 247.097656 326.390625 243.960938 C 327.914062 241.695312 329.121094 238.96875 330.015625 235.847656 C 330.714844 233.386719 330.863281 230.960938 331.03125 228.394531 Z M 332.542969 128.671875 C 333 127.140625 333.496094 125.59375 333.96875 124.101562 C 328.578125 122.796875 323.152344 121.761719 317.679688 120.953125 C 317.039062 121.964844 316.554688 122.992188 316.589844 124.050781 C 316.601562 124.378906 316.675781 124.714844 316.773438 125.050781 C 316.820312 125.148438 316.867188 125.269531 316.878906 125.378906 C 317.132812 126.054688 317.507812 126.71875 317.90625 127.355469 C 319.71875 130.214844 321.90625 132.820312 324.421875 135.085938 C 326.210938 134.953125 328.203125 134.90625 330.597656 134.941406 C 331.234375 132.902344 331.890625 130.792969 332.542969 128.671875 Z M 348.925781 151.464844 C 350.96875 152.765625 353.058594 153.5625 355.089844 153.839844 C 348.503906 146.3125 341.496094 138.449219 334.148438 131.902344 C 334.101562 131.867188 334.074219 131.792969 334.039062 131.769531 C 333.664062 133 333.289062 134.207031 332.902344 135.410156 L 340.941406 144.144531 C 343.382812 146.785156 345.894531 149.523438 348.925781 151.464844 Z M 360.457031 161.339844 C 359.621094 159.542969 358.472656 157.890625 357.144531 156.25 C 356.976562 156.277344 356.804688 156.289062 356.648438 156.289062 C 353.714844 156.289062 350.605469 155.296875 347.671875 153.429688 C 344.371094 151.332031 341.75 148.472656 339.222656 145.710938 L 331.464844 137.292969 C 331.453125 137.292969 331.453125 137.292969 331.429688 137.292969 C 328.480469 137.234375 326.160156 137.292969 324.117188 137.460938 C 324.082031 137.472656 324.058594 137.472656 324.023438 137.472656 C 323.730469 137.472656 323.453125 137.367188 323.25 137.171875 C 320.410156 134.675781 317.945312 131.78125 315.914062 128.597656 C 315.527344 127.972656 315.164062 127.320312 314.863281 126.632812 C 299.828125 124.28125 285.402344 124.015625 270.136719 123.75 C 265.644531 123.664062 261.125 123.582031 256.554688 123.449219 C 238.730469 122.917969 221.269531 122.582031 203.6875 124.234375 C 186.371094 125.847656 171.363281 129.226562 158.046875 134.519531 C 155.230469 136.242188 152.4375 137.992188 149.695312 139.789062 C 140.679688 145.664062 131.824219 151.980469 123.375 158.578125 C 122.941406 158.917969 122.421875 159.085938 121.914062 159.097656 C 121.804688 159.15625 121.683594 159.230469 121.550781 159.265625 C 120.910156 159.929688 120.210938 160.53125 119.507812 161.085938 C 114.664062 164.910156 108.078125 169.382812 100.136719 170.15625 C 80.660156 172.039062 61.15625 175.304688 42.097656 179.851562 C 42.144531 179.925781 42.242188 179.996094 42.265625 180.09375 C 42.519531 180.613281 42.519531 181.179688 42.304688 181.6875 C 41.554688 183.375 40.609375 184.976562 39.523438 186.472656 C 41.613281 187.582031 43.824219 188.464844 46.085938 189.101562 C 46.21875 189.136719 46.339844 189.222656 46.4375 189.285156 C 49.6875 187.679688 52.914062 186.617188 56.648438 185.894531 C 61.433594 184.976562 66.605469 184.738281 72.9375 185.148438 C 77.3125 185.425781 82.941406 186.0625 88.003906 188.425781 C 89.804688 189.308594 91.835938 190.367188 93.191406 191.839844 C 93.457031 192.140625 93.695312 192.480469 93.925781 192.804688 C 94.097656 193.058594 94.253906 193.3125 94.445312 193.527344 C 95.085938 194.226562 95.714844 195 96.308594 195.785156 C 97.371094 197.171875 98.386719 198.679688 99.339844 200.332031 C 100.996094 196.097656 104.875 192.613281 110.070312 190.765625 C 112.332031 189.96875 114.652344 189.535156 117.019531 189.269531 C 116.960938 187.472656 116.921875 185.675781 116.960938 183.855469 C 117.03125 178.683594 117.128906 172.207031 120.523438 167.164062 C 122.507812 164.210938 125.453125 162.039062 128.039062 160.132812 L 131.894531 157.3125 C 132.378906 156.070312 133.03125 155.117188 133.9375 154.492188 C 134.953125 153.777344 136.148438 153.515625 137.117188 153.320312 C 137.199219 153.285156 137.296875 153.273438 137.382812 153.25 L 148.933594 144.746094 C 151.046875 143.191406 153.40625 141.851562 155.675781 140.574219 C 156.476562 140.117188 157.261719 139.679688 158.019531 139.234375 C 161.34375 137.316406 164.800781 135.542969 168.351562 134 C 174.820312 131.191406 183.289062 127.886719 191.351562 127.210938 C 192.507812 127.101562 193.683594 126.996094 194.84375 126.847656 C 197.414062 126.585938 200.085938 126.308594 202.769531 126.308594 L 241.824219 126.269531 C 244.265625 126.269531 246.707031 126.257812 249.160156 126.222656 C 261.558594 126.101562 274.40625 125.980469 286.789062 129.09375 C 300.53125 132.554688 313.507812 139.078125 324.289062 148.003906 C 327.34375 150.546875 330.246094 153.273438 332.902344 156.144531 C 333.207031 156.492188 333.316406 156.976562 333.109375 157.410156 C 332.929688 157.832031 332.503906 158.109375 332.035156 158.109375 C 319.464844 158.097656 306.777344 158.15625 294.089844 158.277344 C 294.667969 159.363281 295.1875 160.570312 295.320312 161.882812 C 295.492188 163.609375 295.019531 165.246094 294.609375 166.695312 L 289.871094 183.085938 C 293.363281 182.554688 296.953125 182.347656 300.480469 182.15625 L 301.96875 182.082031 C 308.09375 181.734375 317.023438 182.371094 324.6875 187.246094 C 324.808594 187.316406 324.902344 187.402344 325 187.460938 C 326.464844 186.96875 328.023438 186.628906 329.519531 186.304688 L 330.039062 186.195312 C 334.160156 185.328125 338.292969 184.195312 342.292969 183.085938 C 344.070312 182.601562 345.859375 182.09375 347.417969 181.25 C 348.878906 180.445312 349.929688 179.359375 350.5 178.175781 C 346.195312 176.355469 342.511719 173.507812 339.453125 170.929688 C 338.582031 170.203125 337.640625 169.324219 337.496094 167.996094 C 337.277344 166.226562 338.59375 164.824219 339.902344 164.089844 C 341.339844 163.292969 342.945312 162.957031 344.46875 162.691406 C 349.75 161.785156 355.101562 161.339844 360.457031 161.339844 Z M 363.101562 170.167969 C 363.054688 169.988281 362.992188 169.820312 362.921875 169.660156 C 362.632812 168.890625 362.28125 168.023438 362.097656 166.984375 C 361.894531 165.898438 361.664062 164.753906 361.351562 163.65625 C 355.863281 163.621094 350.292969 164.054688 344.878906 164.996094 C 343.5 165.246094 342.160156 165.511719 341.046875 166.128906 C 340.40625 166.476562 339.730469 167.128906 339.816406 167.695312 C 339.875 168.179688 340.445312 168.710938 340.953125 169.132812 C 344.117188 171.796875 347.925781 174.726562 352.324219 176.390625 C 355.257812 177.5 358.246094 177.886719 360.976562 177.597656 C 360.671875 177.609375 360.394531 177.621094 360.09375 177.621094 C 359.539062 177.621094 358.992188 177.597656 358.4375 177.535156 C 355.417969 177.273438 352.832031 176.101562 351.113281 174.269531 C 350.800781 173.929688 350.714844 173.449219 350.898438 173.015625 C 351.089844 172.59375 351.527344 172.316406 351.972656 172.316406 C 355.753906 172.289062 359.574219 171.53125 363.101562 170.167969 Z M 363.804688 174.980469 C 363.792969 174.800781 363.777344 174.617188 363.777344 174.414062 C 363.742188 173.75 363.707031 173.097656 363.644531 172.472656 C 361.011719 173.460938 358.246094 174.136719 355.453125 174.449219 C 356.394531 174.847656 357.484375 175.101562 358.65625 175.222656 C 360.347656 175.367188 362.085938 175.222656 363.804688 174.980469 Z M 364.179688 214.8125 C 364.191406 214.789062 364.214844 214.777344 364.226562 214.765625 C 363.695312 215.007812 363.175781 215.308594 362.617188 215.644531 C 362.316406 215.828125 362.039062 215.996094 361.738281 216.175781 C 360.238281 217.019531 358.667969 217.296875 357.132812 217.585938 L 356.191406 217.757812 C 354.246094 218.15625 352.285156 218.492188 350.351562 218.757812 C 346.402344 219.324219 342.378906 219.675781 338.414062 219.808594 C 337.894531 219.769531 337.460938 219.515625 337.289062 219.070312 C 337.15625 218.734375 337.183594 218.382812 337.339844 218.082031 C 337.195312 217.949219 337.023438 217.78125 336.890625 217.550781 C 336.625 217.128906 336.445312 216.683594 336.277344 216.285156 C 336.203125 216.09375 336.140625 215.933594 336.058594 215.765625 L 331.683594 206.15625 C 330.644531 203.886719 329.59375 201.546875 328.191406 199.511719 C 325.195312 195.179688 319.902344 189.886719 311.648438 189.234375 C 306.558594 188.835938 301.304688 188.414062 296.179688 188.859375 C 290.5 189.367188 285.738281 190.910156 281.96875 193.433594 C 278.417969 195.796875 275.40625 199.292969 272.992188 203.792969 C 276.566406 199.472656 280.109375 196.640625 283.855469 195.121094 C 286.234375 194.144531 288.589844 193.226562 291.09375 192.539062 C 296.964844 190.921875 302.378906 190.550781 307.128906 191.441406 C 310.535156 192.09375 313.871094 193.226562 317 194.832031 C 323.210938 198.003906 328.503906 203.019531 331.902344 208.917969 C 334.945312 214.222656 336.371094 220.058594 336.167969 226.257812 L 344.238281 225.800781 C 348.09375 225.570312 352.019531 225.355469 355.886719 224.824219 C 355.9375 224.691406 355.972656 224.546875 356.019531 224.414062 C 356.128906 224.113281 356.226562 223.8125 356.347656 223.519531 C 357 221.796875 358.136719 220.109375 359.730469 218.503906 C 361.144531 217.070312 362.75 215.863281 364.179688 214.8125 Z M 367.257812 190.632812 C 366.957031 190.273438 366.632812 189.921875 366.363281 189.535156 C 364.746094 187.195312 364.527344 184.363281 364.359375 182.265625 L 364.128906 179.347656 C 362.570312 179.792969 360.914062 180.035156 359.1875 180.035156 C 357.085938 180.035156 354.871094 179.660156 352.699219 178.972656 C 351.9375 180.683594 350.5 182.214844 348.566406 183.289062 C 346.765625 184.289062 344.820312 184.820312 342.945312 185.328125 C 338.886719 186.460938 334.714844 187.59375 330.523438 188.488281 L 330.015625 188.597656 C 329.121094 188.789062 328.238281 188.980469 327.371094 189.199219 C 329.691406 191.105469 331.730469 193.347656 333.386719 195.855469 C 333.449219 195.855469 333.496094 195.855469 333.542969 195.855469 C 342.148438 197.097656 351.1875 194.914062 359.175781 192.996094 C 361.882812 192.347656 364.648438 191.660156 367.257812 190.632812 Z M 366.992188 215.632812 C 366.523438 215.984375 366.050781 216.332031 365.578125 216.683594 C 364.226562 217.707031 362.691406 218.84375 361.398438 220.144531 C 360.019531 221.507812 359.066406 222.929688 358.535156 224.351562 C 358.523438 224.367188 358.523438 224.390625 358.5 224.402344 C 360.058594 224.136719 361.605469 223.796875 363.089844 223.375 C 363.511719 223.269531 364.273438 223.050781 364.566406 222.761719 C 364.746094 222.59375 364.964844 222.183594 365.144531 221.808594 L 365.617188 220.929688 C 366.4375 219.421875 366.882812 218.515625 366.882812 217.394531 C 366.882812 216.804688 366.945312 216.214844 366.992188 215.632812 Z M 367.671875 209.75 C 367.742188 208.917969 367.789062 208.058594 367.839844 207.226562 C 366.269531 207.15625 364.699219 206.855469 363.210938 206.359375 C 361.617188 207.722656 359.972656 209.085938 358.183594 210.304688 C 357.433594 210.820312 356.578125 211.003906 355.828125 211.160156 L 355.320312 211.269531 C 354.28125 211.523438 353.230469 211.75 352.179688 211.992188 C 350.113281 212.425781 348.007812 212.835938 345.929688 213.1875 C 344.660156 213.414062 342.292969 213.824219 340.527344 212.523438 C 339.621094 211.859375 339.078125 210.882812 338.644531 210.109375 C 338.160156 209.21875 337.582031 208.351562 336.941406 207.433594 C 335.925781 205.9375 334.847656 204.382812 334.210938 202.644531 C 332.382812 197.617188 329.035156 193.238281 324.710938 190.117188 C 324.128906 190.367188 323.597656 190.671875 323.089844 191.019531 C 325.714844 192.839844 328.070312 195.214844 330.113281 198.195312 C 331.636719 200.390625 332.734375 202.839844 333.808594 205.191406 L 338.195312 214.789062 C 338.28125 214.996094 338.367188 215.199219 338.449219 215.394531 C 338.582031 215.71875 338.691406 216.042969 338.886719 216.320312 C 338.910156 216.371094 338.96875 216.417969 339.019531 216.453125 C 339.222656 216.648438 339.539062 216.949219 339.707031 217.417969 C 343.140625 217.25 346.59375 216.9375 350.015625 216.453125 C 351.914062 216.175781 353.832031 215.851562 355.71875 215.464844 L 356.710938 215.285156 C 358.113281 215.03125 359.441406 214.777344 360.578125 214.136719 C 360.84375 213.96875 361.132812 213.8125 361.398438 213.644531 C 362.085938 213.246094 362.765625 212.8125 363.5625 212.488281 C 364.78125 212.003906 366.097656 211.824219 367.40625 211.917969 C 367.511719 211.207031 367.609375 210.472656 367.671875 209.75 Z M 367.996094 204.890625 C 368.042969 203.972656 368.082031 203.054688 368.128906 202.152344 C 367.429688 202.667969 366.800781 203.199219 366.257812 203.683594 L 365.300781 204.539062 C 366.171875 204.742188 367.089844 204.851562 367.996094 204.890625 Z M 368.347656 193.816406 C 368.347656 193.433594 368.359375 193.058594 368.347656 192.71875 C 365.519531 193.84375 362.582031 194.578125 359.730469 195.265625 C 353.242188 196.832031 346.085938 198.558594 338.886719 198.558594 C 337.53125 198.558594 336.191406 198.472656 334.847656 198.339844 C 335.429688 199.472656 335.984375 200.644531 336.421875 201.851562 C 336.964844 203.320312 337.882812 204.671875 338.886719 206.105469 C 339.5 207.046875 340.179688 208 340.710938 208.976562 C 341.0625 209.617188 341.421875 210.28125 341.90625 210.628906 C 342.800781 211.304688 344.261719 211.125 345.542969 210.882812 C 347.585938 210.53125 349.640625 210.132812 351.671875 209.699219 C 352.710938 209.460938 353.75 209.230469 354.789062 209 L 355.34375 208.867188 C 355.9375 208.746094 356.492188 208.628906 356.855469 208.375 C 359.285156 206.722656 361.410156 204.839844 363.65625 202.851562 L 364.710938 201.910156 C 365.652344 201.101562 366.835938 200.113281 368.214844 199.21875 C 368.261719 197.507812 368.296875 195.796875 368.324219 194.132812 Z M 372.816406 189.933594 C 373.421875 191.359375 373.386719 192.78125 373.363281 193.925781 L 373.351562 194.226562 C 373.265625 199.304688 373.132812 204.742188 372.683594 210.171875 C 372.601562 211.160156 372.445312 212.148438 372.308594 213.160156 C 372.117188 214.644531 371.910156 216.066406 371.910156 217.394531 C 371.921875 219.84375 370.921875 221.675781 370.039062 223.316406 L 369.605469 224.113281 C 369.265625 224.789062 368.832031 225.621094 368.082031 226.355469 C 366.96875 227.441406 365.617188 227.875 364.445312 228.210938 C 357.871094 230.035156 351.089844 230.429688 344.527344 230.804688 L 335.851562 231.300781 C 335.683594 233.207031 335.417969 235.171875 334.847656 237.222656 C 333.808594 240.828125 332.371094 244.035156 330.558594 246.75 C 328.191406 250.28125 324.867188 254.742188 320.191406 257.832031 C 316.265625 260.398438 311.878906 260.953125 307.648438 261.472656 L 307.429688 261.484375 C 305.449219 261.738281 303.441406 261.859375 301.449219 261.859375 C 298.828125 261.859375 296.179688 261.65625 293.570312 261.21875 C 290.332031 260.703125 287.175781 259.871094 284.15625 258.734375 C 281.109375 257.601562 278.671875 255.828125 276.457031 253.1875 C 275.964844 252.597656 275.40625 252.019531 274.863281 251.425781 C 273.59375 250.066406 272.277344 248.640625 271.285156 246.953125 C 270.851562 246.21875 270.40625 245.507812 269.945312 244.769531 C 268.445312 242.382812 266.898438 239.910156 266.042969 237.101562 C 265.726562 236.050781 265.472656 234.90625 265.28125 233.734375 C 225.015625 234.59375 184.378906 235.027344 143.929688 235.027344 C 129.453125 235.027344 114.988281 234.953125 100.597656 234.855469 C 100.441406 235.628906 100.269531 236.414062 100.042969 237.222656 C 99.015625 240.828125 97.578125 244.035156 95.777344 246.75 C 93.394531 250.28125 90.085938 254.742188 85.394531 257.832031 C 81.480469 260.398438 77.09375 260.953125 72.851562 261.472656 L 72.632812 261.484375 C 70.640625 261.738281 68.648438 261.859375 66.664062 261.859375 C 64.019531 261.859375 61.382812 261.65625 58.761719 261.21875 C 55.546875 260.703125 52.382812 259.871094 49.371094 258.734375 C 46.328125 257.601562 43.863281 255.828125 41.652344 253.1875 C 41.167969 252.597656 40.609375 252.019531 40.054688 251.425781 C 38.785156 250.066406 37.480469 248.640625 36.492188 246.953125 C 36.054688 246.21875 35.609375 245.507812 35.136719 244.769531 C 33.652344 242.382812 32.105469 239.910156 31.257812 237.101562 C 31.066406 236.535156 30.933594 235.90625 30.785156 235.304688 C 21.84375 233.109375 12.589844 230.296875 4.625 225.148438 C 4.105469 224.824219 3.71875 224.304688 3.5625 223.703125 C 3.066406 221.832031 2.761719 219.890625 2.691406 217.949219 C 2.679688 217.417969 2.691406 216.863281 2.714844 216.320312 C 2.75 215.476562 2.761719 214.742188 2.617188 214.164062 L 2.535156 213.8125 C 2.269531 212.777344 1.953125 211.582031 2.292969 210.039062 C 2.679688 208.230469 3.707031 207.179688 4.527344 206.324219 C 4.722656 206.105469 4.9375 205.890625 5.144531 205.660156 C 5.144531 205.601562 5.144531 205.3125 5.144531 205.070312 C 5.15625 204.804688 5.15625 204.515625 5.179688 204.226562 L 6.207031 188.078125 C 6.339844 186.160156 6.472656 184.085938 7.632812 182.09375 C 9.640625 178.660156 12.308594 174.789062 16.804688 172.160156 C 20.890625 169.78125 25.398438 168.613281 29.359375 167.585938 C 52.949219 161.472656 74.507812 157.542969 95.28125 155.550781 C 103.390625 154.792969 111.519531 154.625 119.414062 154.453125 L 120.546875 154.417969 C 129.03125 147.820312 137.925781 141.476562 146.941406 135.59375 C 151.496094 132.613281 156.183594 129.707031 160.847656 126.933594 C 163.21875 125.535156 165.574219 124.160156 167.953125 122.820312 C 168.21875 122.675781 168.484375 122.507812 168.753906 122.339844 C 169.644531 121.796875 170.648438 121.167969 171.820312 120.84375 C 172.535156 120.625 173.308594 120.457031 174.070312 120.289062 C 174.527344 120.167969 175.011719 120.070312 175.484375 119.953125 C 186.335938 117.175781 197.535156 115.273438 208.726562 114.296875 C 214.480469 113.800781 220.304688 113.535156 226.042969 113.523438 C 228.957031 113.523438 231.878906 113.570312 234.792969 113.691406 C 235.734375 113.726562 236.691406 113.609375 237.691406 113.488281 C 238.742188 113.355469 239.832031 113.222656 241.039062 113.234375 L 291.746094 113.910156 C 307.648438 114.101562 322.570312 116.03125 337.410156 119.769531 C 338.246094 119.988281 338.910156 120.601562 339.1875 121.410156 C 339.902344 123.582031 339.222656 126.113281 338.886719 127.101562 L 338.800781 127.332031 C 338.621094 127.910156 338.425781 128.441406 338.328125 128.921875 C 345.675781 135.59375 352.625 143.394531 359.125 150.824219 C 361.628906 153.695312 364.007812 156.589844 365.472656 160.183594 C 366.269531 162.160156 366.703125 164.1875 367.042969 166.09375 C 367.136719 166.648438 367.355469 167.203125 367.609375 167.828125 C 367.828125 168.382812 368.019531 168.9375 368.214844 169.542969 C 368.648438 171.109375 368.734375 172.75 368.78125 174.195312 C 368.816406 174.714844 368.832031 175.234375 368.867188 175.714844 L 369.363281 181.867188 C 369.496094 183.554688 369.652344 185.460938 370.496094 186.679688 C 370.691406 186.96875 370.921875 187.210938 371.164062 187.472656 C 371.695312 188.101562 372.382812 188.886719 372.816406 189.933594 " fill-opacity="1" fill-rule="nonzero"/></g><path fill="#000000" d="M 322.425781 226.574219 C 322.632812 222.664062 321.761719 218.988281 319.828125 215.65625 C 317.761719 212.039062 314.5 208.953125 310.65625 206.988281 C 308.722656 205.984375 306.667969 205.285156 304.566406 204.902344 C 303.5625 204.707031 302.511719 204.625 301.402344 204.625 C 299.347656 204.625 297.097656 204.960938 294.707031 205.601562 C 293.097656 206.035156 291.539062 206.660156 289.96875 207.300781 C 287.722656 208.191406 285.546875 210.003906 283.285156 212.8125 C 280.617188 216.152344 278.949219 220.15625 278.535156 224.402344 C 278.453125 225.136719 278.417969 225.910156 278.417969 226.65625 C 278.417969 229.042969 278.707031 231.179688 279.261719 233.023438 C 279.746094 234.605469 280.710938 236.160156 281.644531 237.667969 C 281.980469 238.199219 282.320312 238.742188 282.632812 239.269531 C 283.152344 240.175781 283.925781 240.984375 284.75 241.875 C 285.160156 242.308594 285.582031 242.757812 285.957031 243.214844 C 287.175781 244.660156 288.457031 245.601562 290.125 246.21875 C 292.046875 246.941406 294.054688 247.472656 296.109375 247.808594 C 299.042969 248.269531 302.015625 248.339844 304.953125 247.980469 C 307.839844 247.628906 310.4375 247.304688 312.601562 245.878906 C 315.429688 244.011719 317.507812 241.214844 319.019531 238.96875 C 320.09375 237.328125 320.988281 235.375 321.605469 233.15625 C 322.113281 231.382812 322.234375 229.648438 322.34375 227.828125 Z M 324.808594 225.5 C 324.808594 225.886719 324.785156 226.28125 324.769531 226.691406 L 324.6875 227.972656 C 324.554688 229.925781 324.433594 231.769531 323.863281 233.785156 C 323.164062 236.246094 322.199219 238.4375 320.953125 240.273438 C 319.332031 242.695312 317.074219 245.734375 313.894531 247.820312 C 311.261719 249.558594 308.289062 249.933594 305.386719 250.28125 C 303.949219 250.460938 302.523438 250.546875 301.097656 250.546875 C 299.296875 250.546875 297.496094 250.390625 295.734375 250.113281 C 293.535156 249.761719 291.359375 249.195312 289.304688 248.414062 C 287.273438 247.640625 285.628906 246.472656 284.15625 244.722656 C 283.804688 244.300781 283.417969 243.878906 283.03125 243.457031 C 282.175781 242.527344 281.269531 241.574219 280.617188 240.441406 C 280.3125 239.933594 279.988281 239.417969 279.671875 238.898438 C 278.65625 237.269531 277.582031 235.582031 277.015625 233.710938 C 276.398438 231.636719 276.070312 229.261719 276.070312 226.65625 C 276.070312 225.824219 276.109375 224.992188 276.191406 224.160156 C 276.675781 219.46875 278.5 215.03125 281.460938 211.339844 C 283.976562 208.21875 286.464844 206.191406 289.097656 205.117188 C 290.742188 204.464844 292.347656 203.839844 294.066406 203.34375 C 298.089844 202.246094 301.773438 201.996094 305 202.597656 C 307.320312 203.03125 309.59375 203.816406 311.730469 204.902344 C 315.949219 207.070312 319.5625 210.484375 321.871094 214.488281 C 323.816406 217.890625 324.808594 221.578125 324.808594 225.5 " fill-opacity="1" fill-rule="nonzero"/><path fill="#000000" d="M 313.425781 234.894531 C 315.308594 232.820312 316.347656 229.996094 316.226562 227.210938 C 315.03125 227.40625 313.824219 227.65625 312.613281 227.960938 C 311.492188 228.222656 310.378906 228.527344 309.253906 228.863281 C 309.132812 228.910156 308.953125 228.949219 308.722656 228.996094 C 308.589844 229.03125 308.335938 229.082031 308.082031 229.140625 Z M 319.902344 226.667969 C 319.816406 226.667969 319.695312 226.667969 319.550781 226.691406 C 319.210938 226.742188 318.898438 226.800781 318.558594 226.835938 C 318.777344 230.382812 317.460938 233.988281 315.042969 236.582031 C 315.25 236.761719 315.441406 236.882812 315.636719 236.894531 C 315.984375 236.933594 316.480469 236.59375 316.976562 235.980469 C 318.863281 233.554688 319.394531 230.203125 319.851562 227.234375 C 319.902344 226.945312 319.902344 226.777344 319.902344 226.667969 Z M 321.386719 224.789062 C 322.476562 225.621094 322.257812 227.054688 322.171875 227.585938 C 321.691406 230.683594 321.085938 234.507812 318.8125 237.414062 C 317.871094 238.621094 316.808594 239.246094 315.695312 239.246094 C 315.597656 239.246094 315.476562 239.234375 315.382812 239.234375 C 314.125 239.089844 313.253906 238.148438 312.734375 237.59375 L 305.992188 230.335938 C 305.773438 230.09375 305.425781 229.730469 305.304688 229.164062 C 304.964844 227.441406 307.164062 226.945312 308.214844 226.703125 C 308.359375 226.667969 308.492188 226.65625 308.589844 226.621094 C 309.738281 226.269531 310.898438 225.957031 312.070312 225.691406 C 314.4375 225.101562 316.855469 224.667969 319.261719 224.367188 C 319.71875 224.316406 320.636719 224.21875 321.386719 224.789062 " fill-opacity="1" fill-rule="nonzero"/><path fill="#000000" d="M 312.082031 218.539062 C 312.070312 218.515625 312.046875 218.492188 312.035156 218.46875 C 311.164062 215.742188 308.746094 213.558594 305.96875 212.910156 C 305.835938 213.390625 305.726562 213.957031 305.605469 214.597656 C 305.519531 214.996094 305.4375 215.378906 305.375 215.71875 L 304 221.375 C 303.949219 221.566406 303.925781 221.675781 303.914062 221.761719 C 303.949219 221.761719 304 221.785156 304.058594 221.785156 C 305.207031 221.917969 306.390625 221.375 307.816406 220.675781 Z M 315.550781 216.609375 C 315.613281 216.464844 315.5625 216.175781 315.417969 215.949219 C 315.199219 215.585938 314.8125 215.234375 314.425781 214.898438 C 313.304688 213.945312 312.046875 212.859375 310.730469 211.957031 C 309.738281 211.292969 308.734375 210.605469 307.828125 210.605469 C 307.816406 210.605469 307.816406 210.605469 307.816406 210.605469 C 307.5625 210.605469 307.347656 210.691406 307.140625 210.796875 C 310.34375 211.785156 313.050781 214.34375 314.160156 217.492188 L 314.632812 217.273438 C 314.921875 217.117188 315.441406 216.851562 315.550781 216.609375 Z M 317.4375 214.742188 C 317.980469 215.65625 318.078125 216.71875 317.691406 217.5625 C 317.242188 218.566406 316.25 219.058594 315.660156 219.359375 L 308.867188 222.761719 C 307.683594 223.351562 306.101562 224.148438 304.398438 224.148438 C 304.203125 224.148438 304 224.136719 303.792969 224.101562 C 302.960938 224.015625 302.34375 223.679688 301.957031 223.148438 C 301.351562 222.292969 301.605469 221.289062 301.726562 220.832031 L 303.09375 215.164062 C 303.164062 214.863281 303.226562 214.511719 303.296875 214.136719 C 303.734375 211.957031 304.433594 208.289062 307.792969 208.265625 C 309.472656 208.230469 310.824219 209.195312 311.949219 209.964844 C 313.484375 211.003906 314.789062 212.136719 315.949219 213.136719 C 316.433594 213.535156 317.023438 214.066406 317.4375 214.742188 " fill-opacity="1" fill-rule="nonzero"/><path fill="#000000" d="M 305.992188 240.65625 C 305.351562 239.707031 304.722656 238.742188 304.132812 237.75 C 303.757812 237.125 303.429688 236.460938 303.082031 235.808594 C 302.667969 235.039062 302.308594 234.300781 301.871094 233.628906 C 301.605469 233.21875 301.4375 233.15625 301.4375 233.15625 C 301.207031 233.191406 300.554688 233.675781 299.105469 236.496094 C 298.996094 236.75 298.875 236.96875 298.789062 237.125 C 298.175781 238.246094 297.582031 239.441406 297 240.609375 C 299.890625 241.527344 303.09375 241.5625 305.992188 240.65625 Z M 307.527344 243.335938 C 307.574219 243.179688 307.480469 242.925781 307.347656 242.671875 C 305.472656 243.335938 303.515625 243.660156 301.570312 243.660156 C 299.648438 243.660156 297.773438 243.335938 295.972656 242.707031 C 295.804688 243.167969 295.707031 243.601562 295.867188 243.867188 C 296.046875 244.253906 296.710938 244.46875 297.835938 244.554688 C 299.308594 244.660156 300.785156 244.722656 302.234375 244.699219 C 304.046875 244.699219 305.507812 244.566406 306.742188 243.988281 C 307.175781 243.78125 307.480469 243.527344 307.527344 243.335938 Z M 308.785156 240.574219 C 309.304688 241.308594 310.171875 242.527344 309.785156 243.949219 C 309.617188 244.566406 309.132812 245.445312 307.746094 246.097656 C 306.027344 246.90625 304.082031 247.039062 302.257812 247.039062 C 302.136719 247.039062 302.003906 247.039062 301.871094 247.039062 C 300.46875 247.039062 299.054688 246.988281 297.667969 246.882812 C 296.84375 246.820312 294.632812 246.675781 293.773438 244.914062 C 293 243.394531 293.800781 241.753906 294.175781 240.972656 C 294.996094 239.285156 295.839844 237.617188 296.734375 236.015625 C 296.820312 235.859375 296.917969 235.664062 297.015625 235.449219 C 298.1875 233.15625 299.480469 230.914062 301.351562 230.816406 C 302.003906 230.78125 302.996094 231.035156 303.839844 232.375 C 304.335938 233.144531 304.746094 233.953125 305.171875 234.738281 C 305.484375 235.363281 305.800781 235.953125 306.136719 236.558594 C 306.960938 237.933594 307.839844 239.285156 308.785156 240.574219 " fill-opacity="1" fill-rule="nonzero"/><path fill="#000000" d="M 295.042969 211.375 C 295.054688 211.003906 295.054688 210.617188 294.949219 210.472656 C 294.875 210.386719 294.632812 210.28125 294.367188 210.304688 C 293.96875 210.316406 293.535156 210.484375 293.0625 210.652344 C 291.746094 211.160156 290.367188 211.652344 289.28125 212.460938 C 288.023438 213.378906 286.777344 214.875 286.015625 216.371094 C 285.96875 216.476562 286.066406 216.816406 286.71875 217.347656 C 288.84375 214.632812 291.78125 212.523438 295.019531 211.375 Z M 296.359375 221.179688 C 296.542969 219.988281 296.277344 218.710938 296.011719 217.648438 C 295.925781 217.324219 295.839844 216.996094 295.757812 216.671875 C 295.515625 215.765625 295.273438 214.824219 295.128906 213.875 C 292.664062 214.875 290.476562 216.503906 288.796875 218.550781 C 289.800781 219.023438 290.875 219.410156 291.925781 219.734375 Z M 298.28125 217.070312 C 298.71875 218.804688 299.128906 221.074219 298.222656 223.136719 C 298.015625 223.570312 297.605469 223.835938 297.132812 223.835938 C 297.015625 223.835938 296.90625 223.8125 296.785156 223.785156 L 291.214844 221.964844 C 289.871094 221.542969 288.496094 221.097656 287.1875 220.410156 C 284.144531 218.78125 283.03125 217.070312 283.925781 215.308594 C 284.871094 213.476562 286.332031 211.703125 287.890625 210.570312 C 289.242188 209.578125 290.839844 208.976562 292.242188 208.457031 C 292.832031 208.242188 293.523438 208 294.28125 207.964844 C 295.296875 207.914062 296.253906 208.324219 296.796875 209.050781 C 297.484375 209.929688 297.425781 211.003906 297.363281 211.785156 L 297.351562 212.101562 C 297.304688 213.390625 297.65625 214.679688 298.015625 216.042969 C 298.101562 216.394531 298.210938 216.730469 298.28125 217.070312 " fill-opacity="1" fill-rule="nonzero"/><path fill="#000000" d="M 286.828125 237.703125 C 287.042969 237.59375 287.226562 237.425781 287.429688 237.292969 C 285.402344 234.578125 284.242188 231.25 284.132812 227.863281 C 283.578125 227.863281 283.019531 227.839844 282.464844 227.863281 C 282.054688 227.875 281.921875 227.921875 281.871094 227.945312 C 281.882812 227.945312 281.871094 228.042969 281.835938 228.296875 C 281.449219 231.648438 282.753906 235.160156 285.21875 237.460938 C 285.4375 237.667969 285.703125 237.898438 285.894531 237.945312 C 286.054688 237.96875 286.320312 237.945312 286.828125 237.703125 Z M 294.125 229.480469 C 294.308594 229.1875 294.320312 229.082031 294.320312 229.082031 C 294.1875 228.910156 293.484375 228.597656 291.042969 228.308594 L 290.5 228.25 C 289.171875 228.054688 287.804688 227.945312 286.464844 227.875 C 286.585938 230.722656 287.5625 233.496094 289.230469 235.796875 C 289.957031 235.027344 290.609375 234.15625 291.226562 233.335938 C 291.539062 232.902344 291.878906 232.46875 292.214844 232.035156 C 292.84375 231.203125 293.496094 230.347656 294.125 229.480469 Z M 296.46875 228.175781 C 296.710938 228.730469 296.84375 229.648438 296.023438 230.816406 C 295.40625 231.722656 294.742188 232.589844 294.066406 233.457031 C 293.75 233.894531 293.414062 234.300781 293.097656 234.738281 C 291.746094 236.558594 290.1875 238.621094 287.878906 239.789062 C 287.214844 240.128906 286.585938 240.285156 286.015625 240.285156 C 285.800781 240.285156 285.605469 240.273438 285.402344 240.222656 C 284.652344 240.054688 284.058594 239.597656 283.613281 239.164062 C 280.617188 236.375 279.042969 232.109375 279.503906 228.042969 C 279.550781 227.488281 279.695312 226.875 280.144531 226.367188 C 280.84375 225.582031 281.882812 225.535156 282.390625 225.523438 C 285.183594 225.402344 288.023438 225.535156 290.828125 225.921875 L 291.308594 225.992188 C 293.0625 226.1875 295.707031 226.488281 296.46875 228.175781 " fill-opacity="1" fill-rule="nonzero"/><path fill="#000000" d="M 281.933594 164.511719 C 282.003906 164.441406 282.003906 164.164062 281.871094 163.992188 C 281.644531 163.726562 281.230469 163.535156 280.710938 163.523438 C 280.179688 163.488281 279.578125 163.609375 278.9375 163.742188 L 278.753906 163.777344 C 276.445312 164.246094 274.101562 164.523438 271.746094 164.632812 C 271.082031 164.65625 270.378906 164.632812 269.667969 164.574219 C 269.160156 164.5625 268.640625 164.523438 268.121094 164.523438 C 267.417969 164.523438 266.753906 164.574219 266.199219 164.777344 C 265.980469 164.851562 265.933594 164.921875 265.933594 164.921875 C 265.945312 164.921875 266.078125 165.089844 266.40625 165.128906 C 268.242188 165.308594 270.210938 165.261719 272.109375 165.199219 L 273.269531 165.164062 C 275.855469 165.117188 278.464844 164.957031 281.027344 164.707031 C 281.28125 164.691406 281.800781 164.644531 281.933594 164.511719 Z M 283.710938 162.558594 C 284.578125 163.65625 284.519531 165.261719 283.5625 166.175781 C 282.839844 166.898438 281.847656 166.984375 281.242188 167.03125 C 278.632812 167.285156 275.976562 167.453125 273.328125 167.503906 L 272.167969 167.539062 C 271.25 167.5625 270.296875 167.601562 269.363281 167.601562 C 268.289062 167.601562 267.214844 167.550781 266.164062 167.453125 C 264.796875 167.324219 263.757812 166.371094 263.601562 165.140625 C 263.480469 164.007812 264.191406 162.992188 265.425781 162.558594 C 266.816406 162.089844 268.410156 162.171875 269.800781 162.257812 C 270.429688 162.292969 271.058594 162.316406 271.636719 162.292969 C 273.859375 162.183594 276.109375 161.917969 278.285156 161.484375 L 278.464844 161.449219 C 279.191406 161.304688 279.988281 161.136719 280.832031 161.183594 C 282.03125 161.230469 283.09375 161.738281 283.710938 162.558594 " fill-opacity="1" fill-rule="nonzero"/><path fill="#000000" d="M 201.292969 168.035156 C 201.429688 167.5625 201.546875 167.046875 201.621094 166.503906 C 196.425781 165.066406 190.804688 165.078125 185.644531 166.550781 C 185.523438 166.960938 185.523438 167.863281 185.671875 168.15625 C 185.851562 168.382812 186.308594 168.566406 186.867188 168.613281 C 187.386719 168.648438 187.941406 168.589844 188.511719 168.515625 L 189.015625 168.46875 C 190.816406 168.273438 192.644531 168.347656 194.40625 168.417969 C 196.8125 168.539062 199.121094 168.636719 201.292969 168.035156 Z M 203.203125 164.535156 C 203.722656 164.691406 204.0625 165.175781 204.027344 165.707031 C 203.953125 167.046875 203.710938 168.371094 203.289062 169.410156 C 203.167969 169.722656 202.902344 169.976562 202.589844 170.085938 C 199.820312 171.011719 197.015625 170.890625 194.285156 170.757812 C 192.628906 170.6875 190.902344 170.601562 189.257812 170.796875 L 188.800781 170.84375 C 188.269531 170.902344 187.761719 170.964844 187.203125 170.964844 C 187.035156 170.964844 186.867188 170.964844 186.695312 170.941406 C 185.464844 170.855469 184.4375 170.363281 183.785156 169.554688 C 183.070312 168.671875 183.121094 166.765625 183.421875 165.816406 C 183.722656 164.863281 184.269531 164.511719 184.679688 164.390625 C 190.671875 162.617188 197.246094 162.667969 203.203125 164.535156 " fill-opacity="1" fill-rule="nonzero"/><path fill="#000000" d="M 112.222656 160.316406 C 112.863281 160.328125 113.382812 160.847656 113.382812 161.496094 C 113.371094 162.136719 112.839844 162.65625 112.210938 162.65625 C 112.199219 162.65625 112.199219 162.65625 112.199219 162.65625 L 108.523438 162.605469 C 107.871094 162.582031 107.351562 162.0625 107.375 161.414062 C 107.386719 160.785156 107.910156 160.265625 108.546875 160.265625 L 108.5625 160.265625 L 112.222656 160.316406 " fill-opacity="1" fill-rule="nonzero"/><path fill="#000000" d="M 87.617188 226.574219 C 87.824219 222.664062 86.941406 218.988281 85.042969 215.65625 C 82.941406 212.039062 79.679688 208.953125 75.847656 206.988281 C 73.925781 205.984375 71.859375 205.285156 69.757812 204.902344 C 68.765625 204.707031 67.714844 204.625 66.605469 204.625 C 64.539062 204.625 62.289062 204.9375 59.898438 205.601562 C 58.300781 206.035156 56.753906 206.660156 55.171875 207.300781 C 52.9375 208.191406 50.761719 210.003906 48.503906 212.8125 C 45.796875 216.152344 44.164062 220.15625 43.730469 224.402344 C 43.65625 225.148438 43.621094 225.910156 43.621094 226.65625 C 43.621094 229.042969 43.898438 231.179688 44.464844 233.023438 C 44.949219 234.605469 45.917969 236.160156 46.859375 237.667969 C 47.183594 238.199219 47.523438 238.742188 47.824219 239.269531 C 48.371094 240.175781 49.167969 241.019531 49.953125 241.875 C 50.375 242.308594 50.773438 242.757812 51.160156 243.214844 C 52.382812 244.660156 53.675781 245.601562 55.328125 246.21875 C 57.238281 246.941406 59.257812 247.472656 61.300781 247.808594 C 64.246094 248.269531 67.234375 248.339844 70.15625 247.980469 C 73.058594 247.628906 75.632812 247.304688 77.792969 245.878906 C 80.621094 244.011719 82.710938 241.214844 84.222656 238.96875 C 85.3125 237.328125 86.179688 235.375 86.808594 233.15625 C 87.316406 231.382812 87.4375 229.660156 87.546875 227.839844 Z M 90 225.4375 C 90 225.847656 89.976562 226.269531 89.964844 226.691406 L 89.878906 227.996094 C 89.757812 229.925781 89.636719 231.769531 89.070312 233.785156 C 88.367188 236.246094 87.402344 238.4375 86.15625 240.273438 C 84.539062 242.695312 82.265625 245.734375 79.097656 247.820312 C 76.464844 249.558594 73.492188 249.933594 70.59375 250.28125 C 69.152344 250.460938 67.714844 250.546875 66.300781 250.546875 C 64.5 250.546875 62.714844 250.390625 60.9375 250.113281 C 58.726562 249.761719 56.5625 249.195312 54.484375 248.414062 C 52.464844 247.640625 50.835938 246.472656 49.371094 244.722656 C 48.996094 244.300781 48.609375 243.878906 48.222656 243.457031 C 47.355469 242.527344 46.472656 241.574219 45.820312 240.441406 C 45.515625 239.933594 45.203125 239.417969 44.863281 238.898438 C 43.835938 237.269531 42.785156 235.582031 42.21875 233.710938 C 41.578125 231.636719 41.265625 229.261719 41.265625 226.65625 C 41.265625 225.824219 41.3125 224.992188 41.398438 224.160156 C 41.867188 219.46875 43.691406 215.03125 46.652344 211.339844 C 49.179688 208.21875 51.679688 206.191406 54.289062 205.117188 C 55.933594 204.464844 57.554688 203.816406 59.28125 203.34375 C 63.292969 202.246094 66.96875 201.996094 70.195312 202.597656 C 72.511719 203.03125 74.796875 203.816406 76.925781 204.902344 C 81.152344 207.070312 84.753906 210.484375 87.0625 214.488281 C 89.007812 217.863281 90 221.542969 90 225.4375 " fill-opacity="1" fill-rule="nonzero"/><path fill="#000000" d="M 78.628906 234.894531 C 80.5 232.820312 81.539062 229.996094 81.445312 227.1875 C 80.222656 227.40625 79.015625 227.65625 77.832031 227.960938 C 76.683594 228.222656 75.558594 228.527344 74.460938 228.863281 C 74.339844 228.898438 74.144531 228.949219 73.925781 228.996094 C 73.792969 229.03125 73.539062 229.082031 73.285156 229.140625 Z M 85.105469 226.667969 C 85.019531 226.667969 84.910156 226.667969 84.753906 226.691406 C 84.417969 226.742188 84.101562 226.800781 83.765625 226.835938 C 83.96875 230.382812 82.664062 233.988281 80.246094 236.582031 C 80.453125 236.761719 80.660156 236.882812 80.839844 236.894531 C 81.191406 236.933594 81.671875 236.59375 82.15625 235.980469 C 84.066406 233.554688 84.585938 230.203125 85.058594 227.234375 C 85.105469 226.945312 85.105469 226.777344 85.105469 226.667969 Z M 86.578125 224.789062 C 87.691406 225.621094 87.449219 227.054688 87.363281 227.585938 C 86.882812 230.683594 86.277344 234.507812 84.019531 237.414062 C 83.0625 238.621094 82.011719 239.246094 80.914062 239.246094 C 80.792969 239.246094 80.695312 239.234375 80.574219 239.234375 C 79.328125 239.089844 78.460938 238.148438 77.925781 237.59375 L 71.195312 230.335938 C 70.980469 230.09375 70.628906 229.730469 70.507812 229.140625 C 70.15625 227.441406 72.355469 226.945312 73.417969 226.703125 C 73.578125 226.667969 73.6875 226.65625 73.769531 226.621094 C 74.929688 226.269531 76.101562 225.957031 77.273438 225.691406 C 79.632812 225.101562 82.058594 224.667969 84.453125 224.367188 C 84.910156 224.316406 85.832031 224.195312 86.578125 224.789062 " fill-opacity="1" fill-rule="nonzero"/><path fill="#000000" d="M 73.019531 220.675781 L 77.273438 218.539062 C 77.273438 218.515625 77.238281 218.492188 77.238281 218.46875 C 76.367188 215.742188 73.964844 213.558594 71.183594 212.910156 C 71.050781 213.390625 70.929688 213.957031 70.796875 214.597656 C 70.726562 214.996094 70.640625 215.378906 70.554688 215.71875 L 69.191406 221.375 C 69.152344 221.566406 69.117188 221.675781 69.117188 221.761719 C 69.152344 221.761719 69.203125 221.785156 69.25 221.785156 C 70.410156 221.917969 71.59375 221.375 73.019531 220.675781 Z M 80.753906 216.609375 C 80.816406 216.464844 80.753906 216.175781 80.621094 215.949219 C 80.40625 215.585938 80.003906 215.234375 79.617188 214.898438 C 78.507812 213.945312 77.261719 212.859375 75.921875 211.957031 C 74.941406 211.292969 73.925781 210.605469 73.019531 210.605469 C 73.019531 210.605469 73.019531 210.605469 73.007812 210.605469 C 72.753906 210.605469 72.539062 210.691406 72.332031 210.796875 C 75.546875 211.785156 78.265625 214.34375 79.367188 217.492188 L 79.8125 217.273438 C 80.140625 217.117188 80.632812 216.851562 80.753906 216.609375 Z M 82.628906 214.742188 C 83.183594 215.65625 83.28125 216.71875 82.894531 217.5625 C 82.445312 218.566406 81.457031 219.058594 80.875 219.359375 L 74.058594 222.761719 C 72.886719 223.351562 71.316406 224.148438 69.601562 224.148438 C 69.40625 224.148438 69.203125 224.136719 68.984375 224.101562 C 68.164062 224.015625 67.546875 223.679688 67.160156 223.148438 C 66.554688 222.292969 66.796875 221.289062 66.90625 220.832031 L 68.285156 215.164062 C 68.367188 214.863281 68.429688 214.523438 68.5 214.164062 C 68.925781 211.957031 69.636719 208.289062 72.984375 208.265625 C 73.007812 208.265625 73.019531 208.265625 73.019531 208.265625 C 74.640625 208.265625 76.03125 209.195312 77.152344 209.964844 C 78.675781 211.003906 80.003906 212.136719 81.152344 213.136719 C 81.625 213.535156 82.230469 214.066406 82.628906 214.742188 " fill-opacity="1" fill-rule="nonzero"/><path fill="#000000" d="M 71.195312 240.65625 C 70.542969 239.707031 69.925781 238.742188 69.335938 237.75 C 68.949219 237.125 68.621094 236.460938 68.285156 235.808594 C 67.886719 235.039062 67.5 234.300781 67.0625 233.628906 C 66.808594 233.21875 66.640625 233.15625 66.640625 233.15625 C 66.410156 233.191406 65.757812 233.675781 64.320312 236.496094 C 64.1875 236.75 64.078125 236.96875 63.980469 237.125 C 63.367188 238.269531 62.796875 239.441406 62.207031 240.609375 C 65.105469 241.527344 68.296875 241.5625 71.195312 240.65625 Z M 72.742188 243.335938 C 72.765625 243.179688 72.683594 242.925781 72.550781 242.671875 C 70.675781 243.335938 68.707031 243.660156 66.761719 243.660156 C 64.851562 243.660156 62.953125 243.335938 61.191406 242.707031 C 61.023438 243.167969 60.914062 243.601562 61.046875 243.867188 C 61.25 244.253906 61.929688 244.46875 63.039062 244.554688 C 64.5 244.660156 65.976562 244.722656 67.449219 244.699219 C 69.25 244.699219 70.6875 244.566406 71.945312 243.988281 C 72.378906 243.78125 72.671875 243.527344 72.742188 243.335938 Z M 73.976562 240.574219 C 74.460938 241.261719 75.378906 242.527344 74.992188 243.949219 C 74.832031 244.566406 74.328125 245.445312 72.9375 246.097656 C 71.207031 246.90625 69.289062 247.039062 67.460938 247.039062 C 67.328125 247.039062 67.195312 247.039062 67.0625 247.039062 C 65.675781 247.039062 64.273438 246.988281 62.882812 246.882812 C 62.035156 246.820312 59.847656 246.675781 58.957031 244.914062 C 58.207031 243.394531 58.992188 241.753906 59.378906 240.972656 C 60.1875 239.308594 61.046875 237.632812 61.941406 236.015625 C 62 235.859375 62.109375 235.664062 62.21875 235.449219 C 63.378906 233.15625 64.683594 230.914062 66.554688 230.816406 C 67.207031 230.78125 68.1875 231.035156 69.035156 232.375 C 69.539062 233.144531 69.953125 233.953125 70.363281 234.738281 C 70.675781 235.363281 70.992188 235.953125 71.339844 236.558594 C 72.164062 237.933594 73.058594 239.269531 73.976562 240.574219 " fill-opacity="1" fill-rule="nonzero"/><path fill="#000000" d="M 60.25 211.375 C 60.261719 211.003906 60.261719 210.617188 60.152344 210.472656 C 60.078125 210.386719 59.875 210.304688 59.609375 210.304688 C 59.609375 210.304688 59.59375 210.304688 59.582031 210.304688 C 59.171875 210.316406 58.714844 210.484375 58.253906 210.652344 C 56.9375 211.160156 55.582031 211.652344 54.472656 212.460938 C 53.214844 213.378906 51.984375 214.875 51.222656 216.371094 C 51.160156 216.476562 51.257812 216.816406 51.933594 217.347656 C 54.0625 214.632812 56.960938 212.523438 60.234375 211.375 Z M 61.554688 221.179688 C 61.734375 219.988281 61.480469 218.710938 61.214844 217.648438 C 61.140625 217.324219 61.046875 216.984375 60.949219 216.671875 C 60.71875 215.765625 60.464844 214.824219 60.332031 213.875 C 57.867188 214.875 55.679688 216.503906 54 218.550781 C 54.992188 219.023438 56.066406 219.410156 57.128906 219.734375 Z M 63.5 217.070312 C 63.933594 218.804688 64.320312 221.074219 63.414062 223.136719 C 63.234375 223.570312 62.796875 223.835938 62.339844 223.835938 C 62.21875 223.835938 62.085938 223.8125 61.976562 223.785156 L 56.394531 221.964844 C 55.074219 221.542969 53.699219 221.097656 52.394531 220.410156 C 49.335938 218.78125 48.222656 217.070312 49.128906 215.308594 C 50.050781 213.476562 51.546875 211.703125 53.082031 210.570312 C 54.460938 209.578125 56.042969 208.976562 57.457031 208.457031 C 58 208.265625 58.714844 208 59.476562 207.964844 C 60.515625 207.914062 61.457031 208.324219 62 209.050781 C 62.6875 209.929688 62.628906 211.003906 62.582031 211.785156 L 62.554688 212.101562 C 62.496094 213.390625 62.847656 214.679688 63.207031 216.042969 C 63.316406 216.382812 63.390625 216.730469 63.5 217.070312 " fill-opacity="1" fill-rule="nonzero"/><path fill="#000000" d="M 52.03125 237.703125 C 52.234375 237.59375 52.429688 237.425781 52.636719 237.292969 C 50.605469 234.578125 49.445312 231.25 49.3125 227.863281 C 48.78125 227.863281 48.222656 227.839844 47.679688 227.863281 C 47.246094 227.875 47.113281 227.921875 47.078125 227.945312 C 47.089844 227.945312 47.0625 228.042969 47.039062 228.296875 C 46.652344 231.648438 47.945312 235.160156 50.421875 237.460938 C 50.617188 237.667969 50.894531 237.898438 51.113281 237.945312 C 51.246094 237.96875 51.511719 237.945312 52.03125 237.703125 Z M 59.304688 229.480469 C 59.511719 229.1875 59.511719 229.082031 59.511719 229.082031 C 59.378906 228.910156 58.6875 228.597656 56.25 228.308594 L 55.714844 228.25 C 54.375 228.054688 53.023438 227.945312 51.65625 227.875 C 51.789062 230.722656 52.742188 233.496094 54.421875 235.796875 C 55.160156 235.027344 55.8125 234.15625 56.417969 233.335938 C 56.753906 232.902344 57.082031 232.46875 57.394531 232.035156 C 58.0625 231.203125 58.714844 230.347656 59.304688 229.480469 Z M 61.675781 228.175781 C 61.929688 228.730469 62.0625 229.648438 61.238281 230.816406 C 60.597656 231.722656 59.933594 232.589844 59.28125 233.457031 C 58.941406 233.894531 58.628906 234.300781 58.300781 234.738281 C 56.9375 236.558594 55.390625 238.621094 53.082031 239.789062 C 52.394531 240.128906 51.789062 240.285156 51.210938 240.285156 C 51.003906 240.285156 50.808594 240.273438 50.605469 240.222656 C 49.832031 240.054688 49.261719 239.597656 48.816406 239.164062 C 45.820312 236.375 44.25 232.109375 44.695312 228.042969 C 44.769531 227.511719 44.878906 226.875 45.347656 226.367188 C 46.050781 225.582031 47.089844 225.535156 47.570312 225.523438 C 50.386719 225.402344 53.238281 225.535156 56.007812 225.921875 L 56.515625 225.992188 C 58.253906 226.1875 60.902344 226.488281 61.675781 228.175781 " fill-opacity="1" fill-rule="nonzero"/><path fill="#000000" d="M 22.148438 219.625 C 22.449219 219.070312 21.785156 217.9375 21.542969 217.5625 C 20.695312 216.128906 19.800781 214.730469 18.894531 213.304688 C 18.484375 212.644531 18.0625 211.992188 17.542969 211.617188 C 16.757812 211.0625 15.71875 211.097656 15.1875 211.171875 L 15.113281 211.183594 C 14.269531 211.292969 13.796875 211.402344 13.542969 211.484375 C 13.652344 211.738281 13.832031 212.050781 13.917969 212.222656 C 14.015625 212.425781 14.097656 212.59375 14.160156 212.726562 C 15.054688 214.707031 15.960938 216.683594 16.855469 218.671875 C 17.058594 219.121094 17.277344 219.589844 17.578125 219.855469 C 18.074219 220.277344 18.96875 220.289062 19.921875 220.277344 C 20.480469 220.253906 21 220.242188 21.433594 220.121094 C 21.785156 220.011719 22.050781 219.820312 22.148438 219.625 Z M 23.574219 216.382812 C 24.042969 217.152344 25.132812 218.988281 24.238281 220.710938 C 23.828125 221.472656 23.066406 222.0625 22.109375 222.363281 C 21.359375 222.582031 20.648438 222.59375 19.996094 222.617188 C 19.800781 222.617188 19.609375 222.617188 19.402344 222.617188 C 18.363281 222.617188 17.058594 222.496094 16.03125 221.628906 C 15.367188 221.023438 15.015625 220.253906 14.738281 219.636719 C 13.808594 217.648438 12.914062 215.65625 12.019531 213.679688 C 11.984375 213.570312 11.921875 213.476562 11.851562 213.34375 C 11.414062 212.535156 10.75 211.316406 11.390625 210.28125 C 11.972656 209.300781 13.457031 209.039062 14.8125 208.867188 L 14.882812 208.84375 C 16.40625 208.664062 17.832031 208.964844 18.894531 209.699219 C 19.800781 210.351562 20.394531 211.269531 20.855469 212.015625 C 21.796875 213.488281 22.703125 214.910156 23.574219 216.382812 " fill-opacity="1" fill-rule="nonzero"/></svg>